<svg width="263" height="113" viewBox="0 0 263 113" fill="none" xmlns="http://www.w3.org/2000/svg">
<path d="M167 82.7528C222.345 85.593 246.678 48.8243 252.819 10.3669" stroke="white" stroke-width="2.7411" stroke-miterlimit="10" stroke-linecap="round" stroke-linejoin="round"/>
<path d="M244.531 10.367L252.974 2L261.111 13.7915" stroke="white" stroke-width="2.7411" stroke-miterlimit="10" stroke-linecap="round" stroke-linejoin="round"/>
<path d="M1.464 74.792C1.176 74.632 1.016 74.456 0.984 74.264C0.968 74.072 1.08 73.736 1.32 73.256C1.56 72.776 1.936 72.032 2.448 71.024C2.832 70.304 3.088 69.744 3.216 69.344C3.36 68.928 3.44 68.632 3.456 68.456C3.472 68.28 3.48 68.168 3.48 68.12C3.448 67.976 3.464 67.864 3.528 67.784C3.592 67.688 3.696 67.608 3.84 67.544C3.92 67.464 4.104 67.32 4.392 67.112C4.68 66.904 4.904 66.656 5.064 66.368C5.208 66.032 5.368 65.688 5.544 65.336C5.736 64.984 5.984 64.544 6.288 64.016C6.592 63.472 7 62.768 7.512 61.904C7.832 61.344 8.208 60.712 8.64 60.008C9.088 59.304 9.528 58.664 9.96 58.088C10.136 57.864 10.32 57.688 10.512 57.56C10.704 57.432 10.872 57.368 11.016 57.368C11.368 57.368 11.72 57.464 12.072 57.656C12.424 57.832 12.736 58.056 13.008 58.328C13.28 58.6 13.464 58.856 13.56 59.096C13.64 59.224 13.672 59.496 13.656 59.912C13.64 60.328 13.608 60.832 13.56 61.424C13.512 62.016 13.456 62.648 13.392 63.32C13.344 63.976 13.272 64.752 13.176 65.648C13.08 66.544 12.984 67.48 12.888 68.456C12.808 69.432 12.744 70.376 12.696 71.288C12.648 72.184 12.648 72.968 12.696 73.64C12.712 73.784 12.712 73.92 12.696 74.048C12.68 74.176 12.672 74.28 12.672 74.36C12.576 74.456 12.368 74.496 12.048 74.48C11.728 74.48 11.416 74.432 11.112 74.336C10.808 74.24 10.64 74.12 10.608 73.976C10.56 73.928 10.528 73.888 10.512 73.856C10.496 73.824 10.496 73.672 10.512 73.4C10.528 73.112 10.552 72.592 10.584 71.84L10.704 68.168L10.392 68.192C10.248 68.192 9.984 68.208 9.6 68.24C9.232 68.272 8.824 68.32 8.376 68.384C7.944 68.432 7.544 68.488 7.176 68.552C6.808 68.6 6.552 68.648 6.408 68.696C6.264 68.696 6.088 68.792 5.88 68.984C5.688 69.176 5.504 69.424 5.328 69.728C5.264 69.952 5.144 70.192 4.968 70.448C4.808 70.688 4.728 70.848 4.728 70.928C4.616 71.008 4.52 71.104 4.44 71.216C4.376 71.328 4.344 71.384 4.344 71.384C4.344 71.48 4.272 71.72 4.128 72.104C3.984 72.472 3.808 72.888 3.6 73.352C3.392 73.8 3.176 74.192 2.952 74.528L2.304 75.44L1.464 74.792ZM7.2 66.536C7.2 66.536 7.288 66.52 7.464 66.488C7.64 66.456 7.848 66.424 8.088 66.392C8.344 66.344 8.568 66.32 8.76 66.32C9.128 66.224 9.432 66.152 9.672 66.104C9.928 66.056 10.136 66.032 10.296 66.032C10.456 66.016 10.584 66.032 10.68 66.08C10.744 66.16 10.8 66.208 10.848 66.224C10.912 66.24 10.944 66.248 10.944 66.248C10.96 66.216 10.992 66.048 11.04 65.744C11.088 65.44 11.144 65.064 11.208 64.616C11.272 64.168 11.336 63.704 11.4 63.224C11.464 62.728 11.52 62.272 11.568 61.856C11.616 61.424 11.648 61.088 11.664 60.848C11.68 60.544 11.672 60.272 11.64 60.032C11.608 59.776 11.592 59.648 11.592 59.648C11.496 59.648 11.312 59.824 11.04 60.176C10.784 60.512 10.48 60.968 10.128 61.544C9.792 62.104 9.456 62.712 9.12 63.368C8.96 63.672 8.808 63.912 8.664 64.088C8.536 64.264 8.432 64.352 8.352 64.352C8.32 64.384 8.232 64.512 8.088 64.736C7.96 64.944 7.816 65.184 7.656 65.456C7.512 65.712 7.384 65.952 7.272 66.176C7.176 66.384 7.152 66.504 7.2 66.536ZM16.3378 73.28C16.0978 73.28 15.8578 73.104 15.6178 72.752C15.3778 72.384 15.1858 71.936 15.0418 71.408C14.9138 70.88 14.8658 70.36 14.8978 69.848C14.8978 69.336 14.9218 68.928 14.9698 68.624C15.0338 68.304 15.0978 67.992 15.1618 67.688C15.2098 67.592 15.2338 67.512 15.2338 67.448C15.2498 67.384 15.2658 67.28 15.2818 67.136C15.3138 66.992 15.3698 66.752 15.4498 66.416C15.5138 66.144 15.5778 65.92 15.6418 65.744C15.7218 65.568 15.7858 65.448 15.8338 65.384C16.0258 65.128 16.2418 64.976 16.4818 64.928C16.7218 64.864 16.9378 64.888 17.1298 65C17.3378 65.112 17.4578 65.28 17.4898 65.504C17.5858 65.584 17.6338 65.768 17.6338 66.056C17.6498 66.328 17.6338 66.616 17.5858 66.92C17.5378 67.208 17.4658 67.416 17.3698 67.544C17.3378 67.624 17.2978 67.832 17.2498 68.168C17.2178 68.504 17.1778 68.856 17.1298 69.224C17.0978 69.592 17.0578 69.888 17.0098 70.112C16.9618 70.4 16.9778 70.584 17.0578 70.664C17.1538 70.728 17.3138 70.656 17.5378 70.448C17.7778 70.224 18.0898 69.832 18.4738 69.272C18.7938 68.792 19.0258 68.416 19.1698 68.144C19.3298 67.872 19.4498 67.624 19.5298 67.4C19.6258 67.176 19.7298 66.912 19.8418 66.608C19.9218 66.352 19.9938 66.144 20.0578 65.984C20.1378 65.824 20.2098 65.712 20.2738 65.648C20.4498 65.392 20.6818 65.288 20.9698 65.336C21.2738 65.368 21.5218 65.448 21.7138 65.576C21.9058 65.768 22.0178 66.032 22.0498 66.368C22.0978 66.688 22.0258 67.04 21.8338 67.424C21.7058 67.68 21.5778 67.984 21.4498 68.336C21.3378 68.688 21.2418 69.04 21.1618 69.392C21.0978 69.744 21.0658 70.048 21.0658 70.304C21.0658 70.624 21.1058 70.816 21.1858 70.88C21.2818 70.928 21.3938 70.952 21.5218 70.952C21.7138 70.952 21.8978 70.888 22.0738 70.76C22.2498 70.616 22.5058 70.368 22.8418 70.016C22.9858 69.872 23.1618 69.656 23.3698 69.368C23.5778 69.08 23.7778 68.776 23.9698 68.456C24.1778 68.136 24.3458 67.856 24.4738 67.616C24.6178 67.36 24.6898 67.2 24.6898 67.136C24.6898 67.04 24.7618 66.904 24.9058 66.728C25.0018 66.6 25.0738 66.504 25.1218 66.44C25.1858 66.36 25.2978 66.28 25.4578 66.2C25.5858 66.136 25.7298 66.128 25.8898 66.176C26.0498 66.208 26.1858 66.288 26.2978 66.416C26.3778 66.48 26.4338 66.64 26.4658 66.896C26.5138 67.136 26.5378 67.352 26.5378 67.544C26.4898 67.72 26.4178 67.968 26.3218 68.288C26.2258 68.592 26.1218 68.888 26.0098 69.176C25.9138 69.448 25.8258 69.632 25.7458 69.728C25.6818 69.792 25.5698 69.912 25.4098 70.088C25.2498 70.248 25.1058 70.424 24.9778 70.616C24.5778 71.096 24.2898 71.408 24.1138 71.552C23.9378 71.696 23.7858 71.832 23.6578 71.96C23.3218 72.296 22.9378 72.568 22.5058 72.776C22.0738 72.968 21.6658 73.08 21.2818 73.112C20.8978 73.128 20.5938 73.056 20.3698 72.896C19.8738 72.64 19.6258 72.208 19.6258 71.6C19.6258 71.472 19.6018 71.36 19.5538 71.264C19.5218 71.152 19.5058 71.096 19.5058 71.096C19.4418 71.096 19.3538 71.112 19.2418 71.144C19.1458 71.176 19.0418 71.288 18.9298 71.48C18.7858 71.752 18.5378 72.032 18.1858 72.32C17.8498 72.592 17.5058 72.824 17.1538 73.016C16.8018 73.192 16.5298 73.28 16.3378 73.28ZM29.3123 74.144C28.8003 74.144 28.3283 74.032 27.8963 73.808C27.4803 73.568 27.1443 73.28 26.8883 72.944C26.6323 72.592 26.5043 72.256 26.5043 71.936C26.5043 71.792 26.5283 71.688 26.5763 71.624C26.6403 71.56 26.7283 71.528 26.8403 71.528C26.9203 71.544 27.0163 71.584 27.1283 71.648C27.2403 71.712 27.3523 71.784 27.4643 71.864C27.7203 72.04 28.0003 72.152 28.3043 72.2C28.6083 72.248 28.8803 72.232 29.1203 72.152C29.3603 72.056 29.4963 71.912 29.5283 71.72C29.5283 71.656 29.4963 71.52 29.4323 71.312C29.3683 71.104 29.2883 70.904 29.1923 70.712C28.7923 70.12 28.5443 69.56 28.4483 69.032C28.3523 68.488 28.2883 67.944 28.2563 67.4C28.2563 67.176 28.3603 66.928 28.5683 66.656C28.7763 66.368 29.0323 66.088 29.3363 65.816C29.6723 65.528 30.0403 65.256 30.4403 65C30.8563 64.744 31.2643 64.528 31.6643 64.352C32.0643 64.176 32.4003 64.072 32.6723 64.04C32.9603 64.04 33.2643 64.056 33.5843 64.088C33.9203 64.104 34.1443 64.16 34.2563 64.256C34.4803 64.432 34.6883 64.72 34.8803 65.12C35.0723 65.52 35.1683 65.856 35.1683 66.128C35.1683 66.256 35.0963 66.416 34.9523 66.608C34.8243 66.784 34.7043 66.984 34.5923 67.208C34.5283 67.32 34.4723 67.44 34.4243 67.568C34.3763 67.696 34.3203 67.824 34.2563 67.952C34.1603 68.176 33.9843 68.272 33.7283 68.24C33.4883 68.192 33.2643 68.064 33.0563 67.856C32.8483 67.632 32.7443 67.376 32.7443 67.088C32.7443 66.848 32.8163 66.64 32.9603 66.464C33.1043 66.288 33.1763 66.168 33.1763 66.104C33.1763 66.072 33.1603 66.048 33.1283 66.032C33.0963 66.016 33.0403 66.008 32.9603 66.008C32.8483 66.008 32.6643 66.056 32.4083 66.152C32.1683 66.232 31.9123 66.352 31.6403 66.512C31.3683 66.672 31.1203 66.864 30.8963 67.088C30.7363 67.264 30.6003 67.456 30.4883 67.664C30.3923 67.856 30.3443 68.064 30.3443 68.288C30.3443 68.512 30.3843 68.776 30.4643 69.08C30.5603 69.368 30.6643 69.608 30.7763 69.8C30.8083 69.832 30.8563 69.92 30.9203 70.064C31.0003 70.192 31.0883 70.352 31.1843 70.544C31.7763 71.76 31.8723 72.664 31.4723 73.256C31.0883 73.848 30.3683 74.144 29.3123 74.144ZM37.0789 73.832C36.8709 73.832 36.7029 73.792 36.5749 73.712C36.4629 73.632 36.3189 73.52 36.1429 73.376C35.8389 73.056 35.5909 72.712 35.3989 72.344C35.2229 71.976 35.1589 71.656 35.2069 71.384C35.2549 71.256 35.2709 71.136 35.2549 71.024C35.2549 70.896 35.2549 70.832 35.2549 70.832C35.1749 70.752 35.1509 70.704 35.1829 70.688C35.2149 70.656 35.2469 70.608 35.2789 70.544C35.3749 70.544 35.4069 70.456 35.3749 70.28C35.3429 70.152 35.3909 69.88 35.5189 69.464C35.6629 69.032 35.8549 68.624 36.0949 68.24C36.1909 68.08 36.3349 67.872 36.5269 67.616C36.7189 67.344 36.9269 67.08 37.1509 66.824C37.3909 66.552 37.6069 66.336 37.7989 66.176C38.1989 65.84 38.5669 65.568 38.9029 65.36C39.2549 65.152 39.6069 65.008 39.9589 64.928C40.3109 64.848 40.6709 64.808 41.0389 64.808C41.4229 64.808 41.7349 64.936 41.9749 65.192C42.3429 65.352 42.5989 65.568 42.7429 65.84C42.9029 66.112 43.0069 66.464 43.0549 66.896C43.1029 67.376 43.0549 67.968 42.9109 68.672C42.7669 69.36 42.3749 70.16 41.7349 71.072C41.3349 71.648 40.9429 72.096 40.5589 72.416C40.1749 72.736 39.7509 73.032 39.2869 73.304C38.9509 73.528 38.5909 73.664 38.2069 73.712C37.8229 73.76 37.4469 73.8 37.0789 73.832ZM39.5269 70.904C39.8789 70.6 40.1269 70.264 40.2709 69.896C40.4309 69.528 40.5989 69.096 40.7749 68.6C40.8389 68.504 40.8789 68.344 40.8949 68.12C40.9269 67.896 40.9349 67.68 40.9189 67.472C40.9029 67.248 40.8469 67.12 40.7509 67.088C40.6069 66.976 40.4629 66.952 40.3189 67.016C40.1749 67.064 39.9909 67.168 39.7669 67.328C39.2869 67.728 38.8389 68.192 38.4229 68.72C38.0229 69.232 37.7429 69.864 37.5829 70.616C37.5349 71.016 37.5749 71.32 37.7029 71.528C37.8469 71.72 38.0709 71.776 38.3749 71.696C38.6949 71.6 39.0789 71.336 39.5269 70.904ZM45.3902 73.208C45.0862 73.08 44.8382 72.888 44.6462 72.632C44.4702 72.36 44.3822 72.032 44.3822 71.648C44.3822 71.488 44.4142 71.216 44.4782 70.832C44.5422 70.448 44.6302 70.016 44.7422 69.536C44.8542 69.056 44.9662 68.608 45.0782 68.192C45.2382 67.904 45.3422 67.616 45.3902 67.328C45.4542 67.04 45.4862 66.864 45.4862 66.8C45.5182 66.608 45.5742 66.352 45.6542 66.032C45.7342 65.712 45.8142 65.424 45.8942 65.168C45.9902 64.896 46.0542 64.744 46.0862 64.712C46.1662 64.632 46.3022 64.584 46.4942 64.568C46.6862 64.552 46.8782 64.576 47.0702 64.64C47.2622 64.688 47.3902 64.792 47.4542 64.952C47.6302 65.144 47.7262 65.432 47.7422 65.816C47.7742 66.2 47.7022 66.648 47.5262 67.16C47.3822 67.48 47.2382 67.856 47.0942 68.288C46.9502 68.72 46.8222 69.12 46.7102 69.488C46.6142 69.84 46.5582 70.08 46.5422 70.208L45.6782 70.184C45.9502 69.928 46.2062 69.664 46.4462 69.392C46.6862 69.104 46.8622 68.88 46.9742 68.72C47.2462 68.352 47.4782 68.048 47.6702 67.808C47.8782 67.552 48.1422 67.248 48.4622 66.896C48.7822 66.528 49.1262 66.272 49.4942 66.128C49.8622 65.968 50.1342 65.888 50.3102 65.888C50.6622 65.952 50.9742 66.136 51.2462 66.44C51.5342 66.728 51.7102 67.16 51.7742 67.736C51.7742 67.96 51.7502 68.224 51.7022 68.528C51.6702 68.832 51.6542 68.984 51.6542 68.984C51.6542 68.984 51.7822 68.824 52.0382 68.504C52.3102 68.184 52.6702 67.824 53.1182 67.424C53.4222 67.2 53.7182 67.072 54.0062 67.04C54.2942 66.992 54.5502 67.088 54.7742 67.328C55.1902 67.552 55.4942 67.944 55.6862 68.504C55.8782 69.064 55.9422 69.696 55.8782 70.4C55.8302 70.816 55.8302 71.152 55.8782 71.408C55.9422 71.648 56.0062 71.864 56.0702 72.056C56.2782 72.344 56.3102 72.6 56.1662 72.824C56.0222 73.032 55.8942 73.136 55.7822 73.136C55.6222 73.136 55.3822 73.104 55.0622 73.04C54.7422 72.976 54.4462 72.864 54.1742 72.704C53.9182 72.544 53.7902 72.328 53.7902 72.056V70.568C53.7902 70.216 53.7742 69.96 53.7422 69.8C53.7262 69.624 53.6862 69.512 53.6222 69.464C53.4462 69.368 53.2302 69.44 52.9742 69.68C52.7182 69.92 52.4382 70.264 52.1342 70.712C51.8462 71.144 51.5342 71.632 51.1982 72.176C50.8942 72.672 50.6462 72.976 50.4542 73.088C50.2622 73.184 50.0782 73.176 49.9022 73.064C49.5502 72.952 49.3262 72.8 49.2302 72.608C49.1502 72.4 49.1422 72.168 49.2062 71.912C49.2862 71.64 49.3822 71.288 49.4942 70.856C49.6222 70.424 49.7422 70.008 49.8542 69.608C49.9662 69.192 50.0382 68.888 50.0702 68.696C50.0062 68.568 49.8942 68.528 49.7342 68.576C49.5902 68.608 49.4382 68.68 49.2782 68.792C49.0862 68.92 48.8782 69.056 48.6542 69.2C48.4462 69.344 48.1982 69.648 47.9102 70.112C47.7182 70.416 47.5022 70.752 47.2622 71.12C47.0222 71.472 46.7982 71.792 46.5902 72.08C46.3982 72.368 46.2382 72.568 46.1102 72.68C45.9982 72.968 45.8942 73.152 45.7982 73.232C45.7022 73.296 45.5662 73.288 45.3902 73.208ZM60.2303 74.432C59.3503 74.432 58.6703 74.176 58.1903 73.664C57.7263 73.152 57.4943 72.368 57.4943 71.312C57.4943 70.736 57.5983 70.104 57.8063 69.416C58.0303 68.728 58.3183 68.056 58.6703 67.4C59.0383 66.744 59.4383 66.176 59.8703 65.696C60.3023 65.2 60.7343 64.856 61.1663 64.664C61.3263 64.584 61.4943 64.528 61.6703 64.496C61.8623 64.448 62.0463 64.424 62.2223 64.424C62.4143 64.424 62.6223 64.44 62.8463 64.472C63.0863 64.488 63.3103 64.536 63.5183 64.616C63.8863 64.728 64.2063 64.944 64.4783 65.264C64.7663 65.584 64.9103 66.048 64.9103 66.656C64.9103 66.816 64.8943 66.992 64.8623 67.184C64.8303 67.36 64.7743 67.536 64.6943 67.712C64.4863 68.24 64.1663 68.744 63.7343 69.224C63.3183 69.704 62.8783 70.04 62.4143 70.232C62.2863 70.296 62.1583 70.344 62.0303 70.376C61.9183 70.392 61.7983 70.4 61.6703 70.4C61.3343 70.4 61.0303 70.352 60.7583 70.256C60.5023 70.16 60.2623 70.032 60.0383 69.872L59.8463 69.704L59.7263 69.944C59.6143 70.248 59.5343 70.504 59.4863 70.712C59.4543 70.92 59.4383 71.072 59.4383 71.168C59.4383 71.36 59.4463 71.56 59.4623 71.768C59.4783 71.96 59.5263 72.12 59.6063 72.248C59.6703 72.328 59.7503 72.392 59.8463 72.44C59.9583 72.488 60.0943 72.512 60.2543 72.512C60.3503 72.512 60.4383 72.512 60.5183 72.512C60.6143 72.496 60.6943 72.48 60.7583 72.464C61.0463 72.4 61.2783 72.296 61.4543 72.152C61.6463 71.992 61.8463 71.856 62.0543 71.744L62.1503 71.696L62.1263 71.624C62.3983 71.48 62.5823 71.392 62.6783 71.36C62.7743 71.312 62.8463 71.272 62.8943 71.24C62.9583 71.176 63.0303 71.144 63.1103 71.144C63.3343 71.112 63.5503 71.176 63.7583 71.336C63.9823 71.48 64.0943 71.664 64.0943 71.888C64.0943 71.984 64.0223 72.136 63.8783 72.344C63.7503 72.552 63.5823 72.76 63.3743 72.968C63.1823 73.16 62.9823 73.312 62.7743 73.424C62.7263 73.44 62.6783 73.464 62.6303 73.496C62.5823 73.512 62.5343 73.536 62.4863 73.568H62.5103C62.3663 73.76 62.2223 73.856 62.0783 73.856H61.8863C61.8223 73.968 61.6143 74.088 61.2623 74.216C60.9103 74.36 60.5663 74.432 60.2303 74.432ZM61.4783 68.648C61.6223 68.648 61.7503 68.624 61.8623 68.576C61.9903 68.528 62.1103 68.472 62.2223 68.408C62.6063 68.136 62.8543 67.784 62.9663 67.352C63.0783 66.92 63.0383 66.592 62.8463 66.368C62.8143 66.32 62.7743 66.288 62.7263 66.272C62.6783 66.24 62.6223 66.224 62.5583 66.224C62.3823 66.224 62.1823 66.28 61.9583 66.392C61.7503 66.504 61.5423 66.664 61.3343 66.872C61.1263 67.08 60.9343 67.328 60.7583 67.616L60.4463 68.12C60.4783 68.104 60.5023 68.096 60.5183 68.096C60.5503 68.08 60.5743 68.072 60.5903 68.072C60.7343 68.072 60.8303 68.12 60.8783 68.216C60.9263 68.312 60.9823 68.408 61.0463 68.504C61.1263 68.6 61.2703 68.648 61.4783 68.648ZM71.9944 75.368C71.8024 75.368 71.6424 75.264 71.5144 75.056C71.4184 74.96 71.3144 74.808 71.2024 74.6C71.0904 74.392 71.0504 74.056 71.0824 73.592C71.1304 73.112 71.3064 72.416 71.6104 71.504C71.7704 70.896 71.8984 70.456 71.9944 70.184C72.0904 69.896 72.1384 69.688 72.1384 69.56C72.1384 69.384 72.1544 69.24 72.1864 69.128C72.2344 69 72.2584 68.88 72.2584 68.768C72.3544 68.768 72.4504 68.68 72.5464 68.504C72.6424 68.328 72.7224 68.088 72.7864 67.784C72.8504 67.512 72.9064 67.296 72.9544 67.136C73.0184 66.96 73.0504 66.84 73.0504 66.776C73.1304 66.648 73.2104 66.448 73.2904 66.176C73.3864 65.904 73.5304 65.576 73.7224 65.192C73.8504 64.712 73.9944 64.216 74.1544 63.704C74.3144 63.176 74.4744 62.688 74.6344 62.24C74.8104 61.776 74.9544 61.416 75.0664 61.16C75.2424 60.664 75.3784 60.32 75.4744 60.128C75.5704 59.92 75.5704 59.784 75.4744 59.72C75.3624 59.64 75.3064 59.44 75.3064 59.12C75.3224 58.784 75.4744 58.496 75.7624 58.256C75.9384 58.048 76.1624 57.904 76.4344 57.824C76.7064 57.728 77.0184 57.68 77.3704 57.68C77.7224 57.68 78.0904 57.696 78.4744 57.728C78.7624 57.744 79.0664 57.752 79.3864 57.752C79.7224 57.752 79.9304 57.752 80.0104 57.752C80.1544 57.816 80.3304 57.888 80.5384 57.968C80.7464 58.048 80.9304 58.128 81.0904 58.208C81.2664 58.272 81.3544 58.328 81.3544 58.376C81.3544 58.472 81.3864 58.536 81.4504 58.568C81.5304 58.584 81.6104 58.6 81.6904 58.616C81.8024 58.616 81.9864 58.72 82.2424 58.928C82.4984 59.12 82.7544 59.36 83.0104 59.648C83.2824 59.92 83.4744 60.192 83.5864 60.464C83.7144 60.736 83.8184 60.992 83.8984 61.232C83.9944 61.472 84.0024 61.816 83.9224 62.264C83.9064 62.504 83.8664 62.744 83.8024 62.984C83.7544 63.224 83.6984 63.384 83.6344 63.464C83.5384 63.528 83.4504 63.608 83.3704 63.704C83.2904 63.8 83.2504 63.888 83.2504 63.968C83.2504 64.032 83.1864 64.192 83.0584 64.448C82.9304 64.688 82.7704 64.968 82.5784 65.288C82.3864 65.592 82.1784 65.896 81.9544 66.2C81.7304 66.504 81.5224 66.744 81.3304 66.92C81.1224 67.176 80.8744 67.416 80.5864 67.64C80.3144 67.864 80.0664 68.048 79.8424 68.192C79.4264 68.384 78.9464 68.568 78.4024 68.744C77.8744 68.92 77.3624 69.064 76.8664 69.176C76.3704 69.272 75.9704 69.312 75.6664 69.296C75.2024 69.36 74.8984 69.424 74.7544 69.488C74.6104 69.536 74.5064 69.672 74.4424 69.896C74.3624 70.104 74.2824 70.32 74.2024 70.544C74.1384 70.768 74.1064 70.928 74.1064 71.024C74.0744 71.088 74.0024 71.264 73.8904 71.552C73.7944 71.84 73.6744 72.176 73.5304 72.56C73.4024 72.944 73.2824 73.328 73.1704 73.712C73.0584 74.096 72.9704 74.424 72.9064 74.696C72.8424 74.92 72.7064 75.088 72.4984 75.2C72.3064 75.312 72.1384 75.368 71.9944 75.368ZM75.4024 67.352C75.4664 67.416 75.6744 67.424 76.0264 67.376C76.3784 67.328 76.8024 67.208 77.2984 67.016C77.6184 66.904 77.9384 66.768 78.2584 66.608C78.5944 66.448 78.9144 66.272 79.2184 66.08C79.3784 65.968 79.5464 65.832 79.7224 65.672C79.8984 65.496 80.1464 65.208 80.4664 64.808C80.5144 64.728 80.5944 64.576 80.7064 64.352C80.8344 64.112 80.9464 63.888 81.0424 63.68C81.1864 63.456 81.3304 63.128 81.4744 62.696C81.6184 62.248 81.6504 61.88 81.5704 61.592C81.4904 61.176 81.3304 60.832 81.0904 60.56C80.8504 60.272 80.5464 60.064 80.1784 59.936C79.8264 59.872 79.5304 59.832 79.2904 59.816C79.0664 59.8 78.8184 59.816 78.5464 59.864C78.2904 59.944 78.1064 60.056 77.9944 60.2C77.8984 60.344 77.7544 60.648 77.5624 61.112C77.4504 61.336 77.2904 61.648 77.0824 62.048C76.8744 62.432 76.6984 62.824 76.5544 63.224C76.2664 64.28 76.0104 65.088 75.7864 65.648C75.5784 66.208 75.4424 66.576 75.3784 66.752C75.3944 66.928 75.3864 67.056 75.3544 67.136C75.3224 67.2 75.3384 67.272 75.4024 67.352ZM83.3169 73.352C83.1729 73.24 83.0129 73.096 82.8369 72.92C82.6769 72.744 82.6209 72.496 82.6689 72.176C82.7169 71.728 82.7809 71.336 82.8609 71C82.9409 70.648 83.0369 70.248 83.1489 69.8C83.1809 69.608 83.2609 69.28 83.3889 68.816C83.5329 68.352 83.7009 67.848 83.8929 67.304C84.0849 66.76 84.2849 66.248 84.4929 65.768C84.7009 65.272 84.8849 64.904 85.0449 64.664C85.2209 64.504 85.4769 64.424 85.8129 64.424C86.1649 64.424 86.4049 64.488 86.5329 64.616C86.7089 64.76 86.7649 65.016 86.7009 65.384C86.6369 65.736 86.4129 66.288 86.0289 67.04C85.9489 67.232 85.8449 67.44 85.7169 67.664C85.6049 67.872 85.5249 68.048 85.4769 68.192C85.4289 68.32 85.4449 68.376 85.5249 68.36C85.6209 68.184 85.7969 67.984 86.0529 67.76C86.3089 67.52 86.5809 67.288 86.8689 67.064C87.1569 66.84 87.4289 66.64 87.6849 66.464C87.9409 66.288 88.1169 66.176 88.2129 66.128C88.3409 66.048 88.4849 65.984 88.6449 65.936C88.8209 65.872 88.9409 65.824 89.0049 65.792C89.3729 65.616 89.7729 65.552 90.2049 65.6C90.6529 65.632 90.9249 65.768 91.0209 66.008C91.0369 66.136 91.0849 66.232 91.1649 66.296C91.2609 66.36 91.3089 66.392 91.3089 66.392C91.3729 66.392 91.4049 66.416 91.4049 66.464C91.4209 66.512 91.4289 66.536 91.4289 66.536C91.4289 66.648 91.3169 66.808 91.0929 67.016C90.8849 67.224 90.6529 67.336 90.3969 67.352C90.1889 67.368 90.0049 67.408 89.8449 67.472C89.6849 67.536 89.4929 67.616 89.2689 67.712C88.6609 68.064 88.1089 68.376 87.6129 68.648C87.1329 68.92 86.6369 69.336 86.1249 69.896C86.0129 70.024 85.8929 70.144 85.7649 70.256C85.6369 70.368 85.5089 70.528 85.3809 70.736C85.3009 70.816 85.2209 70.992 85.1409 71.264C85.0609 71.536 84.9889 71.8 84.9249 72.056C84.8769 72.296 84.8529 72.44 84.8529 72.488C84.8529 72.488 84.8289 72.568 84.7809 72.728C84.7329 72.872 84.6529 73.016 84.5409 73.16C84.3489 73.416 84.1569 73.576 83.9649 73.64C83.7889 73.704 83.5729 73.608 83.3169 73.352ZM93.8614 74.216C93.6534 74.232 93.4854 74.208 93.3574 74.144C93.2294 74.096 93.0694 74.016 92.8774 73.904C92.5254 73.632 92.2294 73.296 91.9894 72.896C91.7654 72.496 91.6614 72.16 91.6774 71.888C91.7094 71.744 91.7094 71.616 91.6774 71.504C91.6614 71.392 91.6534 71.336 91.6534 71.336C91.5574 71.256 91.5254 71.208 91.5574 71.192C91.5894 71.16 91.6134 71.112 91.6294 71.048C91.7574 71.016 91.7734 70.928 91.6774 70.784C91.6294 70.656 91.6534 70.368 91.7494 69.92C91.8614 69.456 92.0054 69.024 92.1814 68.624C92.2614 68.448 92.3734 68.216 92.5174 67.928C92.6774 67.64 92.8534 67.352 93.0454 67.064C93.2374 66.76 93.4134 66.52 93.5734 66.344C93.9254 65.944 94.2374 65.616 94.5094 65.36C94.7974 65.104 95.1174 64.912 95.4694 64.784C95.7894 64.656 96.1094 64.6 96.4294 64.616C96.7654 64.632 97.0614 64.744 97.3174 64.952C97.7014 65.064 98.0454 65.24 98.3494 65.48C98.6534 65.704 98.8614 66.024 98.9734 66.44C99.1014 66.904 99.1414 67.456 99.0934 68.096C99.0614 68.72 98.7894 69.528 98.2774 70.52C97.9734 71.144 97.6694 71.648 97.3654 72.032C97.0774 72.416 96.7254 72.784 96.3094 73.136C96.0054 73.392 95.6134 73.616 95.1334 73.808C94.6534 74 94.2294 74.136 93.8614 74.216ZM95.9494 70.592C96.1574 70.304 96.3174 70.024 96.4294 69.752C96.5574 69.48 96.6774 69.104 96.7894 68.624C96.8374 68.448 96.8614 68.232 96.8614 67.976C96.8774 67.72 96.8694 67.488 96.8374 67.28C96.8214 67.056 96.7654 66.936 96.6694 66.92C96.4614 66.84 96.2454 66.84 96.0214 66.92C95.8134 66.984 95.5654 67.176 95.2774 67.496C95.0214 67.784 94.8134 68.056 94.6534 68.312C94.5094 68.552 94.3734 68.848 94.2454 69.2C94.1334 69.536 94.0054 69.976 93.8614 70.52C93.7334 71.048 93.7254 71.472 93.8374 71.792C93.9654 72.112 94.2054 72.2 94.5574 72.056C94.9094 71.912 95.3734 71.424 95.9494 70.592ZM107.093 73.976C106.853 73.992 106.629 74 106.421 74C106.229 74 106.077 73.968 105.965 73.904C105.677 73.664 105.485 73.472 105.389 73.328C105.309 73.184 105.269 73.024 105.269 72.848C105.285 72.624 105.293 72.4 105.293 72.176C105.293 71.936 105.293 71.752 105.293 71.624C105.229 71.56 105.101 71.632 104.909 71.84C104.717 72.048 104.493 72.248 104.237 72.44C103.741 73 103.301 73.408 102.917 73.664C102.533 73.904 102.181 74.04 101.861 74.072C101.541 74.12 101.221 74.128 100.901 74.096C100.613 74.064 100.357 73.92 100.133 73.664C99.9247 73.408 99.7647 73.096 99.6527 72.728C99.5567 72.36 99.5247 72 99.5567 71.648C99.6367 70.992 99.7807 70.4 99.9887 69.872C100.197 69.328 100.509 68.76 100.925 68.168C101.117 67.912 101.373 67.632 101.693 67.328C102.029 67.024 102.389 66.744 102.773 66.488C103.157 66.216 103.501 66.024 103.805 65.912C104.269 65.704 104.653 65.608 104.957 65.624C105.277 65.64 105.589 65.688 105.893 65.768C106.117 65.88 106.293 65.936 106.421 65.936C106.565 65.936 106.669 65.856 106.733 65.696C106.829 65.568 106.901 65.408 106.949 65.216C106.997 65.024 107.077 64.84 107.189 64.664L107.717 63.104C107.893 62.672 108.101 62.176 108.341 61.616C108.581 61.056 108.853 60.432 109.157 59.744C109.525 59.12 109.837 58.792 110.093 58.76C110.365 58.728 110.645 58.872 110.933 59.192C111.125 59.384 111.229 59.624 111.245 59.912C111.277 60.184 111.205 60.504 111.029 60.872C110.917 61.048 110.797 61.272 110.669 61.544C110.541 61.8 110.389 62.104 110.213 62.456C110.037 62.872 109.853 63.288 109.661 63.704C109.485 64.12 109.301 64.576 109.109 65.072C109.045 65.328 108.957 65.624 108.845 65.96C108.749 66.296 108.669 66.6 108.605 66.872C108.557 67.128 108.501 67.368 108.437 67.592C108.389 67.8 108.333 67.904 108.269 67.904C108.141 68.016 108.021 68.256 107.909 68.624C107.797 68.976 107.701 69.352 107.621 69.752C107.557 70.152 107.501 70.48 107.453 70.736C107.421 70.928 107.397 71.2 107.381 71.552C107.365 71.888 107.357 72.216 107.357 72.536C107.357 72.84 107.357 73.048 107.357 73.16C107.357 73.464 107.333 73.68 107.285 73.808C107.253 73.92 107.189 73.976 107.093 73.976ZM101.669 72.08C102.037 72.08 102.381 71.928 102.701 71.624C103.037 71.304 103.405 70.968 103.805 70.616C104.045 70.376 104.293 70.112 104.549 69.824C104.805 69.52 105.037 69.224 105.245 68.936C105.469 68.648 105.645 68.4 105.773 68.192C105.901 67.984 105.965 67.848 105.965 67.784C105.965 67.704 105.901 67.632 105.773 67.568C105.661 67.504 105.525 67.456 105.365 67.424C105.205 67.376 105.061 67.368 104.933 67.4C104.549 67.512 104.237 67.68 103.997 67.904C103.773 68.128 103.445 68.48 103.013 68.96C102.581 69.488 102.237 69.992 101.981 70.472C101.725 70.952 101.565 71.344 101.501 71.648C101.453 71.936 101.509 72.08 101.669 72.08ZM115.525 73.952C115.365 73.792 115.237 73.576 115.141 73.304C115.045 73.016 114.949 72.688 114.853 72.32C114.821 72.192 114.805 72.048 114.805 71.888C114.821 71.728 114.821 71.6 114.805 71.504C114.757 71.616 114.677 71.76 114.565 71.936C114.469 72.112 114.373 72.24 114.277 72.32C114.213 72.384 114.069 72.512 113.845 72.704C113.621 72.88 113.397 73.024 113.173 73.136C112.645 73.472 112.173 73.632 111.757 73.616C111.357 73.584 111.005 73.376 110.701 72.992C110.445 72.784 110.237 72.52 110.077 72.2C109.917 71.88 109.885 71.496 109.981 71.048C110.013 70.488 110.093 69.944 110.221 69.416C110.349 68.872 110.613 68.152 111.013 67.256C111.349 66.6 111.605 66.088 111.781 65.72C111.957 65.352 112.069 65.136 112.117 65.072C112.357 64.992 112.653 65 113.005 65.096C113.357 65.176 113.549 65.328 113.581 65.552C113.677 65.712 113.677 66.016 113.581 66.464C113.485 66.896 113.293 67.392 113.005 67.952C112.781 68.496 112.565 69.024 112.357 69.536C112.165 70.048 112.045 70.48 111.997 70.832C111.965 71.184 112.061 71.4 112.285 71.48C112.429 71.56 112.637 71.552 112.909 71.456C113.197 71.36 113.533 71.072 113.917 70.592C114.301 70.112 114.709 69.352 115.141 68.312C115.269 67.992 115.365 67.712 115.429 67.472C115.493 67.216 115.533 66.936 115.549 66.632C115.517 66.44 115.565 66.24 115.693 66.032C115.837 65.824 116.005 65.664 116.197 65.552C116.261 65.472 116.349 65.4 116.461 65.336C116.573 65.256 116.645 65.256 116.677 65.336L117.061 65.312C117.125 65.296 117.197 65.36 117.277 65.504C117.357 65.648 117.437 65.752 117.517 65.816C117.693 65.96 117.773 66.272 117.757 66.752C117.741 67.232 117.549 67.904 117.181 68.768C116.877 69.424 116.669 69.92 116.557 70.256C116.461 70.592 116.405 70.92 116.389 71.24C116.389 71.528 116.413 71.776 116.461 71.984C116.509 72.176 116.653 72.376 116.893 72.584C117.069 72.696 117.165 72.888 117.181 73.16C117.213 73.416 117.221 73.64 117.205 73.832C117.173 73.976 117.045 74.072 116.821 74.12C116.613 74.184 116.381 74.2 116.125 74.168C115.885 74.136 115.685 74.064 115.525 73.952ZM122.296 73.784C122.088 73.88 121.848 73.92 121.576 73.904C121.304 73.888 120.936 73.8 120.472 73.64C120.44 73.64 120.328 73.568 120.136 73.424C119.944 73.28 119.752 73.112 119.56 72.92C119.368 72.728 119.24 72.568 119.176 72.44C118.92 72.072 118.84 71.528 118.936 70.808C119.048 70.088 119.304 69.224 119.704 68.216C119.816 67.976 119.984 67.672 120.208 67.304C120.448 66.936 120.68 66.6 120.904 66.296C121.144 65.976 121.312 65.792 121.408 65.744C121.408 65.744 121.496 65.712 121.672 65.648C121.848 65.584 122.072 65.48 122.344 65.336C122.424 65.304 122.56 65.264 122.752 65.216C122.96 65.168 123.168 65.128 123.376 65.096C123.6 65.048 123.752 65.032 123.832 65.048C124.152 65.064 124.48 65.184 124.816 65.408C125.168 65.616 125.456 65.864 125.68 66.152C125.904 66.424 125.976 66.664 125.896 66.872C125.896 66.904 125.848 67.008 125.752 67.184C125.672 67.344 125.584 67.512 125.488 67.688C125.392 67.848 125.312 67.968 125.248 68.048C125.168 68.144 125.024 68.184 124.816 68.168C124.624 68.152 124.448 68.088 124.288 67.976C124.128 67.864 124.04 67.712 124.024 67.52C123.992 67.392 123.872 67.272 123.664 67.16C123.472 67.048 123.376 66.992 123.376 66.992C123.248 66.992 123.08 67.12 122.872 67.376C122.664 67.632 122.448 67.92 122.224 68.24C121.936 68.528 121.728 68.84 121.6 69.176C121.488 69.496 121.408 69.8 121.36 70.088C121.328 70.36 121.288 70.568 121.24 70.712C121.176 70.872 121.176 71.072 121.24 71.312C121.304 71.552 121.384 71.688 121.48 71.72C121.624 71.736 121.816 71.728 122.056 71.696C122.312 71.648 122.576 71.592 122.848 71.528C123.136 71.448 123.424 71.368 123.712 71.288C124 71.192 124.256 71.096 124.48 71C124.784 70.808 125.048 70.736 125.272 70.784C125.496 70.816 125.664 70.848 125.776 70.88C125.952 70.944 126.04 71.08 126.04 71.288C126.04 71.496 125.968 71.72 125.824 71.96C125.68 72.184 125.472 72.368 125.2 72.512C124.944 72.64 124.712 72.784 124.504 72.944C124.312 73.088 124.216 73.2 124.216 73.28C124.152 73.28 124.08 73.304 124 73.352C123.936 73.384 123.88 73.392 123.832 73.376C123.8 73.376 123.672 73.4 123.448 73.448C123.224 73.496 122.992 73.552 122.752 73.616C122.528 73.68 122.376 73.736 122.296 73.784ZM129.612 74.024C129.436 73.992 129.244 73.888 129.036 73.712C128.828 73.52 128.636 73.312 128.46 73.088C128.3 72.848 128.196 72.648 128.148 72.488C128.148 72.456 128.124 72.416 128.076 72.368C128.044 72.32 128.028 72.296 128.028 72.296C127.964 72.248 127.924 72.04 127.908 71.672C127.908 71.288 127.932 70.864 127.98 70.4C128.028 69.936 128.084 69.568 128.148 69.296C128.228 69.04 128.348 68.696 128.508 68.264C128.668 67.816 128.804 67.416 128.916 67.064L129.564 65.672L128.604 65.408C128.492 65.376 128.396 65.312 128.316 65.216C128.252 65.12 128.22 65.04 128.22 64.976C128.22 64.848 128.292 64.664 128.436 64.424C128.58 64.184 128.684 64.064 128.748 64.064C128.828 64.08 128.972 64.088 129.18 64.088C129.404 64.088 129.62 64.08 129.828 64.064C130.036 64.048 130.164 64.032 130.212 64.016C130.276 63.984 130.34 63.944 130.404 63.896C130.468 63.832 130.516 63.744 130.548 63.632C130.628 63.456 130.7 63.32 130.764 63.224C130.828 63.128 130.916 62.984 131.028 62.792C131.14 62.584 131.228 62.408 131.292 62.264C131.372 62.12 131.492 61.92 131.652 61.664C131.732 61.552 131.82 61.416 131.916 61.256C132.012 61.096 132.132 60.96 132.276 60.848C132.42 60.72 132.652 60.632 132.972 60.584C133.308 60.52 133.596 60.592 133.836 60.8C133.964 60.96 134.036 61.112 134.052 61.256C134.068 61.4 134.004 61.584 133.86 61.808C133.732 62.08 133.58 62.328 133.404 62.552C133.244 62.76 133.092 63 132.948 63.272C132.692 63.624 132.644 63.824 132.804 63.872C132.964 63.92 133.412 63.888 134.148 63.776C134.612 63.696 134.948 63.744 135.156 63.92C135.364 64.096 135.484 64.32 135.516 64.592C135.564 64.976 135.524 65.208 135.396 65.288C135.268 65.368 134.9 65.408 134.292 65.408C133.908 65.472 133.58 65.512 133.308 65.528C133.036 65.528 132.836 65.528 132.708 65.528C132.5 65.544 132.364 65.552 132.3 65.552C132.236 65.552 132.14 65.568 132.012 65.6C131.884 65.632 131.788 65.688 131.724 65.768C131.676 65.832 131.62 65.928 131.556 66.056C131.492 66.12 131.396 66.288 131.268 66.56C131.14 66.832 130.98 67.128 130.788 67.448C130.564 68.12 130.372 68.768 130.212 69.392C130.068 70 129.94 70.608 129.828 71.216C129.78 71.52 129.788 71.744 129.852 71.888C129.932 72.016 130.14 72.096 130.476 72.128C130.652 72.144 130.908 72.144 131.244 72.128C131.58 72.096 131.86 72.048 132.084 71.984C132.26 71.904 132.444 71.824 132.636 71.744C132.828 71.648 133.004 71.552 133.164 71.456C133.308 71.376 133.452 71.296 133.596 71.216C133.74 71.12 133.812 71.072 133.812 71.072C133.892 70.944 134.004 70.968 134.148 71.144C134.308 71.304 134.42 71.48 134.484 71.672C134.484 71.864 134.444 72.096 134.364 72.368C134.284 72.624 133.988 72.896 133.476 73.184C132.756 73.632 132.036 73.904 131.316 74C130.596 74.096 130.028 74.104 129.612 74.024ZM12.48 97.776C12.384 97.84 12.184 97.92 11.88 98.016C11.592 98.096 11.096 98.176 10.392 98.256C10.184 98.272 9.888 98.288 9.504 98.304C9.12 98.32 8.704 98.336 8.256 98.352C7.824 98.368 7.424 98.376 7.056 98.376C6.704 98.36 6.456 98.336 6.312 98.304C6.312 98.304 6.272 98.344 6.192 98.424C6.128 98.504 6.096 98.608 6.096 98.736C5.984 98.928 5.848 99.216 5.688 99.6C5.528 99.968 5.352 100.376 5.16 100.824C4.984 101.272 4.816 101.72 4.656 102.168C4.496 102.6 4.36 102.984 4.248 103.32C4.152 103.64 4.104 103.864 4.104 103.992C3.96 104.376 3.872 104.704 3.84 104.976C3.808 105.248 3.752 105.408 3.672 105.456C3.624 105.696 3.472 105.816 3.216 105.816C2.976 105.816 2.792 105.744 2.664 105.6C2.312 105.424 2.072 105.2 1.944 104.928C1.816 104.64 1.808 104.32 1.92 103.968C1.968 103.76 2.048 103.456 2.16 103.056C2.288 102.64 2.424 102.184 2.568 101.688C2.728 101.192 2.888 100.712 3.048 100.248C3.224 99.768 3.392 99.376 3.552 99.072C3.728 98.768 3.84 98.496 3.888 98.256C3.936 98 4 97.768 4.08 97.56C4.064 97.384 4.064 97.272 4.08 97.224C4.096 97.16 4.16 97.056 4.272 96.912C4.352 96.848 4.448 96.736 4.56 96.576C4.688 96.4 4.832 96.136 4.992 95.784C5.04 95.624 5.112 95.408 5.208 95.136C5.32 94.848 5.424 94.56 5.52 94.272C5.616 93.968 5.704 93.712 5.784 93.504C5.864 93.296 5.904 93.184 5.904 93.168C5.936 93.104 5.984 92.984 6.048 92.808C6.112 92.616 6.16 92.464 6.192 92.352C6.256 92.128 6.304 91.944 6.336 91.8C6.384 91.656 6.376 91.584 6.312 91.584C6.184 91.616 5.928 91.64 5.544 91.656C5.352 91.688 5.208 91.712 5.112 91.728C5.032 91.728 4.96 91.736 4.896 91.752C4.736 91.768 4.592 91.752 4.464 91.704C4.336 91.656 4.272 91.56 4.272 91.416C4.304 91.16 4.392 90.896 4.536 90.624C4.696 90.352 4.896 90.208 5.136 90.192C5.248 90.16 5.368 90.136 5.496 90.12C5.64 90.088 5.832 90.04 6.072 89.976C6.376 89.912 6.64 89.896 6.864 89.928C7.104 89.944 7.272 89.968 7.368 90C7.448 89.952 7.512 89.904 7.56 89.856C7.624 89.792 7.664 89.728 7.68 89.664C7.76 89.376 7.904 89.16 8.112 89.016C8.32 88.856 8.536 88.776 8.76 88.776C9 88.76 9.192 88.824 9.336 88.968C9.48 89.096 9.52 89.312 9.456 89.616C9.472 89.664 9.488 89.704 9.504 89.736C9.536 89.768 9.656 89.768 9.864 89.736C10.088 89.688 10.472 89.608 11.016 89.496C11.304 89.464 11.664 89.432 12.096 89.4C12.544 89.368 12.896 89.392 13.152 89.472C13.424 89.424 13.664 89.408 13.872 89.424C14.096 89.424 14.248 89.392 14.328 89.328C14.664 89.392 14.904 89.44 15.048 89.472C15.208 89.488 15.336 89.536 15.432 89.616C15.496 89.68 15.52 89.744 15.504 89.808C15.488 89.856 15.48 89.88 15.48 89.88C15.416 89.848 15.408 89.848 15.456 89.88C15.504 89.896 15.568 89.936 15.648 90C15.76 90.048 15.816 90.152 15.816 90.312C15.832 90.456 15.824 90.608 15.792 90.768C15.776 90.912 15.76 91.008 15.744 91.056C15.728 91.2 15.648 91.288 15.504 91.32C15.36 91.336 15 91.336 14.424 91.32C13.736 91.224 13.096 91.192 12.504 91.224C11.928 91.24 11.2 91.312 10.32 91.44C9.968 91.456 9.664 91.504 9.408 91.584C9.168 91.648 9.048 91.68 9.048 91.68C8.984 91.68 8.872 91.792 8.712 92.016C8.552 92.224 8.4 92.536 8.256 92.952C8.192 93.064 8.08 93.296 7.92 93.648C7.776 94 7.624 94.384 7.464 94.8C7.304 95.2 7.16 95.56 7.032 95.88C6.904 96.184 6.824 96.352 6.792 96.384C7.016 96.448 7.36 96.48 7.824 96.48C8.304 96.48 8.832 96.464 9.408 96.432C9.984 96.384 10.528 96.336 11.04 96.288C11.28 96.24 11.528 96.2 11.784 96.168C12.04 96.136 12.216 96.128 12.312 96.144C12.504 96.16 12.648 96.288 12.744 96.528C12.84 96.752 12.872 96.992 12.84 97.248C12.808 97.488 12.688 97.664 12.48 97.776ZM17.8601 104.52C17.3801 104.792 16.8681 104.952 16.3241 105C15.7961 105.032 15.3001 104.96 14.8361 104.784C14.3721 104.592 13.9961 104.312 13.7081 103.944C13.5481 103.736 13.3961 103.408 13.2521 102.96C13.1081 102.496 13.0841 101.872 13.1801 101.088C13.2761 100.352 13.5001 99.608 13.8521 98.856C14.2201 98.104 14.6681 97.44 15.1961 96.864C15.7241 96.288 16.3001 95.896 16.9241 95.688C17.1481 95.608 17.3721 95.552 17.5961 95.52C17.8361 95.472 18.1481 95.464 18.5321 95.496C18.9001 95.544 19.2281 95.64 19.5161 95.784C19.8041 95.912 20.0121 96.056 20.1401 96.216C20.3961 96.472 20.5641 96.72 20.6441 96.96C20.7241 97.2 20.7561 97.432 20.7401 97.656C20.6601 98.168 20.4281 98.72 20.0441 99.312C19.6761 99.904 19.1561 100.344 18.4841 100.632C18.2121 100.744 17.8921 100.816 17.5241 100.848C17.1561 100.88 16.6521 100.832 16.0121 100.704C15.6281 100.624 15.3721 100.664 15.2441 100.824C15.1321 100.984 15.0841 101.296 15.1001 101.76C15.1321 102.048 15.1961 102.304 15.2921 102.528C15.4041 102.736 15.6041 102.88 15.8921 102.96C16.2601 103.024 16.5241 103.032 16.6841 102.984C16.8441 102.92 17.0441 102.832 17.2841 102.72C17.4121 102.64 17.5321 102.552 17.6441 102.456C17.7721 102.36 17.8921 102.264 18.0041 102.168C18.1321 102.072 18.2361 102 18.3161 101.952C18.3961 101.888 18.4761 101.848 18.5561 101.832C18.6361 101.816 18.7161 101.808 18.7961 101.808C18.9721 101.824 19.1401 101.92 19.3001 102.096C19.4601 102.272 19.5641 102.44 19.6121 102.6C19.6121 102.728 19.5321 102.912 19.3721 103.152C19.2121 103.376 18.9961 103.616 18.7241 103.872C18.4681 104.112 18.1801 104.328 17.8601 104.52ZM17.5481 99.168C17.6601 99.12 17.8201 99.008 18.0281 98.832C18.2521 98.656 18.4521 98.472 18.6281 98.28C18.8041 98.072 18.8921 97.912 18.8921 97.8C18.8921 97.624 18.7721 97.472 18.5321 97.344C18.3081 97.216 18.0121 97.192 17.6441 97.272C17.5161 97.304 17.3641 97.392 17.1881 97.536C17.0121 97.68 16.8361 97.848 16.6601 98.04C16.4841 98.216 16.3321 98.392 16.2041 98.568C16.0761 98.728 15.9881 98.856 15.9401 98.952C16.0041 99.032 16.1321 99.096 16.3241 99.144C16.5161 99.192 16.7241 99.216 16.9481 99.216C17.1881 99.216 17.3881 99.2 17.5481 99.168ZM23.3798 104.664C23.2518 104.696 23.0838 104.712 22.8758 104.712C22.6678 104.696 22.4838 104.672 22.3238 104.64C22.1798 104.592 22.1078 104.544 22.1078 104.496C22.1078 104.416 22.0678 104.376 21.9878 104.376C21.9878 104.376 21.8998 104.312 21.7238 104.184C21.5478 104.04 21.3878 103.936 21.2438 103.872C21.0998 103.648 21.0038 103.392 20.9558 103.104C20.9238 102.8 21.0198 102.272 21.2438 101.52C21.2598 101.008 21.4038 100.472 21.6758 99.912C21.9478 99.336 22.2918 98.776 22.7078 98.232C23.1238 97.688 23.5558 97.208 24.0038 96.792C24.4518 96.36 24.8518 96.04 25.2038 95.832C25.4278 95.608 25.7238 95.488 26.0918 95.472C26.4758 95.456 26.8118 95.528 27.0998 95.688C27.2598 95.768 27.4358 95.928 27.6278 96.168C27.8198 96.408 28.0038 96.664 28.1798 96.936C28.3558 97.192 28.4918 97.424 28.5878 97.632C28.6358 97.808 28.6758 97.968 28.7078 98.112C28.7558 98.24 28.7878 98.4 28.8038 98.592C28.8198 98.784 28.8038 99.072 28.7558 99.456C28.6758 99.744 28.6038 100.04 28.5398 100.344C28.4918 100.632 28.4678 100.928 28.4678 101.232C28.4358 101.536 28.4678 101.752 28.5638 101.88C28.6758 102.008 28.8358 102.016 29.0438 101.904C29.2358 101.808 29.4358 101.8 29.6438 101.88C29.8518 101.944 29.9958 102.072 30.0758 102.264C30.1718 102.44 30.1478 102.672 30.0038 102.96C29.9078 103.168 29.7558 103.368 29.5478 103.56C29.3398 103.752 29.1078 103.912 28.8518 104.04C28.5958 104.152 28.3478 104.208 28.1078 104.208C27.9318 104.208 27.7558 104.144 27.5798 104.016C27.4038 103.872 27.2438 103.68 27.0998 103.44C26.9558 103.2 26.8358 102.936 26.7398 102.648L26.5958 102.096L25.7318 102.888C25.5238 103.112 25.3158 103.32 25.1078 103.512C24.9158 103.688 24.7958 103.816 24.7478 103.896C24.6678 104.04 24.5078 104.168 24.2678 104.28C24.0438 104.392 23.7478 104.52 23.3798 104.664ZM24.0278 102.36C24.2998 102.2 24.5318 102.008 24.7238 101.784C24.9318 101.56 25.1318 101.312 25.3238 101.04C25.5158 100.752 25.7238 100.448 25.9478 100.128C26.2198 99.76 26.4118 99.464 26.5238 99.24C26.6518 99.016 26.7478 98.776 26.8118 98.52C26.7478 98.344 26.6598 98.16 26.5478 97.968C26.4358 97.76 26.3238 97.648 26.2118 97.632C25.9878 97.632 25.7158 97.768 25.3958 98.04C25.0918 98.312 24.7558 98.704 24.3878 99.216C24.3238 99.296 24.2438 99.424 24.1478 99.6C24.0518 99.776 23.9558 99.944 23.8598 100.104C23.7798 100.248 23.7238 100.344 23.6918 100.392C23.6438 100.456 23.5718 100.608 23.4758 100.848C23.3958 101.072 23.3238 101.304 23.2598 101.544C23.1958 101.768 23.1638 101.928 23.1638 102.024C23.1638 102.12 23.1718 102.224 23.1878 102.336C23.2198 102.448 23.2998 102.52 23.4278 102.552C23.5558 102.584 23.7558 102.52 24.0278 102.36ZM32.7915 105.024C32.6155 104.992 32.4235 104.888 32.2155 104.712C32.0075 104.52 31.8155 104.312 31.6395 104.088C31.4795 103.848 31.3755 103.648 31.3275 103.488C31.3275 103.456 31.3035 103.416 31.2555 103.368C31.2235 103.32 31.2075 103.296 31.2075 103.296C31.1435 103.248 31.1035 103.04 31.0875 102.672C31.0875 102.288 31.1115 101.864 31.1595 101.4C31.2075 100.936 31.2635 100.568 31.3275 100.296C31.4075 100.04 31.5275 99.696 31.6875 99.264C31.8475 98.816 31.9835 98.416 32.0955 98.064L32.7435 96.672L31.7835 96.408C31.6715 96.376 31.5755 96.312 31.4955 96.216C31.4315 96.12 31.3995 96.04 31.3995 95.976C31.3995 95.848 31.4715 95.664 31.6155 95.424C31.7595 95.184 31.8635 95.064 31.9275 95.064C32.0075 95.08 32.1515 95.088 32.3595 95.088C32.5835 95.088 32.7995 95.08 33.0075 95.064C33.2155 95.048 33.3435 95.032 33.3915 95.016C33.4555 94.984 33.5195 94.944 33.5835 94.896C33.6475 94.832 33.6955 94.744 33.7275 94.632C33.8075 94.456 33.8795 94.32 33.9435 94.224C34.0075 94.128 34.0955 93.984 34.2075 93.792C34.3195 93.584 34.4075 93.408 34.4715 93.264C34.5515 93.12 34.6715 92.92 34.8315 92.664C34.9115 92.552 34.9995 92.416 35.0955 92.256C35.1915 92.096 35.3115 91.96 35.4555 91.848C35.5995 91.72 35.8315 91.632 36.1515 91.584C36.4875 91.52 36.7755 91.592 37.0155 91.8C37.1435 91.96 37.2155 92.112 37.2315 92.256C37.2475 92.4 37.1835 92.584 37.0395 92.808C36.9115 93.08 36.7595 93.328 36.5835 93.552C36.4235 93.76 36.2715 94 36.1275 94.272C35.8715 94.624 35.8235 94.824 35.9835 94.872C36.1435 94.92 36.5915 94.888 37.3275 94.776C37.7915 94.696 38.1275 94.744 38.3355 94.92C38.5435 95.096 38.6635 95.32 38.6955 95.592C38.7435 95.976 38.7035 96.208 38.5755 96.288C38.4475 96.368 38.0795 96.408 37.4715 96.408C37.0875 96.472 36.7595 96.512 36.4875 96.528C36.2155 96.528 36.0155 96.528 35.8875 96.528C35.6795 96.544 35.5435 96.552 35.4795 96.552C35.4155 96.552 35.3195 96.568 35.1915 96.6C35.0635 96.632 34.9675 96.688 34.9035 96.768C34.8555 96.832 34.7995 96.928 34.7355 97.056C34.6715 97.12 34.5755 97.288 34.4475 97.56C34.3195 97.832 34.1595 98.128 33.9675 98.448C33.7435 99.12 33.5515 99.768 33.3915 100.392C33.2475 101 33.1195 101.608 33.0075 102.216C32.9595 102.52 32.9675 102.744 33.0315 102.888C33.1115 103.016 33.3195 103.096 33.6555 103.128C33.8315 103.144 34.0875 103.144 34.4235 103.128C34.7595 103.096 35.0395 103.048 35.2635 102.984C35.4395 102.904 35.6235 102.824 35.8155 102.744C36.0075 102.648 36.1835 102.552 36.3435 102.456C36.4875 102.376 36.6315 102.296 36.7755 102.216C36.9195 102.12 36.9915 102.072 36.9915 102.072C37.0715 101.944 37.1835 101.968 37.3275 102.144C37.4875 102.304 37.5995 102.48 37.6635 102.672C37.6635 102.864 37.6235 103.096 37.5435 103.368C37.4635 103.624 37.1675 103.896 36.6555 104.184C35.9355 104.632 35.2155 104.904 34.4955 105C33.7755 105.096 33.2075 105.104 32.7915 105.024ZM40.7128 104.16C40.4088 103.888 40.1448 103.608 39.9208 103.32C39.6968 103.016 39.5448 102.552 39.4648 101.928C39.4328 101.64 39.4648 101.24 39.5608 100.728C39.6568 100.216 39.8008 99.68 39.9928 99.12C40.1848 98.544 40.3928 98.016 40.6168 97.536C40.8408 97.056 41.0648 96.704 41.2888 96.48C41.4808 96.24 41.7208 96.048 42.0088 95.904C42.3128 95.76 42.6248 95.76 42.9448 95.904C43.1208 96.112 43.2088 96.4 43.2088 96.768C43.2248 97.12 43.1368 97.448 42.9448 97.752C42.6248 98.184 42.3448 98.728 42.1048 99.384C41.8808 100.024 41.7288 100.6 41.6488 101.112C41.5368 101.48 41.4888 101.768 41.5048 101.976C41.5208 102.168 41.6328 102.288 41.8408 102.336C42.1448 102.416 42.4568 102.328 42.7768 102.072C43.1128 101.816 43.4328 101.44 43.7368 100.944C44.0568 100.448 44.3368 99.88 44.5768 99.24C44.6728 99.016 44.7448 98.752 44.7928 98.448C44.8568 98.144 44.9208 97.92 44.9848 97.776C45.0648 97.456 45.2008 97.208 45.3928 97.032C45.6008 96.84 45.8168 96.72 46.0408 96.672C46.2648 96.624 46.4328 96.648 46.5448 96.744C46.6888 96.808 46.8408 96.912 47.0008 97.056C47.1608 97.2 47.2248 97.456 47.1928 97.824C47.1928 98.416 47.0648 98.92 46.8088 99.336C46.5528 99.752 46.3368 100.192 46.1608 100.656C46.0168 100.992 45.7848 101.384 45.4648 101.832C45.1448 102.28 44.8008 102.688 44.4328 103.056C44.0808 103.424 43.7528 103.672 43.4488 103.8C43.0008 104.088 42.5448 104.264 42.0808 104.328C41.6168 104.376 41.1608 104.32 40.7128 104.16ZM49.8356 104.496C49.7876 104.512 49.6836 104.504 49.5236 104.472C49.3796 104.44 49.2276 104.4 49.0676 104.352C48.9236 104.304 48.8356 104.264 48.8036 104.232C48.7396 104.168 48.6516 104.056 48.5396 103.896C48.4276 103.72 48.3636 103.488 48.3476 103.2C48.3476 102.912 48.4836 102.568 48.7556 102.168C48.8356 102.008 48.9316 101.768 49.0436 101.448C49.1556 101.128 49.2676 100.792 49.3796 100.44C49.5076 100.072 49.6196 99.744 49.7156 99.456C49.8276 99.168 49.9076 98.968 49.9556 98.856C49.9876 98.584 49.9716 98.392 49.9076 98.28C49.8596 98.152 49.7236 98.08 49.4996 98.064C49.3396 98.064 49.2116 98.008 49.1156 97.896C49.0356 97.784 48.9956 97.584 48.9956 97.296C49.0276 97.072 49.0836 96.88 49.1636 96.72C49.2596 96.544 49.3876 96.4 49.5476 96.288C49.7076 96.208 49.9076 96.152 50.1476 96.12C50.4036 96.088 50.6516 96.08 50.8916 96.096C51.1316 96.112 51.2996 96.168 51.3956 96.264C51.5076 96.328 51.5956 96.472 51.6596 96.696C51.7396 96.904 51.8036 97.12 51.8516 97.344C51.8996 97.568 51.9316 97.736 51.9476 97.848C52.1076 97.72 52.2836 97.544 52.4756 97.32C52.6836 97.08 52.8916 96.856 53.0996 96.648C53.3556 96.472 53.6596 96.296 54.0116 96.12C54.3636 95.928 54.6196 95.832 54.7796 95.832C54.9556 95.832 55.1716 95.92 55.4276 96.096C55.6836 96.256 55.8436 96.4 55.9076 96.528C56.0676 96.8 56.1796 97.088 56.2436 97.392C56.3236 97.68 56.2756 97.936 56.0996 98.16C55.9396 98.368 55.7156 98.576 55.4276 98.784C55.1396 98.976 54.7796 99.032 54.3476 98.952C54.2516 98.92 54.1476 98.8 54.0356 98.592C53.9396 98.384 53.8836 98.232 53.8676 98.136C53.8676 98.088 53.7956 98.136 53.6516 98.28C53.5236 98.408 53.3636 98.568 53.1716 98.76C52.9956 98.952 52.8276 99.128 52.6676 99.288C52.3956 99.624 52.1076 100.08 51.8036 100.656C51.4996 101.232 51.1396 101.928 50.7236 102.744C50.5316 103.144 50.3716 103.528 50.2436 103.896C50.1156 104.248 49.9796 104.448 49.8356 104.496ZM61.1961 104.52C60.7161 104.792 60.2041 104.952 59.6601 105C59.1321 105.032 58.6361 104.96 58.1721 104.784C57.7081 104.592 57.3321 104.312 57.0441 103.944C56.8841 103.736 56.7321 103.408 56.5881 102.96C56.4441 102.496 56.4201 101.872 56.5161 101.088C56.6121 100.352 56.8361 99.608 57.1881 98.856C57.5561 98.104 58.0041 97.44 58.5321 96.864C59.0601 96.288 59.6361 95.896 60.2601 95.688C60.4841 95.608 60.7081 95.552 60.9321 95.52C61.1721 95.472 61.4841 95.464 61.8681 95.496C62.2361 95.544 62.5641 95.64 62.8521 95.784C63.1401 95.912 63.3481 96.056 63.4761 96.216C63.7321 96.472 63.9001 96.72 63.9801 96.96C64.0601 97.2 64.0921 97.432 64.0761 97.656C63.9961 98.168 63.7641 98.72 63.3801 99.312C63.0121 99.904 62.4921 100.344 61.8201 100.632C61.5481 100.744 61.2281 100.816 60.8601 100.848C60.4921 100.88 59.9881 100.832 59.3481 100.704C58.9641 100.624 58.7081 100.664 58.5801 100.824C58.4681 100.984 58.4201 101.296 58.4361 101.76C58.4681 102.048 58.5321 102.304 58.6281 102.528C58.7401 102.736 58.9401 102.88 59.2281 102.96C59.5961 103.024 59.8601 103.032 60.0201 102.984C60.1801 102.92 60.3801 102.832 60.6201 102.72C60.7481 102.64 60.8681 102.552 60.9801 102.456C61.1081 102.36 61.2281 102.264 61.3401 102.168C61.4681 102.072 61.5721 102 61.6521 101.952C61.7321 101.888 61.8121 101.848 61.8921 101.832C61.9721 101.816 62.0521 101.808 62.1321 101.808C62.3081 101.824 62.4761 101.92 62.6361 102.096C62.7961 102.272 62.9001 102.44 62.9481 102.6C62.9481 102.728 62.8681 102.912 62.7081 103.152C62.5481 103.376 62.3321 103.616 62.0601 103.872C61.8041 104.112 61.5161 104.328 61.1961 104.52ZM60.8841 99.168C60.9961 99.12 61.1561 99.008 61.3641 98.832C61.5881 98.656 61.7881 98.472 61.9641 98.28C62.1401 98.072 62.2281 97.912 62.2281 97.8C62.2281 97.624 62.1081 97.472 61.8681 97.344C61.6441 97.216 61.3481 97.192 60.9801 97.272C60.8521 97.304 60.7001 97.392 60.5241 97.536C60.3481 97.68 60.1721 97.848 59.9961 98.04C59.8201 98.216 59.6681 98.392 59.5401 98.568C59.4121 98.728 59.3241 98.856 59.2761 98.952C59.3401 99.032 59.4681 99.096 59.6601 99.144C59.8521 99.192 60.0601 99.216 60.2841 99.216C60.5241 99.216 60.7241 99.2 60.8841 99.168Z" fill="white"/>
</svg>
