<svg width="144" height="94" viewBox="0 0 144 94" fill="none" xmlns="http://www.w3.org/2000/svg">
<path d="M1.464 23.792C1.176 23.632 1.016 23.456 0.984 23.264C0.968 23.072 1.08 22.736 1.32 22.256C1.56 21.776 1.936 21.032 2.448 20.024C2.832 19.304 3.088 18.744 3.216 18.344C3.36 17.928 3.44 17.632 3.456 17.456C3.472 17.28 3.48 17.168 3.48 17.12C3.448 16.976 3.464 16.864 3.528 16.784C3.592 16.688 3.696 16.608 3.84 16.544C3.92 16.464 4.104 16.32 4.392 16.112C4.68 15.904 4.904 15.656 5.064 15.368C5.208 15.032 5.368 14.688 5.544 14.336C5.736 13.984 5.984 13.544 6.288 13.016C6.592 12.472 7 11.768 7.512 10.904C7.832 10.344 8.208 9.712 8.64 9.008C9.088 8.304 9.528 7.664 9.96 7.088C10.136 6.864 10.32 6.688 10.512 6.56C10.704 6.432 10.872 6.368 11.016 6.368C11.368 6.368 11.72 6.464 12.072 6.656C12.424 6.832 12.736 7.056 13.008 7.328C13.28 7.6 13.464 7.856 13.56 8.096C13.64 8.224 13.672 8.496 13.656 8.912C13.64 9.328 13.608 9.832 13.56 10.424C13.512 11.016 13.456 11.648 13.392 12.32C13.344 12.976 13.272 13.752 13.176 14.648C13.08 15.544 12.984 16.48 12.888 17.456C12.808 18.432 12.744 19.376 12.696 20.288C12.648 21.184 12.648 21.968 12.696 22.64C12.712 22.784 12.712 22.92 12.696 23.048C12.68 23.176 12.672 23.28 12.672 23.36C12.576 23.456 12.368 23.496 12.048 23.48C11.728 23.48 11.416 23.432 11.112 23.336C10.808 23.24 10.64 23.12 10.608 22.976C10.56 22.928 10.528 22.888 10.512 22.856C10.496 22.824 10.496 22.672 10.512 22.4C10.528 22.112 10.552 21.592 10.584 20.84L10.704 17.168L10.392 17.192C10.248 17.192 9.984 17.208 9.6 17.24C9.232 17.272 8.824 17.32 8.376 17.384C7.944 17.432 7.544 17.488 7.176 17.552C6.808 17.6 6.552 17.648 6.408 17.696C6.264 17.696 6.088 17.792 5.88 17.984C5.688 18.176 5.504 18.424 5.328 18.728C5.264 18.952 5.144 19.192 4.968 19.448C4.808 19.688 4.728 19.848 4.728 19.928C4.616 20.008 4.52 20.104 4.44 20.216C4.376 20.328 4.344 20.384 4.344 20.384C4.344 20.48 4.272 20.72 4.128 21.104C3.984 21.472 3.808 21.888 3.6 22.352C3.392 22.8 3.176 23.192 2.952 23.528L2.304 24.44L1.464 23.792ZM7.2 15.536C7.2 15.536 7.288 15.52 7.464 15.488C7.64 15.456 7.848 15.424 8.088 15.392C8.344 15.344 8.568 15.32 8.76 15.32C9.128 15.224 9.432 15.152 9.672 15.104C9.928 15.056 10.136 15.032 10.296 15.032C10.456 15.016 10.584 15.032 10.68 15.08C10.744 15.16 10.8 15.208 10.848 15.224C10.912 15.24 10.944 15.248 10.944 15.248C10.96 15.216 10.992 15.048 11.04 14.744C11.088 14.44 11.144 14.064 11.208 13.616C11.272 13.168 11.336 12.704 11.4 12.224C11.464 11.728 11.52 11.272 11.568 10.856C11.616 10.424 11.648 10.088 11.664 9.848C11.68 9.544 11.672 9.272 11.64 9.032C11.608 8.776 11.592 8.648 11.592 8.648C11.496 8.648 11.312 8.824 11.04 9.176C10.784 9.512 10.48 9.968 10.128 10.544C9.792 11.104 9.456 11.712 9.12 12.368C8.96 12.672 8.808 12.912 8.664 13.088C8.536 13.264 8.432 13.352 8.352 13.352C8.32 13.384 8.232 13.512 8.088 13.736C7.96 13.944 7.816 14.184 7.656 14.456C7.512 14.712 7.384 14.952 7.272 15.176C7.176 15.384 7.152 15.504 7.2 15.536ZM16.3378 22.28C16.0978 22.28 15.8578 22.104 15.6178 21.752C15.3778 21.384 15.1858 20.936 15.0418 20.408C14.9138 19.88 14.8658 19.36 14.8978 18.848C14.8978 18.336 14.9218 17.928 14.9698 17.624C15.0338 17.304 15.0978 16.992 15.1618 16.688C15.2098 16.592 15.2338 16.512 15.2338 16.448C15.2498 16.384 15.2658 16.28 15.2818 16.136C15.3138 15.992 15.3698 15.752 15.4498 15.416C15.5138 15.144 15.5778 14.92 15.6418 14.744C15.7218 14.568 15.7858 14.448 15.8338 14.384C16.0258 14.128 16.2418 13.976 16.4818 13.928C16.7218 13.864 16.9378 13.888 17.1298 14C17.3378 14.112 17.4578 14.28 17.4898 14.504C17.5858 14.584 17.6338 14.768 17.6338 15.056C17.6498 15.328 17.6338 15.616 17.5858 15.92C17.5378 16.208 17.4658 16.416 17.3698 16.544C17.3378 16.624 17.2978 16.832 17.2498 17.168C17.2178 17.504 17.1778 17.856 17.1298 18.224C17.0978 18.592 17.0578 18.888 17.0098 19.112C16.9618 19.4 16.9778 19.584 17.0578 19.664C17.1538 19.728 17.3138 19.656 17.5378 19.448C17.7778 19.224 18.0898 18.832 18.4738 18.272C18.7938 17.792 19.0258 17.416 19.1698 17.144C19.3298 16.872 19.4498 16.624 19.5298 16.4C19.6258 16.176 19.7298 15.912 19.8418 15.608C19.9218 15.352 19.9938 15.144 20.0578 14.984C20.1378 14.824 20.2098 14.712 20.2738 14.648C20.4498 14.392 20.6818 14.288 20.9698 14.336C21.2738 14.368 21.5218 14.448 21.7138 14.576C21.9058 14.768 22.0178 15.032 22.0498 15.368C22.0978 15.688 22.0258 16.04 21.8338 16.424C21.7058 16.68 21.5778 16.984 21.4498 17.336C21.3378 17.688 21.2418 18.04 21.1618 18.392C21.0978 18.744 21.0658 19.048 21.0658 19.304C21.0658 19.624 21.1058 19.816 21.1858 19.88C21.2818 19.928 21.3938 19.952 21.5218 19.952C21.7138 19.952 21.8978 19.888 22.0738 19.76C22.2498 19.616 22.5058 19.368 22.8418 19.016C22.9858 18.872 23.1618 18.656 23.3698 18.368C23.5778 18.08 23.7778 17.776 23.9698 17.456C24.1778 17.136 24.3458 16.856 24.4738 16.616C24.6178 16.36 24.6898 16.2 24.6898 16.136C24.6898 16.04 24.7618 15.904 24.9058 15.728C25.0018 15.6 25.0738 15.504 25.1218 15.44C25.1858 15.36 25.2978 15.28 25.4578 15.2C25.5858 15.136 25.7298 15.128 25.8898 15.176C26.0498 15.208 26.1858 15.288 26.2978 15.416C26.3778 15.48 26.4338 15.64 26.4658 15.896C26.5138 16.136 26.5378 16.352 26.5378 16.544C26.4898 16.72 26.4178 16.968 26.3218 17.288C26.2258 17.592 26.1218 17.888 26.0098 18.176C25.9138 18.448 25.8258 18.632 25.7458 18.728C25.6818 18.792 25.5698 18.912 25.4098 19.088C25.2498 19.248 25.1058 19.424 24.9778 19.616C24.5778 20.096 24.2898 20.408 24.1138 20.552C23.9378 20.696 23.7858 20.832 23.6578 20.96C23.3218 21.296 22.9378 21.568 22.5058 21.776C22.0738 21.968 21.6658 22.08 21.2818 22.112C20.8978 22.128 20.5938 22.056 20.3698 21.896C19.8738 21.64 19.6258 21.208 19.6258 20.6C19.6258 20.472 19.6018 20.36 19.5538 20.264C19.5218 20.152 19.5058 20.096 19.5058 20.096C19.4418 20.096 19.3538 20.112 19.2418 20.144C19.1458 20.176 19.0418 20.288 18.9298 20.48C18.7858 20.752 18.5378 21.032 18.1858 21.32C17.8498 21.592 17.5058 21.824 17.1538 22.016C16.8018 22.192 16.5298 22.28 16.3378 22.28ZM29.3123 23.144C28.8003 23.144 28.3283 23.032 27.8963 22.808C27.4803 22.568 27.1443 22.28 26.8883 21.944C26.6323 21.592 26.5043 21.256 26.5043 20.936C26.5043 20.792 26.5283 20.688 26.5763 20.624C26.6403 20.56 26.7283 20.528 26.8403 20.528C26.9203 20.544 27.0163 20.584 27.1283 20.648C27.2403 20.712 27.3523 20.784 27.4643 20.864C27.7203 21.04 28.0003 21.152 28.3043 21.2C28.6083 21.248 28.8803 21.232 29.1203 21.152C29.3603 21.056 29.4963 20.912 29.5283 20.72C29.5283 20.656 29.4963 20.52 29.4323 20.312C29.3683 20.104 29.2883 19.904 29.1923 19.712C28.7923 19.12 28.5443 18.56 28.4483 18.032C28.3523 17.488 28.2883 16.944 28.2563 16.4C28.2563 16.176 28.3603 15.928 28.5683 15.656C28.7763 15.368 29.0323 15.088 29.3363 14.816C29.6723 14.528 30.0403 14.256 30.4403 14C30.8563 13.744 31.2643 13.528 31.6643 13.352C32.0643 13.176 32.4003 13.072 32.6723 13.04C32.9603 13.04 33.2643 13.056 33.5843 13.088C33.9203 13.104 34.1443 13.16 34.2563 13.256C34.4803 13.432 34.6883 13.72 34.8803 14.12C35.0723 14.52 35.1683 14.856 35.1683 15.128C35.1683 15.256 35.0963 15.416 34.9523 15.608C34.8243 15.784 34.7043 15.984 34.5923 16.208C34.5283 16.32 34.4723 16.44 34.4243 16.568C34.3763 16.696 34.3203 16.824 34.2563 16.952C34.1603 17.176 33.9843 17.272 33.7283 17.24C33.4883 17.192 33.2643 17.064 33.0563 16.856C32.8483 16.632 32.7443 16.376 32.7443 16.088C32.7443 15.848 32.8163 15.64 32.9603 15.464C33.1043 15.288 33.1763 15.168 33.1763 15.104C33.1763 15.072 33.1603 15.048 33.1283 15.032C33.0963 15.016 33.0403 15.008 32.9603 15.008C32.8483 15.008 32.6643 15.056 32.4083 15.152C32.1683 15.232 31.9123 15.352 31.6403 15.512C31.3683 15.672 31.1203 15.864 30.8963 16.088C30.7363 16.264 30.6003 16.456 30.4883 16.664C30.3923 16.856 30.3443 17.064 30.3443 17.288C30.3443 17.512 30.3843 17.776 30.4643 18.08C30.5603 18.368 30.6643 18.608 30.7763 18.8C30.8083 18.832 30.8563 18.92 30.9203 19.064C31.0003 19.192 31.0883 19.352 31.1843 19.544C31.7763 20.76 31.8723 21.664 31.4723 22.256C31.0883 22.848 30.3683 23.144 29.3123 23.144ZM37.0789 22.832C36.8709 22.832 36.7029 22.792 36.5749 22.712C36.4629 22.632 36.3189 22.52 36.1429 22.376C35.8389 22.056 35.5909 21.712 35.3989 21.344C35.2229 20.976 35.1589 20.656 35.2069 20.384C35.2549 20.256 35.2709 20.136 35.2549 20.024C35.2549 19.896 35.2549 19.832 35.2549 19.832C35.1749 19.752 35.1509 19.704 35.1829 19.688C35.2149 19.656 35.2469 19.608 35.2789 19.544C35.3749 19.544 35.4069 19.456 35.3749 19.28C35.3429 19.152 35.3909 18.88 35.5189 18.464C35.6629 18.032 35.8549 17.624 36.0949 17.24C36.1909 17.08 36.3349 16.872 36.5269 16.616C36.7189 16.344 36.9269 16.08 37.1509 15.824C37.3909 15.552 37.6069 15.336 37.7989 15.176C38.1989 14.84 38.5669 14.568 38.9029 14.36C39.2549 14.152 39.6069 14.008 39.9589 13.928C40.3109 13.848 40.6709 13.808 41.0389 13.808C41.4229 13.808 41.7349 13.936 41.9749 14.192C42.3429 14.352 42.5989 14.568 42.7429 14.84C42.9029 15.112 43.0069 15.464 43.0549 15.896C43.1029 16.376 43.0549 16.968 42.9109 17.672C42.7669 18.36 42.3749 19.16 41.7349 20.072C41.3349 20.648 40.9429 21.096 40.5589 21.416C40.1749 21.736 39.7509 22.032 39.2869 22.304C38.9509 22.528 38.5909 22.664 38.2069 22.712C37.8229 22.76 37.4469 22.8 37.0789 22.832ZM39.5269 19.904C39.8789 19.6 40.1269 19.264 40.2709 18.896C40.4309 18.528 40.5989 18.096 40.7749 17.6C40.8389 17.504 40.8789 17.344 40.8949 17.12C40.9269 16.896 40.9349 16.68 40.9189 16.472C40.9029 16.248 40.8469 16.12 40.7509 16.088C40.6069 15.976 40.4629 15.952 40.3189 16.016C40.1749 16.064 39.9909 16.168 39.7669 16.328C39.2869 16.728 38.8389 17.192 38.4229 17.72C38.0229 18.232 37.7429 18.864 37.5829 19.616C37.5349 20.016 37.5749 20.32 37.7029 20.528C37.8469 20.72 38.0709 20.776 38.3749 20.696C38.6949 20.6 39.0789 20.336 39.5269 19.904ZM45.3902 22.208C45.0862 22.08 44.8382 21.888 44.6462 21.632C44.4702 21.36 44.3822 21.032 44.3822 20.648C44.3822 20.488 44.4142 20.216 44.4782 19.832C44.5422 19.448 44.6302 19.016 44.7422 18.536C44.8542 18.056 44.9662 17.608 45.0782 17.192C45.2382 16.904 45.3422 16.616 45.3902 16.328C45.4542 16.04 45.4862 15.864 45.4862 15.8C45.5182 15.608 45.5742 15.352 45.6542 15.032C45.7342 14.712 45.8142 14.424 45.8942 14.168C45.9902 13.896 46.0542 13.744 46.0862 13.712C46.1662 13.632 46.3022 13.584 46.4942 13.568C46.6862 13.552 46.8782 13.576 47.0702 13.64C47.2622 13.688 47.3902 13.792 47.4542 13.952C47.6302 14.144 47.7262 14.432 47.7422 14.816C47.7742 15.2 47.7022 15.648 47.5262 16.16C47.3822 16.48 47.2382 16.856 47.0942 17.288C46.9502 17.72 46.8222 18.12 46.7102 18.488C46.6142 18.84 46.5582 19.08 46.5422 19.208L45.6782 19.184C45.9502 18.928 46.2062 18.664 46.4462 18.392C46.6862 18.104 46.8622 17.88 46.9742 17.72C47.2462 17.352 47.4782 17.048 47.6702 16.808C47.8782 16.552 48.1422 16.248 48.4622 15.896C48.7822 15.528 49.1262 15.272 49.4942 15.128C49.8622 14.968 50.1342 14.888 50.3102 14.888C50.6622 14.952 50.9742 15.136 51.2462 15.44C51.5342 15.728 51.7102 16.16 51.7742 16.736C51.7742 16.96 51.7502 17.224 51.7022 17.528C51.6702 17.832 51.6542 17.984 51.6542 17.984C51.6542 17.984 51.7822 17.824 52.0382 17.504C52.3102 17.184 52.6702 16.824 53.1182 16.424C53.4222 16.2 53.7182 16.072 54.0062 16.04C54.2942 15.992 54.5502 16.088 54.7742 16.328C55.1902 16.552 55.4942 16.944 55.6862 17.504C55.8782 18.064 55.9422 18.696 55.8782 19.4C55.8302 19.816 55.8302 20.152 55.8782 20.408C55.9422 20.648 56.0062 20.864 56.0702 21.056C56.2782 21.344 56.3102 21.6 56.1662 21.824C56.0222 22.032 55.8942 22.136 55.7822 22.136C55.6222 22.136 55.3822 22.104 55.0622 22.04C54.7422 21.976 54.4462 21.864 54.1742 21.704C53.9182 21.544 53.7902 21.328 53.7902 21.056V19.568C53.7902 19.216 53.7742 18.96 53.7422 18.8C53.7262 18.624 53.6862 18.512 53.6222 18.464C53.4462 18.368 53.2302 18.44 52.9742 18.68C52.7182 18.92 52.4382 19.264 52.1342 19.712C51.8462 20.144 51.5342 20.632 51.1982 21.176C50.8942 21.672 50.6462 21.976 50.4542 22.088C50.2622 22.184 50.0782 22.176 49.9022 22.064C49.5502 21.952 49.3262 21.8 49.2302 21.608C49.1502 21.4 49.1422 21.168 49.2062 20.912C49.2862 20.64 49.3822 20.288 49.4942 19.856C49.6222 19.424 49.7422 19.008 49.8542 18.608C49.9662 18.192 50.0382 17.888 50.0702 17.696C50.0062 17.568 49.8942 17.528 49.7342 17.576C49.5902 17.608 49.4382 17.68 49.2782 17.792C49.0862 17.92 48.8782 18.056 48.6542 18.2C48.4462 18.344 48.1982 18.648 47.9102 19.112C47.7182 19.416 47.5022 19.752 47.2622 20.12C47.0222 20.472 46.7982 20.792 46.5902 21.08C46.3982 21.368 46.2382 21.568 46.1102 21.68C45.9982 21.968 45.8942 22.152 45.7982 22.232C45.7022 22.296 45.5662 22.288 45.3902 22.208ZM60.2303 23.432C59.3503 23.432 58.6703 23.176 58.1903 22.664C57.7263 22.152 57.4943 21.368 57.4943 20.312C57.4943 19.736 57.5983 19.104 57.8063 18.416C58.0303 17.728 58.3183 17.056 58.6703 16.4C59.0383 15.744 59.4383 15.176 59.8703 14.696C60.3023 14.2 60.7343 13.856 61.1663 13.664C61.3263 13.584 61.4943 13.528 61.6703 13.496C61.8623 13.448 62.0463 13.424 62.2223 13.424C62.4143 13.424 62.6223 13.44 62.8463 13.472C63.0863 13.488 63.3103 13.536 63.5183 13.616C63.8863 13.728 64.2063 13.944 64.4783 14.264C64.7663 14.584 64.9103 15.048 64.9103 15.656C64.9103 15.816 64.8943 15.992 64.8623 16.184C64.8303 16.36 64.7743 16.536 64.6943 16.712C64.4863 17.24 64.1663 17.744 63.7343 18.224C63.3183 18.704 62.8783 19.04 62.4143 19.232C62.2863 19.296 62.1583 19.344 62.0303 19.376C61.9183 19.392 61.7983 19.4 61.6703 19.4C61.3343 19.4 61.0303 19.352 60.7583 19.256C60.5023 19.16 60.2623 19.032 60.0383 18.872L59.8463 18.704L59.7263 18.944C59.6143 19.248 59.5343 19.504 59.4863 19.712C59.4543 19.92 59.4383 20.072 59.4383 20.168C59.4383 20.36 59.4463 20.56 59.4623 20.768C59.4783 20.96 59.5263 21.12 59.6063 21.248C59.6703 21.328 59.7503 21.392 59.8463 21.44C59.9583 21.488 60.0943 21.512 60.2543 21.512C60.3503 21.512 60.4383 21.512 60.5183 21.512C60.6143 21.496 60.6943 21.48 60.7583 21.464C61.0463 21.4 61.2783 21.296 61.4543 21.152C61.6463 20.992 61.8463 20.856 62.0543 20.744L62.1503 20.696L62.1263 20.624C62.3983 20.48 62.5823 20.392 62.6783 20.36C62.7743 20.312 62.8463 20.272 62.8943 20.24C62.9583 20.176 63.0303 20.144 63.1103 20.144C63.3343 20.112 63.5503 20.176 63.7583 20.336C63.9823 20.48 64.0943 20.664 64.0943 20.888C64.0943 20.984 64.0223 21.136 63.8783 21.344C63.7503 21.552 63.5823 21.76 63.3743 21.968C63.1823 22.16 62.9823 22.312 62.7743 22.424C62.7263 22.44 62.6783 22.464 62.6303 22.496C62.5823 22.512 62.5343 22.536 62.4863 22.568H62.5103C62.3663 22.76 62.2223 22.856 62.0783 22.856H61.8863C61.8223 22.968 61.6143 23.088 61.2623 23.216C60.9103 23.36 60.5663 23.432 60.2303 23.432ZM61.4783 17.648C61.6223 17.648 61.7503 17.624 61.8623 17.576C61.9903 17.528 62.1103 17.472 62.2223 17.408C62.6063 17.136 62.8543 16.784 62.9663 16.352C63.0783 15.92 63.0383 15.592 62.8463 15.368C62.8143 15.32 62.7743 15.288 62.7263 15.272C62.6783 15.24 62.6223 15.224 62.5583 15.224C62.3823 15.224 62.1823 15.28 61.9583 15.392C61.7503 15.504 61.5423 15.664 61.3343 15.872C61.1263 16.08 60.9343 16.328 60.7583 16.616L60.4463 17.12C60.4783 17.104 60.5023 17.096 60.5183 17.096C60.5503 17.08 60.5743 17.072 60.5903 17.072C60.7343 17.072 60.8303 17.12 60.8783 17.216C60.9263 17.312 60.9823 17.408 61.0463 17.504C61.1263 17.6 61.2703 17.648 61.4783 17.648ZM12.48 46.776C12.384 46.84 12.184 46.92 11.88 47.016C11.592 47.096 11.096 47.176 10.392 47.256C10.184 47.272 9.888 47.288 9.504 47.304C9.12 47.32 8.704 47.336 8.256 47.352C7.824 47.368 7.424 47.376 7.056 47.376C6.704 47.36 6.456 47.336 6.312 47.304C6.312 47.304 6.272 47.344 6.192 47.424C6.128 47.504 6.096 47.608 6.096 47.736C5.984 47.928 5.848 48.216 5.688 48.6C5.528 48.968 5.352 49.376 5.16 49.824C4.984 50.272 4.816 50.72 4.656 51.168C4.496 51.6 4.36 51.984 4.248 52.32C4.152 52.64 4.104 52.864 4.104 52.992C3.96 53.376 3.872 53.704 3.84 53.976C3.808 54.248 3.752 54.408 3.672 54.456C3.624 54.696 3.472 54.816 3.216 54.816C2.976 54.816 2.792 54.744 2.664 54.6C2.312 54.424 2.072 54.2 1.944 53.928C1.816 53.64 1.808 53.32 1.92 52.968C1.968 52.76 2.048 52.456 2.16 52.056C2.288 51.64 2.424 51.184 2.568 50.688C2.728 50.192 2.888 49.712 3.048 49.248C3.224 48.768 3.392 48.376 3.552 48.072C3.728 47.768 3.84 47.496 3.888 47.256C3.936 47 4 46.768 4.08 46.56C4.064 46.384 4.064 46.272 4.08 46.224C4.096 46.16 4.16 46.056 4.272 45.912C4.352 45.848 4.448 45.736 4.56 45.576C4.688 45.4 4.832 45.136 4.992 44.784C5.04 44.624 5.112 44.408 5.208 44.136C5.32 43.848 5.424 43.56 5.52 43.272C5.616 42.968 5.704 42.712 5.784 42.504C5.864 42.296 5.904 42.184 5.904 42.168C5.936 42.104 5.984 41.984 6.048 41.808C6.112 41.616 6.16 41.464 6.192 41.352C6.256 41.128 6.304 40.944 6.336 40.8C6.384 40.656 6.376 40.584 6.312 40.584C6.184 40.616 5.928 40.64 5.544 40.656C5.352 40.688 5.208 40.712 5.112 40.728C5.032 40.728 4.96 40.736 4.896 40.752C4.736 40.768 4.592 40.752 4.464 40.704C4.336 40.656 4.272 40.56 4.272 40.416C4.304 40.16 4.392 39.896 4.536 39.624C4.696 39.352 4.896 39.208 5.136 39.192C5.248 39.16 5.368 39.136 5.496 39.12C5.64 39.088 5.832 39.04 6.072 38.976C6.376 38.912 6.64 38.896 6.864 38.928C7.104 38.944 7.272 38.968 7.368 39C7.448 38.952 7.512 38.904 7.56 38.856C7.624 38.792 7.664 38.728 7.68 38.664C7.76 38.376 7.904 38.16 8.112 38.016C8.32 37.856 8.536 37.776 8.76 37.776C9 37.76 9.192 37.824 9.336 37.968C9.48 38.096 9.52 38.312 9.456 38.616C9.472 38.664 9.488 38.704 9.504 38.736C9.536 38.768 9.656 38.768 9.864 38.736C10.088 38.688 10.472 38.608 11.016 38.496C11.304 38.464 11.664 38.432 12.096 38.4C12.544 38.368 12.896 38.392 13.152 38.472C13.424 38.424 13.664 38.408 13.872 38.424C14.096 38.424 14.248 38.392 14.328 38.328C14.664 38.392 14.904 38.44 15.048 38.472C15.208 38.488 15.336 38.536 15.432 38.616C15.496 38.68 15.52 38.744 15.504 38.808C15.488 38.856 15.48 38.88 15.48 38.88C15.416 38.848 15.408 38.848 15.456 38.88C15.504 38.896 15.568 38.936 15.648 39C15.76 39.048 15.816 39.152 15.816 39.312C15.832 39.456 15.824 39.608 15.792 39.768C15.776 39.912 15.76 40.008 15.744 40.056C15.728 40.2 15.648 40.288 15.504 40.32C15.36 40.336 15 40.336 14.424 40.32C13.736 40.224 13.096 40.192 12.504 40.224C11.928 40.24 11.2 40.312 10.32 40.44C9.968 40.456 9.664 40.504 9.408 40.584C9.168 40.648 9.048 40.68 9.048 40.68C8.984 40.68 8.872 40.792 8.712 41.016C8.552 41.224 8.4 41.536 8.256 41.952C8.192 42.064 8.08 42.296 7.92 42.648C7.776 43 7.624 43.384 7.464 43.8C7.304 44.2 7.16 44.56 7.032 44.88C6.904 45.184 6.824 45.352 6.792 45.384C7.016 45.448 7.36 45.48 7.824 45.48C8.304 45.48 8.832 45.464 9.408 45.432C9.984 45.384 10.528 45.336 11.04 45.288C11.28 45.24 11.528 45.2 11.784 45.168C12.04 45.136 12.216 45.128 12.312 45.144C12.504 45.16 12.648 45.288 12.744 45.528C12.84 45.752 12.872 45.992 12.84 46.248C12.808 46.488 12.688 46.664 12.48 46.776ZM17.8601 53.52C17.3801 53.792 16.8681 53.952 16.3241 54C15.7961 54.032 15.3001 53.96 14.8361 53.784C14.3721 53.592 13.9961 53.312 13.7081 52.944C13.5481 52.736 13.3961 52.408 13.2521 51.96C13.1081 51.496 13.0841 50.872 13.1801 50.088C13.2761 49.352 13.5001 48.608 13.8521 47.856C14.2201 47.104 14.6681 46.44 15.1961 45.864C15.7241 45.288 16.3001 44.896 16.9241 44.688C17.1481 44.608 17.3721 44.552 17.5961 44.52C17.8361 44.472 18.1481 44.464 18.5321 44.496C18.9001 44.544 19.2281 44.64 19.5161 44.784C19.8041 44.912 20.0121 45.056 20.1401 45.216C20.3961 45.472 20.5641 45.72 20.6441 45.96C20.7241 46.2 20.7561 46.432 20.7401 46.656C20.6601 47.168 20.4281 47.72 20.0441 48.312C19.6761 48.904 19.1561 49.344 18.4841 49.632C18.2121 49.744 17.8921 49.816 17.5241 49.848C17.1561 49.88 16.6521 49.832 16.0121 49.704C15.6281 49.624 15.3721 49.664 15.2441 49.824C15.1321 49.984 15.0841 50.296 15.1001 50.76C15.1321 51.048 15.1961 51.304 15.2921 51.528C15.4041 51.736 15.6041 51.88 15.8921 51.96C16.2601 52.024 16.5241 52.032 16.6841 51.984C16.8441 51.92 17.0441 51.832 17.2841 51.72C17.4121 51.64 17.5321 51.552 17.6441 51.456C17.7721 51.36 17.8921 51.264 18.0041 51.168C18.1321 51.072 18.2361 51 18.3161 50.952C18.3961 50.888 18.4761 50.848 18.5561 50.832C18.6361 50.816 18.7161 50.808 18.7961 50.808C18.9721 50.824 19.1401 50.92 19.3001 51.096C19.4601 51.272 19.5641 51.44 19.6121 51.6C19.6121 51.728 19.5321 51.912 19.3721 52.152C19.2121 52.376 18.9961 52.616 18.7241 52.872C18.4681 53.112 18.1801 53.328 17.8601 53.52ZM17.5481 48.168C17.6601 48.12 17.8201 48.008 18.0281 47.832C18.2521 47.656 18.4521 47.472 18.6281 47.28C18.8041 47.072 18.8921 46.912 18.8921 46.8C18.8921 46.624 18.7721 46.472 18.5321 46.344C18.3081 46.216 18.0121 46.192 17.6441 46.272C17.5161 46.304 17.3641 46.392 17.1881 46.536C17.0121 46.68 16.8361 46.848 16.6601 47.04C16.4841 47.216 16.3321 47.392 16.2041 47.568C16.0761 47.728 15.9881 47.856 15.9401 47.952C16.0041 48.032 16.1321 48.096 16.3241 48.144C16.5161 48.192 16.7241 48.216 16.9481 48.216C17.1881 48.216 17.3881 48.2 17.5481 48.168ZM23.3798 53.664C23.2518 53.696 23.0838 53.712 22.8758 53.712C22.6678 53.696 22.4838 53.672 22.3238 53.64C22.1798 53.592 22.1078 53.544 22.1078 53.496C22.1078 53.416 22.0678 53.376 21.9878 53.376C21.9878 53.376 21.8998 53.312 21.7238 53.184C21.5478 53.04 21.3878 52.936 21.2438 52.872C21.0998 52.648 21.0038 52.392 20.9558 52.104C20.9238 51.8 21.0198 51.272 21.2438 50.52C21.2598 50.008 21.4038 49.472 21.6758 48.912C21.9478 48.336 22.2918 47.776 22.7078 47.232C23.1238 46.688 23.5558 46.208 24.0038 45.792C24.4518 45.36 24.8518 45.04 25.2038 44.832C25.4278 44.608 25.7238 44.488 26.0918 44.472C26.4758 44.456 26.8118 44.528 27.0998 44.688C27.2598 44.768 27.4358 44.928 27.6278 45.168C27.8198 45.408 28.0038 45.664 28.1798 45.936C28.3558 46.192 28.4918 46.424 28.5878 46.632C28.6358 46.808 28.6758 46.968 28.7078 47.112C28.7558 47.24 28.7878 47.4 28.8038 47.592C28.8198 47.784 28.8038 48.072 28.7558 48.456C28.6758 48.744 28.6038 49.04 28.5398 49.344C28.4918 49.632 28.4678 49.928 28.4678 50.232C28.4358 50.536 28.4678 50.752 28.5638 50.88C28.6758 51.008 28.8358 51.016 29.0438 50.904C29.2358 50.808 29.4358 50.8 29.6438 50.88C29.8518 50.944 29.9958 51.072 30.0758 51.264C30.1718 51.44 30.1478 51.672 30.0038 51.96C29.9078 52.168 29.7558 52.368 29.5478 52.56C29.3398 52.752 29.1078 52.912 28.8518 53.04C28.5958 53.152 28.3478 53.208 28.1078 53.208C27.9318 53.208 27.7558 53.144 27.5798 53.016C27.4038 52.872 27.2438 52.68 27.0998 52.44C26.9558 52.2 26.8358 51.936 26.7398 51.648L26.5958 51.096L25.7318 51.888C25.5238 52.112 25.3158 52.32 25.1078 52.512C24.9158 52.688 24.7958 52.816 24.7478 52.896C24.6678 53.04 24.5078 53.168 24.2678 53.28C24.0438 53.392 23.7478 53.52 23.3798 53.664ZM24.0278 51.36C24.2998 51.2 24.5318 51.008 24.7238 50.784C24.9318 50.56 25.1318 50.312 25.3238 50.04C25.5158 49.752 25.7238 49.448 25.9478 49.128C26.2198 48.76 26.4118 48.464 26.5238 48.24C26.6518 48.016 26.7478 47.776 26.8118 47.52C26.7478 47.344 26.6598 47.16 26.5478 46.968C26.4358 46.76 26.3238 46.648 26.2118 46.632C25.9878 46.632 25.7158 46.768 25.3958 47.04C25.0918 47.312 24.7558 47.704 24.3878 48.216C24.3238 48.296 24.2438 48.424 24.1478 48.6C24.0518 48.776 23.9558 48.944 23.8598 49.104C23.7798 49.248 23.7238 49.344 23.6918 49.392C23.6438 49.456 23.5718 49.608 23.4758 49.848C23.3958 50.072 23.3238 50.304 23.2598 50.544C23.1958 50.768 23.1638 50.928 23.1638 51.024C23.1638 51.12 23.1718 51.224 23.1878 51.336C23.2198 51.448 23.2998 51.52 23.4278 51.552C23.5558 51.584 23.7558 51.52 24.0278 51.36ZM32.7915 54.024C32.6155 53.992 32.4235 53.888 32.2155 53.712C32.0075 53.52 31.8155 53.312 31.6395 53.088C31.4795 52.848 31.3755 52.648 31.3275 52.488C31.3275 52.456 31.3035 52.416 31.2555 52.368C31.2235 52.32 31.2075 52.296 31.2075 52.296C31.1435 52.248 31.1035 52.04 31.0875 51.672C31.0875 51.288 31.1115 50.864 31.1595 50.4C31.2075 49.936 31.2635 49.568 31.3275 49.296C31.4075 49.04 31.5275 48.696 31.6875 48.264C31.8475 47.816 31.9835 47.416 32.0955 47.064L32.7435 45.672L31.7835 45.408C31.6715 45.376 31.5755 45.312 31.4955 45.216C31.4315 45.12 31.3995 45.04 31.3995 44.976C31.3995 44.848 31.4715 44.664 31.6155 44.424C31.7595 44.184 31.8635 44.064 31.9275 44.064C32.0075 44.08 32.1515 44.088 32.3595 44.088C32.5835 44.088 32.7995 44.08 33.0075 44.064C33.2155 44.048 33.3435 44.032 33.3915 44.016C33.4555 43.984 33.5195 43.944 33.5835 43.896C33.6475 43.832 33.6955 43.744 33.7275 43.632C33.8075 43.456 33.8795 43.32 33.9435 43.224C34.0075 43.128 34.0955 42.984 34.2075 42.792C34.3195 42.584 34.4075 42.408 34.4715 42.264C34.5515 42.12 34.6715 41.92 34.8315 41.664C34.9115 41.552 34.9995 41.416 35.0955 41.256C35.1915 41.096 35.3115 40.96 35.4555 40.848C35.5995 40.72 35.8315 40.632 36.1515 40.584C36.4875 40.52 36.7755 40.592 37.0155 40.8C37.1435 40.96 37.2155 41.112 37.2315 41.256C37.2475 41.4 37.1835 41.584 37.0395 41.808C36.9115 42.08 36.7595 42.328 36.5835 42.552C36.4235 42.76 36.2715 43 36.1275 43.272C35.8715 43.624 35.8235 43.824 35.9835 43.872C36.1435 43.92 36.5915 43.888 37.3275 43.776C37.7915 43.696 38.1275 43.744 38.3355 43.92C38.5435 44.096 38.6635 44.32 38.6955 44.592C38.7435 44.976 38.7035 45.208 38.5755 45.288C38.4475 45.368 38.0795 45.408 37.4715 45.408C37.0875 45.472 36.7595 45.512 36.4875 45.528C36.2155 45.528 36.0155 45.528 35.8875 45.528C35.6795 45.544 35.5435 45.552 35.4795 45.552C35.4155 45.552 35.3195 45.568 35.1915 45.6C35.0635 45.632 34.9675 45.688 34.9035 45.768C34.8555 45.832 34.7995 45.928 34.7355 46.056C34.6715 46.12 34.5755 46.288 34.4475 46.56C34.3195 46.832 34.1595 47.128 33.9675 47.448C33.7435 48.12 33.5515 48.768 33.3915 49.392C33.2475 50 33.1195 50.608 33.0075 51.216C32.9595 51.52 32.9675 51.744 33.0315 51.888C33.1115 52.016 33.3195 52.096 33.6555 52.128C33.8315 52.144 34.0875 52.144 34.4235 52.128C34.7595 52.096 35.0395 52.048 35.2635 51.984C35.4395 51.904 35.6235 51.824 35.8155 51.744C36.0075 51.648 36.1835 51.552 36.3435 51.456C36.4875 51.376 36.6315 51.296 36.7755 51.216C36.9195 51.12 36.9915 51.072 36.9915 51.072C37.0715 50.944 37.1835 50.968 37.3275 51.144C37.4875 51.304 37.5995 51.48 37.6635 51.672C37.6635 51.864 37.6235 52.096 37.5435 52.368C37.4635 52.624 37.1675 52.896 36.6555 53.184C35.9355 53.632 35.2155 53.904 34.4955 54C33.7755 54.096 33.2075 54.104 32.7915 54.024ZM40.7128 53.16C40.4088 52.888 40.1448 52.608 39.9208 52.32C39.6968 52.016 39.5448 51.552 39.4648 50.928C39.4328 50.64 39.4648 50.24 39.5608 49.728C39.6568 49.216 39.8008 48.68 39.9928 48.12C40.1848 47.544 40.3928 47.016 40.6168 46.536C40.8408 46.056 41.0648 45.704 41.2888 45.48C41.4808 45.24 41.7208 45.048 42.0088 44.904C42.3128 44.76 42.6248 44.76 42.9448 44.904C43.1208 45.112 43.2088 45.4 43.2088 45.768C43.2248 46.12 43.1368 46.448 42.9448 46.752C42.6248 47.184 42.3448 47.728 42.1048 48.384C41.8808 49.024 41.7288 49.6 41.6488 50.112C41.5368 50.48 41.4888 50.768 41.5048 50.976C41.5208 51.168 41.6328 51.288 41.8408 51.336C42.1448 51.416 42.4568 51.328 42.7768 51.072C43.1128 50.816 43.4328 50.44 43.7368 49.944C44.0568 49.448 44.3368 48.88 44.5768 48.24C44.6728 48.016 44.7448 47.752 44.7928 47.448C44.8568 47.144 44.9208 46.92 44.9848 46.776C45.0648 46.456 45.2008 46.208 45.3928 46.032C45.6008 45.84 45.8168 45.72 46.0408 45.672C46.2648 45.624 46.4328 45.648 46.5448 45.744C46.6888 45.808 46.8408 45.912 47.0008 46.056C47.1608 46.2 47.2248 46.456 47.1928 46.824C47.1928 47.416 47.0648 47.92 46.8088 48.336C46.5528 48.752 46.3368 49.192 46.1608 49.656C46.0168 49.992 45.7848 50.384 45.4648 50.832C45.1448 51.28 44.8008 51.688 44.4328 52.056C44.0808 52.424 43.7528 52.672 43.4488 52.8C43.0008 53.088 42.5448 53.264 42.0808 53.328C41.6168 53.376 41.1608 53.32 40.7128 53.16ZM49.8356 53.496C49.7876 53.512 49.6836 53.504 49.5236 53.472C49.3796 53.44 49.2276 53.4 49.0676 53.352C48.9236 53.304 48.8356 53.264 48.8036 53.232C48.7396 53.168 48.6516 53.056 48.5396 52.896C48.4276 52.72 48.3636 52.488 48.3476 52.2C48.3476 51.912 48.4836 51.568 48.7556 51.168C48.8356 51.008 48.9316 50.768 49.0436 50.448C49.1556 50.128 49.2676 49.792 49.3796 49.44C49.5076 49.072 49.6196 48.744 49.7156 48.456C49.8276 48.168 49.9076 47.968 49.9556 47.856C49.9876 47.584 49.9716 47.392 49.9076 47.28C49.8596 47.152 49.7236 47.08 49.4996 47.064C49.3396 47.064 49.2116 47.008 49.1156 46.896C49.0356 46.784 48.9956 46.584 48.9956 46.296C49.0276 46.072 49.0836 45.88 49.1636 45.72C49.2596 45.544 49.3876 45.4 49.5476 45.288C49.7076 45.208 49.9076 45.152 50.1476 45.12C50.4036 45.088 50.6516 45.08 50.8916 45.096C51.1316 45.112 51.2996 45.168 51.3956 45.264C51.5076 45.328 51.5956 45.472 51.6596 45.696C51.7396 45.904 51.8036 46.12 51.8516 46.344C51.8996 46.568 51.9316 46.736 51.9476 46.848C52.1076 46.72 52.2836 46.544 52.4756 46.32C52.6836 46.08 52.8916 45.856 53.0996 45.648C53.3556 45.472 53.6596 45.296 54.0116 45.12C54.3636 44.928 54.6196 44.832 54.7796 44.832C54.9556 44.832 55.1716 44.92 55.4276 45.096C55.6836 45.256 55.8436 45.4 55.9076 45.528C56.0676 45.8 56.1796 46.088 56.2436 46.392C56.3236 46.68 56.2756 46.936 56.0996 47.16C55.9396 47.368 55.7156 47.576 55.4276 47.784C55.1396 47.976 54.7796 48.032 54.3476 47.952C54.2516 47.92 54.1476 47.8 54.0356 47.592C53.9396 47.384 53.8836 47.232 53.8676 47.136C53.8676 47.088 53.7956 47.136 53.6516 47.28C53.5236 47.408 53.3636 47.568 53.1716 47.76C52.9956 47.952 52.8276 48.128 52.6676 48.288C52.3956 48.624 52.1076 49.08 51.8036 49.656C51.4996 50.232 51.1396 50.928 50.7236 51.744C50.5316 52.144 50.3716 52.528 50.2436 52.896C50.1156 53.248 49.9796 53.448 49.8356 53.496ZM61.1961 53.52C60.7161 53.792 60.2041 53.952 59.6601 54C59.1321 54.032 58.6361 53.96 58.1721 53.784C57.7081 53.592 57.3321 53.312 57.0441 52.944C56.8841 52.736 56.7321 52.408 56.5881 51.96C56.4441 51.496 56.4201 50.872 56.5161 50.088C56.6121 49.352 56.8361 48.608 57.1881 47.856C57.5561 47.104 58.0041 46.44 58.5321 45.864C59.0601 45.288 59.6361 44.896 60.2601 44.688C60.4841 44.608 60.7081 44.552 60.9321 44.52C61.1721 44.472 61.4841 44.464 61.8681 44.496C62.2361 44.544 62.5641 44.64 62.8521 44.784C63.1401 44.912 63.3481 45.056 63.4761 45.216C63.7321 45.472 63.9001 45.72 63.9801 45.96C64.0601 46.2 64.0921 46.432 64.0761 46.656C63.9961 47.168 63.7641 47.72 63.3801 48.312C63.0121 48.904 62.4921 49.344 61.8201 49.632C61.5481 49.744 61.2281 49.816 60.8601 49.848C60.4921 49.88 59.9881 49.832 59.3481 49.704C58.9641 49.624 58.7081 49.664 58.5801 49.824C58.4681 49.984 58.4201 50.296 58.4361 50.76C58.4681 51.048 58.5321 51.304 58.6281 51.528C58.7401 51.736 58.9401 51.88 59.2281 51.96C59.5961 52.024 59.8601 52.032 60.0201 51.984C60.1801 51.92 60.3801 51.832 60.6201 51.72C60.7481 51.64 60.8681 51.552 60.9801 51.456C61.1081 51.36 61.2281 51.264 61.3401 51.168C61.4681 51.072 61.5721 51 61.6521 50.952C61.7321 50.888 61.8121 50.848 61.8921 50.832C61.9721 50.816 62.0521 50.808 62.1321 50.808C62.3081 50.824 62.4761 50.92 62.6361 51.096C62.7961 51.272 62.9001 51.44 62.9481 51.6C62.9481 51.728 62.8681 51.912 62.7081 52.152C62.5481 52.376 62.3321 52.616 62.0601 52.872C61.8041 53.112 61.5161 53.328 61.1961 53.52ZM60.8841 48.168C60.9961 48.12 61.1561 48.008 61.3641 47.832C61.5881 47.656 61.7881 47.472 61.9641 47.28C62.1401 47.072 62.2281 46.912 62.2281 46.8C62.2281 46.624 62.1081 46.472 61.8681 46.344C61.6441 46.216 61.3481 46.192 60.9801 46.272C60.8521 46.304 60.7001 46.392 60.5241 46.536C60.3481 46.68 60.1721 46.848 59.9961 47.04C59.8201 47.216 59.6681 47.392 59.5401 47.568C59.4121 47.728 59.3241 47.856 59.2761 47.952C59.3401 48.032 59.4681 48.096 59.6601 48.144C59.8521 48.192 60.0601 48.216 60.2841 48.216C60.5241 48.216 60.7241 48.2 60.8841 48.168Z" fill="black"/>
<path d="M134.433 67.9733L133.738 92.3268L109.879 76.3756" stroke="currentColor" stroke-width="2.7411" stroke-miterlimit="10" stroke-linecap="round" stroke-linejoin="round"/>
<path d="M132.81 91.7392C126.108 77.5379 105.967 42.6526 78.273 38.4859" stroke="currentColor" stroke-width="2.7411" stroke-miterlimit="10" stroke-linecap="round" stroke-linejoin="round"/>
</svg>
