<svg width="194" height="75" viewBox="0 0 194 75" fill="none" xmlns="http://www.w3.org/2000/svg">
<path d="M115.302 23.792C115.014 23.632 114.854 23.456 114.822 23.264C114.806 23.072 114.918 22.736 115.158 22.256C115.398 21.776 115.774 21.032 116.286 20.024C116.67 19.304 116.926 18.744 117.054 18.344C117.198 17.928 117.278 17.632 117.294 17.456C117.31 17.28 117.318 17.168 117.318 17.12C117.286 16.976 117.302 16.864 117.366 16.784C117.43 16.688 117.534 16.608 117.678 16.544C117.758 16.464 117.942 16.32 118.23 16.112C118.518 15.904 118.742 15.656 118.902 15.368C119.046 15.032 119.206 14.688 119.382 14.336C119.574 13.984 119.822 13.544 120.126 13.016C120.43 12.472 120.838 11.768 121.35 10.904C121.67 10.344 122.046 9.712 122.478 9.008C122.926 8.304 123.366 7.664 123.798 7.088C123.974 6.864 124.158 6.688 124.35 6.56C124.542 6.432 124.71 6.368 124.854 6.368C125.206 6.368 125.558 6.464 125.91 6.656C126.262 6.832 126.574 7.056 126.846 7.328C127.118 7.6 127.302 7.856 127.398 8.096C127.478 8.224 127.51 8.496 127.494 8.912C127.478 9.328 127.446 9.832 127.398 10.424C127.35 11.016 127.294 11.648 127.23 12.32C127.182 12.976 127.11 13.752 127.014 14.648C126.918 15.544 126.822 16.48 126.726 17.456C126.646 18.432 126.582 19.376 126.534 20.288C126.486 21.184 126.486 21.968 126.534 22.64C126.55 22.784 126.55 22.92 126.534 23.048C126.518 23.176 126.51 23.28 126.51 23.36C126.414 23.456 126.206 23.496 125.886 23.48C125.566 23.48 125.254 23.432 124.95 23.336C124.646 23.24 124.478 23.12 124.446 22.976C124.398 22.928 124.366 22.888 124.35 22.856C124.334 22.824 124.334 22.672 124.35 22.4C124.366 22.112 124.39 21.592 124.422 20.84L124.542 17.168L124.23 17.192C124.086 17.192 123.822 17.208 123.438 17.24C123.07 17.272 122.662 17.32 122.214 17.384C121.782 17.432 121.382 17.488 121.014 17.552C120.646 17.6 120.39 17.648 120.246 17.696C120.102 17.696 119.926 17.792 119.718 17.984C119.526 18.176 119.342 18.424 119.166 18.728C119.102 18.952 118.982 19.192 118.806 19.448C118.646 19.688 118.566 19.848 118.566 19.928C118.454 20.008 118.358 20.104 118.278 20.216C118.214 20.328 118.182 20.384 118.182 20.384C118.182 20.48 118.11 20.72 117.966 21.104C117.822 21.472 117.646 21.888 117.438 22.352C117.23 22.8 117.014 23.192 116.79 23.528L116.142 24.44L115.302 23.792ZM121.038 15.536C121.038 15.536 121.126 15.52 121.302 15.488C121.478 15.456 121.686 15.424 121.926 15.392C122.182 15.344 122.406 15.32 122.598 15.32C122.966 15.224 123.27 15.152 123.51 15.104C123.766 15.056 123.974 15.032 124.134 15.032C124.294 15.016 124.422 15.032 124.518 15.08C124.582 15.16 124.638 15.208 124.686 15.224C124.75 15.24 124.782 15.248 124.782 15.248C124.798 15.216 124.83 15.048 124.878 14.744C124.926 14.44 124.982 14.064 125.046 13.616C125.11 13.168 125.174 12.704 125.238 12.224C125.302 11.728 125.358 11.272 125.406 10.856C125.454 10.424 125.486 10.088 125.502 9.848C125.518 9.544 125.51 9.272 125.478 9.032C125.446 8.776 125.43 8.648 125.43 8.648C125.334 8.648 125.15 8.824 124.878 9.176C124.622 9.512 124.318 9.968 123.966 10.544C123.63 11.104 123.294 11.712 122.958 12.368C122.798 12.672 122.646 12.912 122.502 13.088C122.374 13.264 122.27 13.352 122.19 13.352C122.158 13.384 122.07 13.512 121.926 13.736C121.798 13.944 121.654 14.184 121.494 14.456C121.35 14.712 121.222 14.952 121.11 15.176C121.014 15.384 120.99 15.504 121.038 15.536ZM130.176 22.28C129.936 22.28 129.696 22.104 129.456 21.752C129.216 21.384 129.024 20.936 128.88 20.408C128.752 19.88 128.704 19.36 128.736 18.848C128.736 18.336 128.76 17.928 128.808 17.624C128.872 17.304 128.936 16.992 129 16.688C129.048 16.592 129.072 16.512 129.072 16.448C129.088 16.384 129.104 16.28 129.12 16.136C129.152 15.992 129.208 15.752 129.288 15.416C129.352 15.144 129.416 14.92 129.48 14.744C129.56 14.568 129.624 14.448 129.672 14.384C129.864 14.128 130.08 13.976 130.32 13.928C130.56 13.864 130.776 13.888 130.968 14C131.176 14.112 131.296 14.28 131.328 14.504C131.424 14.584 131.472 14.768 131.472 15.056C131.488 15.328 131.472 15.616 131.424 15.92C131.376 16.208 131.304 16.416 131.208 16.544C131.176 16.624 131.136 16.832 131.088 17.168C131.056 17.504 131.016 17.856 130.968 18.224C130.936 18.592 130.896 18.888 130.848 19.112C130.8 19.4 130.816 19.584 130.896 19.664C130.992 19.728 131.152 19.656 131.376 19.448C131.616 19.224 131.928 18.832 132.312 18.272C132.632 17.792 132.864 17.416 133.008 17.144C133.168 16.872 133.288 16.624 133.368 16.4C133.464 16.176 133.568 15.912 133.68 15.608C133.76 15.352 133.832 15.144 133.896 14.984C133.976 14.824 134.048 14.712 134.112 14.648C134.288 14.392 134.52 14.288 134.808 14.336C135.112 14.368 135.36 14.448 135.552 14.576C135.744 14.768 135.856 15.032 135.888 15.368C135.936 15.688 135.864 16.04 135.672 16.424C135.544 16.68 135.416 16.984 135.288 17.336C135.176 17.688 135.08 18.04 135 18.392C134.936 18.744 134.904 19.048 134.904 19.304C134.904 19.624 134.944 19.816 135.024 19.88C135.12 19.928 135.232 19.952 135.36 19.952C135.552 19.952 135.736 19.888 135.912 19.76C136.088 19.616 136.344 19.368 136.68 19.016C136.824 18.872 137 18.656 137.208 18.368C137.416 18.08 137.616 17.776 137.808 17.456C138.016 17.136 138.184 16.856 138.312 16.616C138.456 16.36 138.528 16.2 138.528 16.136C138.528 16.04 138.6 15.904 138.744 15.728C138.84 15.6 138.912 15.504 138.96 15.44C139.024 15.36 139.136 15.28 139.296 15.2C139.424 15.136 139.568 15.128 139.728 15.176C139.888 15.208 140.024 15.288 140.136 15.416C140.216 15.48 140.272 15.64 140.304 15.896C140.352 16.136 140.376 16.352 140.376 16.544C140.328 16.72 140.256 16.968 140.16 17.288C140.064 17.592 139.96 17.888 139.848 18.176C139.752 18.448 139.664 18.632 139.584 18.728C139.52 18.792 139.408 18.912 139.248 19.088C139.088 19.248 138.944 19.424 138.816 19.616C138.416 20.096 138.128 20.408 137.952 20.552C137.776 20.696 137.624 20.832 137.496 20.96C137.16 21.296 136.776 21.568 136.344 21.776C135.912 21.968 135.504 22.08 135.12 22.112C134.736 22.128 134.432 22.056 134.208 21.896C133.712 21.64 133.464 21.208 133.464 20.6C133.464 20.472 133.44 20.36 133.392 20.264C133.36 20.152 133.344 20.096 133.344 20.096C133.28 20.096 133.192 20.112 133.08 20.144C132.984 20.176 132.88 20.288 132.768 20.48C132.624 20.752 132.376 21.032 132.024 21.32C131.688 21.592 131.344 21.824 130.992 22.016C130.64 22.192 130.368 22.28 130.176 22.28ZM143.15 23.144C142.638 23.144 142.166 23.032 141.734 22.808C141.318 22.568 140.982 22.28 140.726 21.944C140.47 21.592 140.342 21.256 140.342 20.936C140.342 20.792 140.366 20.688 140.414 20.624C140.478 20.56 140.566 20.528 140.678 20.528C140.758 20.544 140.854 20.584 140.966 20.648C141.078 20.712 141.19 20.784 141.302 20.864C141.558 21.04 141.838 21.152 142.142 21.2C142.446 21.248 142.718 21.232 142.958 21.152C143.198 21.056 143.334 20.912 143.366 20.72C143.366 20.656 143.334 20.52 143.27 20.312C143.206 20.104 143.126 19.904 143.03 19.712C142.63 19.12 142.382 18.56 142.286 18.032C142.19 17.488 142.126 16.944 142.094 16.4C142.094 16.176 142.198 15.928 142.406 15.656C142.614 15.368 142.87 15.088 143.174 14.816C143.51 14.528 143.878 14.256 144.278 14C144.694 13.744 145.102 13.528 145.502 13.352C145.902 13.176 146.238 13.072 146.51 13.04C146.798 13.04 147.102 13.056 147.422 13.088C147.758 13.104 147.982 13.16 148.094 13.256C148.318 13.432 148.526 13.72 148.718 14.12C148.91 14.52 149.006 14.856 149.006 15.128C149.006 15.256 148.934 15.416 148.79 15.608C148.662 15.784 148.542 15.984 148.43 16.208C148.366 16.32 148.31 16.44 148.262 16.568C148.214 16.696 148.158 16.824 148.094 16.952C147.998 17.176 147.822 17.272 147.566 17.24C147.326 17.192 147.102 17.064 146.894 16.856C146.686 16.632 146.582 16.376 146.582 16.088C146.582 15.848 146.654 15.64 146.798 15.464C146.942 15.288 147.014 15.168 147.014 15.104C147.014 15.072 146.998 15.048 146.966 15.032C146.934 15.016 146.878 15.008 146.798 15.008C146.686 15.008 146.502 15.056 146.246 15.152C146.006 15.232 145.75 15.352 145.478 15.512C145.206 15.672 144.958 15.864 144.734 16.088C144.574 16.264 144.438 16.456 144.326 16.664C144.23 16.856 144.182 17.064 144.182 17.288C144.182 17.512 144.222 17.776 144.302 18.08C144.398 18.368 144.502 18.608 144.614 18.8C144.646 18.832 144.694 18.92 144.758 19.064C144.838 19.192 144.926 19.352 145.022 19.544C145.614 20.76 145.71 21.664 145.31 22.256C144.926 22.848 144.206 23.144 143.15 23.144ZM150.917 22.832C150.709 22.832 150.541 22.792 150.413 22.712C150.301 22.632 150.157 22.52 149.981 22.376C149.677 22.056 149.429 21.712 149.237 21.344C149.061 20.976 148.997 20.656 149.045 20.384C149.093 20.256 149.109 20.136 149.093 20.024C149.093 19.896 149.093 19.832 149.093 19.832C149.013 19.752 148.989 19.704 149.021 19.688C149.053 19.656 149.085 19.608 149.117 19.544C149.213 19.544 149.245 19.456 149.213 19.28C149.181 19.152 149.229 18.88 149.357 18.464C149.501 18.032 149.693 17.624 149.933 17.24C150.029 17.08 150.173 16.872 150.365 16.616C150.557 16.344 150.765 16.08 150.989 15.824C151.229 15.552 151.445 15.336 151.637 15.176C152.037 14.84 152.405 14.568 152.741 14.36C153.093 14.152 153.445 14.008 153.797 13.928C154.149 13.848 154.509 13.808 154.877 13.808C155.261 13.808 155.573 13.936 155.813 14.192C156.181 14.352 156.437 14.568 156.581 14.84C156.741 15.112 156.845 15.464 156.893 15.896C156.941 16.376 156.893 16.968 156.749 17.672C156.605 18.36 156.213 19.16 155.573 20.072C155.173 20.648 154.781 21.096 154.397 21.416C154.013 21.736 153.589 22.032 153.125 22.304C152.789 22.528 152.429 22.664 152.045 22.712C151.661 22.76 151.285 22.8 150.917 22.832ZM153.365 19.904C153.717 19.6 153.965 19.264 154.109 18.896C154.269 18.528 154.437 18.096 154.613 17.6C154.677 17.504 154.717 17.344 154.733 17.12C154.765 16.896 154.773 16.68 154.757 16.472C154.741 16.248 154.685 16.12 154.589 16.088C154.445 15.976 154.301 15.952 154.157 16.016C154.013 16.064 153.829 16.168 153.605 16.328C153.125 16.728 152.677 17.192 152.261 17.72C151.861 18.232 151.581 18.864 151.421 19.616C151.373 20.016 151.413 20.32 151.541 20.528C151.685 20.72 151.909 20.776 152.213 20.696C152.533 20.6 152.917 20.336 153.365 19.904ZM159.228 22.208C158.924 22.08 158.676 21.888 158.484 21.632C158.308 21.36 158.22 21.032 158.22 20.648C158.22 20.488 158.252 20.216 158.316 19.832C158.38 19.448 158.468 19.016 158.58 18.536C158.692 18.056 158.804 17.608 158.916 17.192C159.076 16.904 159.18 16.616 159.228 16.328C159.292 16.04 159.324 15.864 159.324 15.8C159.356 15.608 159.412 15.352 159.492 15.032C159.572 14.712 159.652 14.424 159.732 14.168C159.828 13.896 159.892 13.744 159.924 13.712C160.004 13.632 160.14 13.584 160.332 13.568C160.524 13.552 160.716 13.576 160.908 13.64C161.1 13.688 161.228 13.792 161.292 13.952C161.468 14.144 161.564 14.432 161.58 14.816C161.612 15.2 161.54 15.648 161.364 16.16C161.22 16.48 161.076 16.856 160.932 17.288C160.788 17.72 160.66 18.12 160.548 18.488C160.452 18.84 160.396 19.08 160.38 19.208L159.516 19.184C159.788 18.928 160.044 18.664 160.284 18.392C160.524 18.104 160.7 17.88 160.812 17.72C161.084 17.352 161.316 17.048 161.508 16.808C161.716 16.552 161.98 16.248 162.3 15.896C162.62 15.528 162.964 15.272 163.332 15.128C163.7 14.968 163.972 14.888 164.148 14.888C164.5 14.952 164.812 15.136 165.084 15.44C165.372 15.728 165.548 16.16 165.612 16.736C165.612 16.96 165.588 17.224 165.54 17.528C165.508 17.832 165.492 17.984 165.492 17.984C165.492 17.984 165.62 17.824 165.876 17.504C166.148 17.184 166.508 16.824 166.956 16.424C167.26 16.2 167.556 16.072 167.844 16.04C168.132 15.992 168.388 16.088 168.612 16.328C169.028 16.552 169.332 16.944 169.524 17.504C169.716 18.064 169.78 18.696 169.716 19.4C169.668 19.816 169.668 20.152 169.716 20.408C169.78 20.648 169.844 20.864 169.908 21.056C170.116 21.344 170.148 21.6 170.004 21.824C169.86 22.032 169.732 22.136 169.62 22.136C169.46 22.136 169.22 22.104 168.9 22.04C168.58 21.976 168.284 21.864 168.012 21.704C167.756 21.544 167.628 21.328 167.628 21.056V19.568C167.628 19.216 167.612 18.96 167.58 18.8C167.564 18.624 167.524 18.512 167.46 18.464C167.284 18.368 167.068 18.44 166.812 18.68C166.556 18.92 166.276 19.264 165.972 19.712C165.684 20.144 165.372 20.632 165.036 21.176C164.732 21.672 164.484 21.976 164.292 22.088C164.1 22.184 163.916 22.176 163.74 22.064C163.388 21.952 163.164 21.8 163.068 21.608C162.988 21.4 162.98 21.168 163.044 20.912C163.124 20.64 163.22 20.288 163.332 19.856C163.46 19.424 163.58 19.008 163.692 18.608C163.804 18.192 163.876 17.888 163.908 17.696C163.844 17.568 163.732 17.528 163.572 17.576C163.428 17.608 163.276 17.68 163.116 17.792C162.924 17.92 162.716 18.056 162.492 18.2C162.284 18.344 162.036 18.648 161.748 19.112C161.556 19.416 161.34 19.752 161.1 20.12C160.86 20.472 160.636 20.792 160.428 21.08C160.236 21.368 160.076 21.568 159.948 21.68C159.836 21.968 159.732 22.152 159.636 22.232C159.54 22.296 159.404 22.288 159.228 22.208ZM174.068 23.432C173.188 23.432 172.508 23.176 172.028 22.664C171.564 22.152 171.332 21.368 171.332 20.312C171.332 19.736 171.436 19.104 171.644 18.416C171.868 17.728 172.156 17.056 172.508 16.4C172.876 15.744 173.276 15.176 173.708 14.696C174.14 14.2 174.572 13.856 175.004 13.664C175.164 13.584 175.332 13.528 175.508 13.496C175.7 13.448 175.884 13.424 176.06 13.424C176.252 13.424 176.46 13.44 176.684 13.472C176.924 13.488 177.148 13.536 177.356 13.616C177.724 13.728 178.044 13.944 178.316 14.264C178.604 14.584 178.748 15.048 178.748 15.656C178.748 15.816 178.732 15.992 178.7 16.184C178.668 16.36 178.612 16.536 178.532 16.712C178.324 17.24 178.004 17.744 177.572 18.224C177.156 18.704 176.716 19.04 176.252 19.232C176.124 19.296 175.996 19.344 175.868 19.376C175.756 19.392 175.636 19.4 175.508 19.4C175.172 19.4 174.868 19.352 174.596 19.256C174.34 19.16 174.1 19.032 173.876 18.872L173.684 18.704L173.564 18.944C173.452 19.248 173.372 19.504 173.324 19.712C173.292 19.92 173.276 20.072 173.276 20.168C173.276 20.36 173.284 20.56 173.3 20.768C173.316 20.96 173.364 21.12 173.444 21.248C173.508 21.328 173.588 21.392 173.684 21.44C173.796 21.488 173.932 21.512 174.092 21.512C174.188 21.512 174.276 21.512 174.356 21.512C174.452 21.496 174.532 21.48 174.596 21.464C174.884 21.4 175.116 21.296 175.292 21.152C175.484 20.992 175.684 20.856 175.892 20.744L175.988 20.696L175.964 20.624C176.236 20.48 176.42 20.392 176.516 20.36C176.612 20.312 176.684 20.272 176.732 20.24C176.796 20.176 176.868 20.144 176.948 20.144C177.172 20.112 177.388 20.176 177.596 20.336C177.82 20.48 177.932 20.664 177.932 20.888C177.932 20.984 177.86 21.136 177.716 21.344C177.588 21.552 177.42 21.76 177.212 21.968C177.02 22.16 176.82 22.312 176.612 22.424C176.564 22.44 176.516 22.464 176.468 22.496C176.42 22.512 176.372 22.536 176.324 22.568H176.348C176.204 22.76 176.06 22.856 175.916 22.856H175.724C175.66 22.968 175.452 23.088 175.1 23.216C174.748 23.36 174.404 23.432 174.068 23.432ZM175.316 17.648C175.46 17.648 175.588 17.624 175.7 17.576C175.828 17.528 175.948 17.472 176.06 17.408C176.444 17.136 176.692 16.784 176.804 16.352C176.916 15.92 176.876 15.592 176.684 15.368C176.652 15.32 176.612 15.288 176.564 15.272C176.516 15.24 176.46 15.224 176.396 15.224C176.22 15.224 176.02 15.28 175.796 15.392C175.588 15.504 175.38 15.664 175.172 15.872C174.964 16.08 174.772 16.328 174.596 16.616L174.284 17.12C174.316 17.104 174.34 17.096 174.356 17.096C174.388 17.08 174.412 17.072 174.428 17.072C174.572 17.072 174.668 17.12 174.716 17.216C174.764 17.312 174.82 17.408 174.884 17.504C174.964 17.6 175.108 17.648 175.316 17.648ZM126.318 46.776C126.222 46.84 126.022 46.92 125.718 47.016C125.43 47.096 124.934 47.176 124.23 47.256C124.022 47.272 123.726 47.288 123.342 47.304C122.958 47.32 122.542 47.336 122.094 47.352C121.662 47.368 121.262 47.376 120.894 47.376C120.542 47.36 120.294 47.336 120.15 47.304C120.15 47.304 120.11 47.344 120.03 47.424C119.966 47.504 119.934 47.608 119.934 47.736C119.822 47.928 119.686 48.216 119.526 48.6C119.366 48.968 119.19 49.376 118.998 49.824C118.822 50.272 118.654 50.72 118.494 51.168C118.334 51.6 118.198 51.984 118.086 52.32C117.99 52.64 117.942 52.864 117.942 52.992C117.798 53.376 117.71 53.704 117.678 53.976C117.646 54.248 117.59 54.408 117.51 54.456C117.462 54.696 117.31 54.816 117.054 54.816C116.814 54.816 116.63 54.744 116.502 54.6C116.15 54.424 115.91 54.2 115.782 53.928C115.654 53.64 115.646 53.32 115.758 52.968C115.806 52.76 115.886 52.456 115.998 52.056C116.126 51.64 116.262 51.184 116.406 50.688C116.566 50.192 116.726 49.712 116.886 49.248C117.062 48.768 117.23 48.376 117.39 48.072C117.566 47.768 117.678 47.496 117.726 47.256C117.774 47 117.838 46.768 117.918 46.56C117.902 46.384 117.902 46.272 117.918 46.224C117.934 46.16 117.998 46.056 118.11 45.912C118.19 45.848 118.286 45.736 118.398 45.576C118.526 45.4 118.67 45.136 118.83 44.784C118.878 44.624 118.95 44.408 119.046 44.136C119.158 43.848 119.262 43.56 119.358 43.272C119.454 42.968 119.542 42.712 119.622 42.504C119.702 42.296 119.742 42.184 119.742 42.168C119.774 42.104 119.822 41.984 119.886 41.808C119.95 41.616 119.998 41.464 120.03 41.352C120.094 41.128 120.142 40.944 120.174 40.8C120.222 40.656 120.214 40.584 120.15 40.584C120.022 40.616 119.766 40.64 119.382 40.656C119.19 40.688 119.046 40.712 118.95 40.728C118.87 40.728 118.798 40.736 118.734 40.752C118.574 40.768 118.43 40.752 118.302 40.704C118.174 40.656 118.11 40.56 118.11 40.416C118.142 40.16 118.23 39.896 118.374 39.624C118.534 39.352 118.734 39.208 118.974 39.192C119.086 39.16 119.206 39.136 119.334 39.12C119.478 39.088 119.67 39.04 119.91 38.976C120.214 38.912 120.478 38.896 120.702 38.928C120.942 38.944 121.11 38.968 121.206 39C121.286 38.952 121.35 38.904 121.398 38.856C121.462 38.792 121.502 38.728 121.518 38.664C121.598 38.376 121.742 38.16 121.95 38.016C122.158 37.856 122.374 37.776 122.598 37.776C122.838 37.76 123.03 37.824 123.174 37.968C123.318 38.096 123.358 38.312 123.294 38.616C123.31 38.664 123.326 38.704 123.342 38.736C123.374 38.768 123.494 38.768 123.702 38.736C123.926 38.688 124.31 38.608 124.854 38.496C125.142 38.464 125.502 38.432 125.934 38.4C126.382 38.368 126.734 38.392 126.99 38.472C127.262 38.424 127.502 38.408 127.71 38.424C127.934 38.424 128.086 38.392 128.166 38.328C128.502 38.392 128.742 38.44 128.886 38.472C129.046 38.488 129.174 38.536 129.27 38.616C129.334 38.68 129.358 38.744 129.342 38.808C129.326 38.856 129.318 38.88 129.318 38.88C129.254 38.848 129.246 38.848 129.294 38.88C129.342 38.896 129.406 38.936 129.486 39C129.598 39.048 129.654 39.152 129.654 39.312C129.67 39.456 129.662 39.608 129.63 39.768C129.614 39.912 129.598 40.008 129.582 40.056C129.566 40.2 129.486 40.288 129.342 40.32C129.198 40.336 128.838 40.336 128.262 40.32C127.574 40.224 126.934 40.192 126.342 40.224C125.766 40.24 125.038 40.312 124.158 40.44C123.806 40.456 123.502 40.504 123.246 40.584C123.006 40.648 122.886 40.68 122.886 40.68C122.822 40.68 122.71 40.792 122.55 41.016C122.39 41.224 122.238 41.536 122.094 41.952C122.03 42.064 121.918 42.296 121.758 42.648C121.614 43 121.462 43.384 121.302 43.8C121.142 44.2 120.998 44.56 120.87 44.88C120.742 45.184 120.662 45.352 120.63 45.384C120.854 45.448 121.198 45.48 121.662 45.48C122.142 45.48 122.67 45.464 123.246 45.432C123.822 45.384 124.366 45.336 124.878 45.288C125.118 45.24 125.366 45.2 125.622 45.168C125.878 45.136 126.054 45.128 126.15 45.144C126.342 45.16 126.486 45.288 126.582 45.528C126.678 45.752 126.71 45.992 126.678 46.248C126.646 46.488 126.526 46.664 126.318 46.776ZM131.698 53.52C131.218 53.792 130.706 53.952 130.162 54C129.634 54.032 129.138 53.96 128.674 53.784C128.21 53.592 127.834 53.312 127.546 52.944C127.386 52.736 127.234 52.408 127.09 51.96C126.946 51.496 126.922 50.872 127.018 50.088C127.114 49.352 127.338 48.608 127.69 47.856C128.058 47.104 128.506 46.44 129.034 45.864C129.562 45.288 130.138 44.896 130.762 44.688C130.986 44.608 131.21 44.552 131.434 44.52C131.674 44.472 131.986 44.464 132.37 44.496C132.738 44.544 133.066 44.64 133.354 44.784C133.642 44.912 133.85 45.056 133.978 45.216C134.234 45.472 134.402 45.72 134.482 45.96C134.562 46.2 134.594 46.432 134.578 46.656C134.498 47.168 134.266 47.72 133.882 48.312C133.514 48.904 132.994 49.344 132.322 49.632C132.05 49.744 131.73 49.816 131.362 49.848C130.994 49.88 130.49 49.832 129.85 49.704C129.466 49.624 129.21 49.664 129.082 49.824C128.97 49.984 128.922 50.296 128.938 50.76C128.97 51.048 129.034 51.304 129.13 51.528C129.242 51.736 129.442 51.88 129.73 51.96C130.098 52.024 130.362 52.032 130.522 51.984C130.682 51.92 130.882 51.832 131.122 51.72C131.25 51.64 131.37 51.552 131.482 51.456C131.61 51.36 131.73 51.264 131.842 51.168C131.97 51.072 132.074 51 132.154 50.952C132.234 50.888 132.314 50.848 132.394 50.832C132.474 50.816 132.554 50.808 132.634 50.808C132.81 50.824 132.978 50.92 133.138 51.096C133.298 51.272 133.402 51.44 133.45 51.6C133.45 51.728 133.37 51.912 133.21 52.152C133.05 52.376 132.834 52.616 132.562 52.872C132.306 53.112 132.018 53.328 131.698 53.52ZM131.386 48.168C131.498 48.12 131.658 48.008 131.866 47.832C132.09 47.656 132.29 47.472 132.466 47.28C132.642 47.072 132.73 46.912 132.73 46.8C132.73 46.624 132.61 46.472 132.37 46.344C132.146 46.216 131.85 46.192 131.482 46.272C131.354 46.304 131.202 46.392 131.026 46.536C130.85 46.68 130.674 46.848 130.498 47.04C130.322 47.216 130.17 47.392 130.042 47.568C129.914 47.728 129.826 47.856 129.778 47.952C129.842 48.032 129.97 48.096 130.162 48.144C130.354 48.192 130.562 48.216 130.786 48.216C131.026 48.216 131.226 48.2 131.386 48.168ZM137.218 53.664C137.09 53.696 136.922 53.712 136.714 53.712C136.506 53.696 136.322 53.672 136.162 53.64C136.018 53.592 135.946 53.544 135.946 53.496C135.946 53.416 135.906 53.376 135.826 53.376C135.826 53.376 135.738 53.312 135.562 53.184C135.386 53.04 135.226 52.936 135.082 52.872C134.938 52.648 134.842 52.392 134.794 52.104C134.762 51.8 134.858 51.272 135.082 50.52C135.098 50.008 135.242 49.472 135.514 48.912C135.786 48.336 136.13 47.776 136.546 47.232C136.962 46.688 137.394 46.208 137.842 45.792C138.29 45.36 138.69 45.04 139.042 44.832C139.266 44.608 139.562 44.488 139.93 44.472C140.314 44.456 140.65 44.528 140.938 44.688C141.098 44.768 141.274 44.928 141.466 45.168C141.658 45.408 141.842 45.664 142.018 45.936C142.194 46.192 142.33 46.424 142.426 46.632C142.474 46.808 142.514 46.968 142.546 47.112C142.594 47.24 142.626 47.4 142.642 47.592C142.658 47.784 142.642 48.072 142.594 48.456C142.514 48.744 142.442 49.04 142.378 49.344C142.33 49.632 142.306 49.928 142.306 50.232C142.274 50.536 142.306 50.752 142.402 50.88C142.514 51.008 142.674 51.016 142.882 50.904C143.074 50.808 143.274 50.8 143.482 50.88C143.69 50.944 143.834 51.072 143.914 51.264C144.01 51.44 143.986 51.672 143.842 51.96C143.746 52.168 143.594 52.368 143.386 52.56C143.178 52.752 142.946 52.912 142.69 53.04C142.434 53.152 142.186 53.208 141.946 53.208C141.77 53.208 141.594 53.144 141.418 53.016C141.242 52.872 141.082 52.68 140.938 52.44C140.794 52.2 140.674 51.936 140.578 51.648L140.434 51.096L139.57 51.888C139.362 52.112 139.154 52.32 138.946 52.512C138.754 52.688 138.634 52.816 138.586 52.896C138.506 53.04 138.346 53.168 138.106 53.28C137.882 53.392 137.586 53.52 137.218 53.664ZM137.866 51.36C138.138 51.2 138.37 51.008 138.562 50.784C138.77 50.56 138.97 50.312 139.162 50.04C139.354 49.752 139.562 49.448 139.786 49.128C140.058 48.76 140.25 48.464 140.362 48.24C140.49 48.016 140.586 47.776 140.65 47.52C140.586 47.344 140.498 47.16 140.386 46.968C140.274 46.76 140.162 46.648 140.05 46.632C139.826 46.632 139.554 46.768 139.234 47.04C138.93 47.312 138.594 47.704 138.226 48.216C138.162 48.296 138.082 48.424 137.986 48.6C137.89 48.776 137.794 48.944 137.698 49.104C137.618 49.248 137.562 49.344 137.53 49.392C137.482 49.456 137.41 49.608 137.314 49.848C137.234 50.072 137.162 50.304 137.098 50.544C137.034 50.768 137.002 50.928 137.002 51.024C137.002 51.12 137.01 51.224 137.026 51.336C137.058 51.448 137.138 51.52 137.266 51.552C137.394 51.584 137.594 51.52 137.866 51.36ZM146.63 54.024C146.454 53.992 146.262 53.888 146.054 53.712C145.846 53.52 145.654 53.312 145.478 53.088C145.318 52.848 145.214 52.648 145.166 52.488C145.166 52.456 145.142 52.416 145.094 52.368C145.062 52.32 145.046 52.296 145.046 52.296C144.982 52.248 144.942 52.04 144.926 51.672C144.926 51.288 144.95 50.864 144.998 50.4C145.046 49.936 145.102 49.568 145.166 49.296C145.246 49.04 145.366 48.696 145.526 48.264C145.686 47.816 145.822 47.416 145.934 47.064L146.582 45.672L145.622 45.408C145.51 45.376 145.414 45.312 145.334 45.216C145.27 45.12 145.238 45.04 145.238 44.976C145.238 44.848 145.31 44.664 145.454 44.424C145.598 44.184 145.702 44.064 145.766 44.064C145.846 44.08 145.99 44.088 146.198 44.088C146.422 44.088 146.638 44.08 146.846 44.064C147.054 44.048 147.182 44.032 147.23 44.016C147.294 43.984 147.358 43.944 147.422 43.896C147.486 43.832 147.534 43.744 147.566 43.632C147.646 43.456 147.718 43.32 147.782 43.224C147.846 43.128 147.934 42.984 148.046 42.792C148.158 42.584 148.246 42.408 148.31 42.264C148.39 42.12 148.51 41.92 148.67 41.664C148.75 41.552 148.838 41.416 148.934 41.256C149.03 41.096 149.15 40.96 149.294 40.848C149.438 40.72 149.67 40.632 149.99 40.584C150.326 40.52 150.614 40.592 150.854 40.8C150.982 40.96 151.054 41.112 151.07 41.256C151.086 41.4 151.022 41.584 150.878 41.808C150.75 42.08 150.598 42.328 150.422 42.552C150.262 42.76 150.11 43 149.966 43.272C149.71 43.624 149.662 43.824 149.822 43.872C149.982 43.92 150.43 43.888 151.166 43.776C151.63 43.696 151.966 43.744 152.174 43.92C152.382 44.096 152.502 44.32 152.534 44.592C152.582 44.976 152.542 45.208 152.414 45.288C152.286 45.368 151.918 45.408 151.31 45.408C150.926 45.472 150.598 45.512 150.326 45.528C150.054 45.528 149.854 45.528 149.726 45.528C149.518 45.544 149.382 45.552 149.318 45.552C149.254 45.552 149.158 45.568 149.03 45.6C148.902 45.632 148.806 45.688 148.742 45.768C148.694 45.832 148.638 45.928 148.574 46.056C148.51 46.12 148.414 46.288 148.286 46.56C148.158 46.832 147.998 47.128 147.806 47.448C147.582 48.12 147.39 48.768 147.23 49.392C147.086 50 146.958 50.608 146.846 51.216C146.798 51.52 146.806 51.744 146.87 51.888C146.95 52.016 147.158 52.096 147.494 52.128C147.67 52.144 147.926 52.144 148.262 52.128C148.598 52.096 148.878 52.048 149.102 51.984C149.278 51.904 149.462 51.824 149.654 51.744C149.846 51.648 150.022 51.552 150.182 51.456C150.326 51.376 150.47 51.296 150.614 51.216C150.758 51.12 150.83 51.072 150.83 51.072C150.91 50.944 151.022 50.968 151.166 51.144C151.326 51.304 151.438 51.48 151.502 51.672C151.502 51.864 151.462 52.096 151.382 52.368C151.302 52.624 151.006 52.896 150.494 53.184C149.774 53.632 149.054 53.904 148.334 54C147.614 54.096 147.046 54.104 146.63 54.024ZM154.551 53.16C154.247 52.888 153.983 52.608 153.759 52.32C153.535 52.016 153.383 51.552 153.303 50.928C153.271 50.64 153.303 50.24 153.399 49.728C153.495 49.216 153.639 48.68 153.831 48.12C154.023 47.544 154.231 47.016 154.455 46.536C154.679 46.056 154.903 45.704 155.127 45.48C155.319 45.24 155.559 45.048 155.847 44.904C156.151 44.76 156.463 44.76 156.783 44.904C156.959 45.112 157.047 45.4 157.047 45.768C157.063 46.12 156.975 46.448 156.783 46.752C156.463 47.184 156.183 47.728 155.943 48.384C155.719 49.024 155.567 49.6 155.487 50.112C155.375 50.48 155.327 50.768 155.343 50.976C155.359 51.168 155.471 51.288 155.679 51.336C155.983 51.416 156.295 51.328 156.615 51.072C156.951 50.816 157.271 50.44 157.575 49.944C157.895 49.448 158.175 48.88 158.415 48.24C158.511 48.016 158.583 47.752 158.631 47.448C158.695 47.144 158.759 46.92 158.823 46.776C158.903 46.456 159.039 46.208 159.231 46.032C159.439 45.84 159.655 45.72 159.879 45.672C160.103 45.624 160.271 45.648 160.383 45.744C160.527 45.808 160.679 45.912 160.839 46.056C160.999 46.2 161.063 46.456 161.031 46.824C161.031 47.416 160.903 47.92 160.647 48.336C160.391 48.752 160.175 49.192 159.999 49.656C159.855 49.992 159.623 50.384 159.303 50.832C158.983 51.28 158.639 51.688 158.271 52.056C157.919 52.424 157.591 52.672 157.287 52.8C156.839 53.088 156.383 53.264 155.919 53.328C155.455 53.376 154.999 53.32 154.551 53.16ZM163.674 53.496C163.626 53.512 163.522 53.504 163.362 53.472C163.218 53.44 163.066 53.4 162.906 53.352C162.762 53.304 162.674 53.264 162.642 53.232C162.578 53.168 162.49 53.056 162.378 52.896C162.266 52.72 162.202 52.488 162.186 52.2C162.186 51.912 162.322 51.568 162.594 51.168C162.674 51.008 162.77 50.768 162.882 50.448C162.994 50.128 163.106 49.792 163.218 49.44C163.346 49.072 163.458 48.744 163.554 48.456C163.666 48.168 163.746 47.968 163.794 47.856C163.826 47.584 163.81 47.392 163.746 47.28C163.698 47.152 163.562 47.08 163.338 47.064C163.178 47.064 163.05 47.008 162.954 46.896C162.874 46.784 162.834 46.584 162.834 46.296C162.866 46.072 162.922 45.88 163.002 45.72C163.098 45.544 163.226 45.4 163.386 45.288C163.546 45.208 163.746 45.152 163.986 45.12C164.242 45.088 164.49 45.08 164.73 45.096C164.97 45.112 165.138 45.168 165.234 45.264C165.346 45.328 165.434 45.472 165.498 45.696C165.578 45.904 165.642 46.12 165.69 46.344C165.738 46.568 165.77 46.736 165.786 46.848C165.946 46.72 166.122 46.544 166.314 46.32C166.522 46.08 166.73 45.856 166.938 45.648C167.194 45.472 167.498 45.296 167.85 45.12C168.202 44.928 168.458 44.832 168.618 44.832C168.794 44.832 169.01 44.92 169.266 45.096C169.522 45.256 169.682 45.4 169.746 45.528C169.906 45.8 170.018 46.088 170.082 46.392C170.162 46.68 170.114 46.936 169.938 47.16C169.778 47.368 169.554 47.576 169.266 47.784C168.978 47.976 168.618 48.032 168.186 47.952C168.09 47.92 167.986 47.8 167.874 47.592C167.778 47.384 167.722 47.232 167.706 47.136C167.706 47.088 167.634 47.136 167.49 47.28C167.362 47.408 167.202 47.568 167.01 47.76C166.834 47.952 166.666 48.128 166.506 48.288C166.234 48.624 165.946 49.08 165.642 49.656C165.338 50.232 164.978 50.928 164.562 51.744C164.37 52.144 164.21 52.528 164.082 52.896C163.954 53.248 163.818 53.448 163.674 53.496ZM175.034 53.52C174.554 53.792 174.042 53.952 173.498 54C172.97 54.032 172.474 53.96 172.01 53.784C171.546 53.592 171.17 53.312 170.882 52.944C170.722 52.736 170.57 52.408 170.426 51.96C170.282 51.496 170.258 50.872 170.354 50.088C170.45 49.352 170.674 48.608 171.026 47.856C171.394 47.104 171.842 46.44 172.37 45.864C172.898 45.288 173.474 44.896 174.098 44.688C174.322 44.608 174.546 44.552 174.77 44.52C175.01 44.472 175.322 44.464 175.706 44.496C176.074 44.544 176.402 44.64 176.69 44.784C176.978 44.912 177.186 45.056 177.314 45.216C177.57 45.472 177.738 45.72 177.818 45.96C177.898 46.2 177.93 46.432 177.914 46.656C177.834 47.168 177.602 47.72 177.218 48.312C176.85 48.904 176.33 49.344 175.658 49.632C175.386 49.744 175.066 49.816 174.698 49.848C174.33 49.88 173.826 49.832 173.186 49.704C172.802 49.624 172.546 49.664 172.418 49.824C172.306 49.984 172.258 50.296 172.274 50.76C172.306 51.048 172.37 51.304 172.466 51.528C172.578 51.736 172.778 51.88 173.066 51.96C173.434 52.024 173.698 52.032 173.858 51.984C174.018 51.92 174.218 51.832 174.458 51.72C174.586 51.64 174.706 51.552 174.818 51.456C174.946 51.36 175.066 51.264 175.178 51.168C175.306 51.072 175.41 51 175.49 50.952C175.57 50.888 175.65 50.848 175.73 50.832C175.81 50.816 175.89 50.808 175.97 50.808C176.146 50.824 176.314 50.92 176.474 51.096C176.634 51.272 176.738 51.44 176.786 51.6C176.786 51.728 176.706 51.912 176.546 52.152C176.386 52.376 176.17 52.616 175.898 52.872C175.642 53.112 175.354 53.328 175.034 53.52ZM174.722 48.168C174.834 48.12 174.994 48.008 175.202 47.832C175.426 47.656 175.626 47.472 175.802 47.28C175.978 47.072 176.066 46.912 176.066 46.8C176.066 46.624 175.946 46.472 175.706 46.344C175.482 46.216 175.186 46.192 174.818 46.272C174.69 46.304 174.538 46.392 174.362 46.536C174.186 46.68 174.01 46.848 173.834 47.04C173.658 47.216 173.506 47.392 173.378 47.568C173.25 47.728 173.162 47.856 173.114 47.952C173.178 48.032 173.306 48.096 173.498 48.144C173.69 48.192 173.898 48.216 174.122 48.216C174.362 48.216 174.562 48.2 174.722 48.168Z" fill="white"/>
<path d="M17.8353 59.8049C25.0318 49.3512 34.8342 39.5714 46.9065 35.0526C50.5742 33.6732 55.6057 32.6165 59.0377 35.1565C63.4318 38.5002 61.8055 48.543 55.7472 49.0689C52.4597 49.3283 50.5923 45.7757 51.6035 42.9615C52.1127 41.296 53.3469 39.9748 54.7607 38.869C66.6304 29.1173 84.2013 24.9772 98.4594 31.9212" stroke="white" stroke-width="2.7411" stroke-miterlimit="10" stroke-linecap="round" stroke-linejoin="round"/>
<path d="M27.5057 64.2246C23.6368 64.7498 10.2089 72.8079 6.43328 73.1823C7.1577 71.3373 7.60934 69.4278 8.18299 67.4895C8.82116 65.2784 9.06452 63.0315 9.18586 60.8134" stroke="white" stroke-width="2.7411" stroke-miterlimit="10" stroke-linecap="round" stroke-linejoin="round"/>
</svg>
