<svg width="21" height="20" viewBox="0 0 21 20" fill="none" xmlns="http://www.w3.org/2000/svg">
<path d="M7.58317 12.2225C7.58317 13.2964 8.45373 14.167 9.52762 14.167H11.3332C12.4838 14.167 13.4165 13.2343 13.4165 12.0837C13.4165 10.9331 12.4838 10.0003 11.3332 10.0003H9.6665C8.51591 10.0003 7.58317 9.06759 7.58317 7.91699C7.58317 6.7664 8.51591 5.83366 9.6665 5.83366H11.4721C12.5459 5.83366 13.4165 6.70422 13.4165 7.7781M10.4998 4.58366V5.83366M10.4998 14.167V15.417M18.8332 10.0003C18.8332 14.6027 15.1022 18.3337 10.4998 18.3337C5.89746 18.3337 2.1665 14.6027 2.1665 10.0003C2.1665 5.39795 5.89746 1.66699 10.4998 1.66699C15.1022 1.66699 18.8332 5.39795 18.8332 10.0003Z" stroke="#0C111D" stroke-width="1.66667" stroke-linecap="round" stroke-linejoin="round"/>
</svg>
