<svg width="20" height="21" viewBox="0 0 20 21" fill="none" xmlns="http://www.w3.org/2000/svg">
<path d="M9.99998 17.1662H17.5M2.5 17.1662H3.89545C4.3031 17.1662 4.50693 17.1662 4.69874 17.1202C4.8688 17.0793 5.03138 17.012 5.1805 16.9206C5.34869 16.8175 5.49282 16.6734 5.78107 16.3852L16.25 5.9162C16.9404 5.22585 16.9404 4.10656 16.25 3.4162C15.5597 2.72585 14.4404 2.72585 13.75 3.4162L3.28105 13.8852C2.9928 14.1734 2.84867 14.3175 2.7456 14.4857C2.65422 14.6348 2.58688 14.7974 2.54605 14.9675C2.5 15.1593 2.5 15.3631 2.5 15.7708V17.1662Z" stroke="#0C111D" stroke-width="1.66667" stroke-linecap="round" stroke-linejoin="round"/>
</svg>
