<svg width="360" height="258" viewBox="0 0 360 258" fill="none" xmlns="http://www.w3.org/2000/svg">
<mask id="mask0_9294_13470" style="mask-type:alpha" maskUnits="userSpaceOnUse" x="-60" y="-1" width="480" height="259">
<rect width="480" height="259" transform="translate(-60 -1)" fill="url(#paint0_linear_9294_13470)"/>
</mask>
<g mask="url(#mask0_9294_13470)">
<circle cx="180" cy="144" r="83.5" stroke="#F04438"/>
<circle cx="180" cy="144" r="99.5" stroke="#F97066"/>
<circle cx="180" cy="144" r="115.5" stroke="#FDA29B"/>
<circle cx="180" cy="144" r="131.5" stroke="#FECDCA"/>
<circle cx="180" cy="144" r="147.5" stroke="#FEE4E2"/>
<circle cx="180" cy="144" r="163.5" stroke="#FEF3F2"/>
<circle opacity="0.5" cx="180" cy="144" r="179.5" stroke="#FEF3F2"/>
</g>
<circle cx="180" cy="144" r="68" fill="#FFE0E1"/>
<circle cx="180" cy="144" r="48" fill="#EC1C24"/>
<path d="M180 138V146M180 154H180.02M177.23 127.784L160.78 156.197C159.868 157.773 159.412 158.561 159.479 159.208C159.538 159.772 159.834 160.285 160.292 160.618C160.818 161 161.729 161 163.55 161H196.449C198.27 161 199.181 161 199.707 160.618C200.165 160.285 200.461 159.772 200.52 159.208C200.587 158.561 200.131 157.773 199.219 156.197L182.769 127.784C181.86 126.214 181.405 125.428 180.812 125.165C180.295 124.935 179.704 124.935 179.187 125.165C178.594 125.428 178.139 126.214 177.23 127.784Z" stroke="white" stroke-width="3" stroke-linecap="round" stroke-linejoin="round"/>
<defs>
<linearGradient id="paint0_linear_9294_13470" x1="240" y1="0" x2="240" y2="259" gradientUnits="userSpaceOnUse">
<stop stop-color="white"/>
<stop offset="1" stop-opacity="0"/>
</linearGradient>
</defs>
</svg>
