<svg width="2373" height="2018" viewBox="0 0 2373 2018" fill="none" xmlns="http://www.w3.org/2000/svg">
<path d="M1167.82 802.861C1141.13 821.686 1110.25 828.861 1066.59 812.513C919.25 757.164 802.538 634.393 636.735 627.938C551.603 624.701 473.892 659.207 411.922 716.464C119.616 987.444 209.254 1303.12 280.066 1405.6C352.599 1510.63 512.037 1487.25 616.684 1455.67C745.642 1416.81 875.496 1362 1012.88 1376.02C1157.94 1390.83 1490.27 1399.88 1637.94 1362.79C1742.12 1336.63 1891.18 1253.53 1916.54 1149.1C1941.91 1044.67 1848.05 922.346 1791.8 830.847C1735.55 739.348 2057 449.075 1964.01 395.015C1838.96 322.324 1669.77 409.473 1560.74 474.014C1450.2 539.467 1349.24 619.792 1257.97 710.127C1224.31 743.636 1198.85 781.049 1167.82 802.861Z" stroke="#F2F4F7" stroke-width="2"/>
<path d="M255.571 1415.39C332.812 1527.3 502.864 1502.25 614.365 1468.72C751.778 1427.45 890.227 1368.77 1036.69 1383.93C1191.28 1399.78 1510.39 1424.75 1667.81 1385.15C1779 1357.29 1924.7 1266.99 1951.77 1155.53C1975.97 1055.92 1893.79 940.686 1843.92 851.801C1792.58 760.218 2069.69 494.905 1982.58 436.745C1861.94 356.405 1698 417.605 1584.98 464.378C1471.52 511.255 1366.2 577.124 1269.94 656.465C1234.3 685.877 1206.16 719.449 1173.31 739.969C1145.41 757.65 1113.99 765.33 1071.15 753.438C1006.62 735.426 947.047 709.26 887.692 685.7C837.082 665.539 786.386 647.484 731.845 639.129C705.402 635.047 677.777 634.079 648.167 636.033C567.705 641.586 492.069 678.935 427.907 738.212C332.913 826.367 270.473 917.962 233.778 1006.88C164.824 1173.45 200.804 1336.16 255.571 1415.39Z" stroke="#F2F4F7" stroke-width="2"/>
<path d="M231.027 1425.38C312.976 1544.18 493.595 1517.65 611.998 1481.97C757.915 1438.08 904.862 1375.94 1060.5 1391.84C1224.62 1408.73 1530.7 1449.68 1697.84 1407.75C1815.83 1378.14 1958.43 1280.49 1987.11 1162.41C2010.18 1067.42 1939.48 959.226 1896.14 873.203C1849.76 781.337 2082.78 540.83 2001.21 479.125C1885.03 390.935 1726.43 426.637 1609.48 455.442C1493.19 484.192 1383.46 534.954 1282.22 603.301C1244.84 628.464 1214.02 658.194 1179.11 677.576C1149.8 694.063 1117.57 702.4 1075.77 695.012C1011.33 683.616 951.483 668.229 892.355 655.995C842.361 645.554 793.134 637.214 740.3 636.717C715.237 636.584 688.59 639.47 659.855 644.826C584.411 658.616 510.452 699.563 444.197 760.457C351.34 845.941 282.158 933.772 235.428 1021.1C153.943 1172.72 168.718 1335.18 231.027 1425.38Z" stroke="#F2F4F7" stroke-width="2"/>
<path d="M206.483 1435.37C293.341 1561.1 484.325 1533.05 609.783 1495.46C764.204 1448.96 919.898 1383.21 1084.42 1400.2C1258.12 1417.93 1550.92 1475.01 1727.76 1430.76C1852.56 1399.4 1992.01 1294.6 2022.39 1169.49C2044.29 1079.32 1985.37 977.813 1948.37 894.606C1907.15 802.504 2095.67 586.707 2019.89 521.303C1908.22 425.064 1755.11 435.516 1633.83 446.255C1514.76 456.679 1400.57 492.533 1294.14 549.839C1254.98 570.953 1221.52 596.641 1184.75 614.933C1154.03 630.226 1121.21 639.269 1080.49 636.184C1016.15 631.404 956.017 626.795 896.914 625.839C847.738 625.167 799.827 626.291 748.651 633.853C724.816 637.421 699.55 644.258 671.288 652.919C600.91 674.744 528.63 719.289 460.231 782.003C369.865 865.114 294.391 949.077 236.773 1034.83C144.868 1172.43 136.632 1334.19 206.483 1435.37Z" stroke="#F2F4F7" stroke-width="2"/>
<path d="M181.939 1445.36C273.505 1577.97 475.055 1548.45 607.416 1508.71C770.492 1459.85 934.532 1390.38 1108.23 1408.11C1291.46 1426.88 1571.24 1499.93 1757.64 1453.12C1889.44 1420.05 2025.58 1307.86 2057.82 1175.97C2078.55 1090.62 2031.65 995.647 2000.48 915.558C1964.68 823.069 2108.9 632.03 2038.26 562.983C1931.2 458.292 1783.64 444.146 1658.08 436.619C1536.53 429.215 1417.72 449.913 1306.31 496.224C1265.42 513.09 1229.28 534.936 1190.65 552.138C1158.71 566.287 1125.09 575.986 1085.2 577.357C1020.66 579.545 960.799 585.211 901.674 595.733C853.212 604.379 806.52 615.369 757.355 631.288C734.748 638.558 710.661 649.296 683.225 661.56C617.81 690.971 547.263 739.765 476.77 804.096C388.693 884.786 307.932 965.126 238.824 1049.15C136.95 1172.64 104.394 1332.95 181.939 1445.36Z" stroke="#F2F4F7" stroke-width="2"/>
<path d="M157.396 1455.35C253.669 1594.85 465.786 1563.85 605.049 1521.96C776.628 1470.48 949.215 1397.35 1131.79 1416.17C1324.55 1435.98 1591.06 1525.16 1787.41 1475.87C1926.02 1441.06 2059 1321.72 2092.96 1182.8C2112.51 1102.27 2077.63 1013.83 2052.51 936.912C2022.16 843.835 2121.89 677.506 2056.69 605.314C1954.48 492.019 1812.12 453.829 1682.38 427.634C1558.3 402.604 1434.93 407.944 1318.13 443.164C1275.66 456.03 1236.68 473.786 1196.04 489.647C1162.9 502.652 1128.43 513.209 1089.67 518.682C1025.12 527.888 964.98 543.479 906.184 565.779C858.637 583.792 813.262 604.247 765.658 628.626C744.327 639.396 721.267 653.786 694.609 669.854C634.054 706.4 565.592 759.741 492.706 826.044C406.919 904.312 321.527 981.827 240.023 1063.47C130.09 1173.73 72.3082 1331.96 157.396 1455.35Z" stroke="#F2F4F7" stroke-width="2"/>
<path d="M133.102 1465.19C234.083 1611.57 456.565 1579.05 602.682 1535.21C782.765 1481.12 963.849 1404.52 1155.6 1424.08C1357.94 1444.72 1611.18 1550.04 1817.24 1498.43C1962.65 1461.86 2092.73 1335.23 2128.09 1189.63C2146.52 1113.72 2123.82 1032.07 2104.53 958.266C2079.84 864.65 2135.13 722.829 2075.17 647.445C1978.06 525.394 1840.46 463.262 1706.53 418.399C1579.68 375.894 1451.79 365.676 1330.05 389.702C1285.8 398.52 1244.14 412.434 1201.68 427.005C1167.13 438.816 1132.02 450.279 1094.39 459.855C1029.79 476.279 969.66 501.444 910.744 535.624C863.911 562.955 819.603 593.026 774.01 625.763C753.907 640.234 731.873 658.276 706.193 678.197C650.146 721.58 583.873 779.919 508.692 847.791C425.194 923.638 335.628 999.075 241.521 1077.45C123.638 1175.78 40.2223 1330.98 133.102 1465.19Z" stroke="#F2F4F7" stroke-width="2"/>
<path d="M108.558 1475.17C214.448 1628.49 447.545 1594.3 600.565 1548.31C789.151 1491.6 978.782 1411.33 1179.62 1432.04C1391.49 1453.72 1631.69 1575.01 1847.51 1520.88C1999.89 1482.81 2126.65 1348.78 2163.72 1196.16C2180.99 1125.07 2170.96 1049.9 2157.1 979.115C2138.52 884.857 2149.11 767.696 2094.2 689.07C2002.6 558.361 1869.29 472.392 1731.37 408.909C1601.7 349.131 1469.5 323.403 1342.62 336.185C1296.59 340.956 1252.25 351.028 1207.98 364.307C1172.16 375.174 1136.21 387.496 1099.51 401.126C1035.26 424.865 974.291 459.61 915.905 505.615C869.635 542.015 826.595 581.752 783.164 623.095C764.338 641.066 743.131 662.711 718.381 686.687C666.639 736.857 602.756 800.242 525.481 869.732C443.87 943.061 350.538 1017.37 243.42 1091.52C117.441 1178.53 8.13641 1329.99 108.558 1475.17Z" stroke="#F2F4F7" stroke-width="2"/>
<path d="M791.315 620.183C701.072 729.058 545.903 932.751 245.118 1105.55C111.201 1182.33 -23.9009 1328.8 84.0142 1485.16C194.612 1645.37 438.275 1609.7 598.149 1561.76C795.19 1502.64 993.367 1418.7 1203.38 1440.15C1424.83 1462.67 1651.76 1600.09 1877.29 1543.64C2036.47 1503.82 2160.13 1362.44 2198.85 1202.99C2237.58 1043.54 2198.23 871.073 2112.43 731.353C2026.43 591.583 1897.08 482.33 1755.27 399.827C1467.34 232.493 1162.64 233.989 920.014 475.563C874.306 521.032 832.533 570.434 791.315 620.183Z" stroke="#F2F4F7" stroke-width="2"/>
</svg>
