<svg width="334" height="49" viewBox="0 0 334 49" fill="none" xmlns="http://www.w3.org/2000/svg">
<g clip-path="url(#clip0_8186_1027)">
<path fill-rule="evenodd" clip-rule="evenodd" d="M87.3344 21.1588L75.3136 3.12684C74.2064 1.46604 72.344 0.469238 70.3472 0.469238H5.968C2.672 0.469238 0 3.14124 0 6.43724V42.5012C0 45.7972 2.672 48.4692 5.968 48.4692H70.3472C72.3424 48.4692 74.2064 47.4724 75.3136 45.8116L87.3344 27.7796C88.6704 25.7748 88.6704 23.1636 87.3344 21.1588ZM77.5424 28.4676C75.3344 28.4676 73.544 26.6772 73.544 24.4692C73.544 22.2612 75.3344 20.4708 77.5424 20.4708C79.7504 20.4708 81.5408 22.2612 81.5408 24.4692C81.5408 26.6772 79.7504 28.4676 77.5424 28.4676Z" fill="#EC1C24"/>
<path d="M14.552 12.0982C14.0416 12.0982 13.624 12.199 13.3024 12.4006C12.9792 12.6022 12.7248 12.8678 12.536 13.1974C12.3472 13.527 12.216 13.9062 12.1424 14.3366C12.0688 14.767 12.032 15.2102 12.032 15.6678C12.032 16.1254 12.0688 16.5686 12.1424 16.999C12.216 17.4294 12.3472 17.8118 12.536 18.1478C12.7248 18.4838 12.9792 18.7526 13.3024 18.9542C13.6256 19.1558 14.0416 19.2566 14.552 19.2566H19.7936C20.56 19.2566 21.1168 19.0694 21.4672 18.6918C21.816 18.3158 22.0656 17.7446 22.2128 16.9782H26.2656C26.1584 17.879 25.9536 18.6486 25.6512 19.287C25.3488 19.9254 24.9856 20.463 24.5632 20.8998C24.1392 21.3366 23.6768 21.6838 23.1728 21.9382C22.6688 22.1942 22.1552 22.391 21.6304 22.5334C21.1056 22.6758 20.5952 22.7654 20.0976 22.8054C19.6 22.8454 19.1504 22.8662 18.7472 22.8662H15.6016C15.1712 22.8662 14.6848 22.8422 14.1392 22.7958C13.5952 22.7494 13.04 22.6406 12.4752 22.4726C11.9104 22.3046 11.3632 22.063 10.832 21.7462C10.3008 21.431 9.82397 21.007 9.39997 20.4758C8.97597 19.9446 8.63677 19.287 8.38237 18.4998C8.12637 17.7142 7.99997 16.7702 7.99997 15.6678C7.99997 14.5654 8.12797 13.6214 8.38237 12.8342C8.63677 12.0486 8.97757 11.3894 9.39997 10.8582C9.82397 10.327 10.3008 9.90457 10.832 9.58777C11.3632 9.27257 11.9104 9.03097 12.4752 8.86137C13.04 8.69337 13.5936 8.58617 14.1392 8.53817C14.6832 8.49177 15.1712 8.46777 15.6016 8.46777H18.7472C19.1504 8.46777 19.6 8.48857 20.0976 8.52857C20.5952 8.56857 21.1056 8.65977 21.6304 8.80057C22.1552 8.94137 22.6688 9.13977 23.1728 9.39577C23.6768 9.65177 24.1408 9.99737 24.5632 10.4342C24.9872 10.871 25.3488 11.4086 25.6512 12.047C25.9536 12.6854 26.1584 13.455 26.2656 14.3558H22.2128C22.1184 13.6566 21.8832 13.1062 21.5072 12.703C21.1312 12.2998 20.56 12.0982 19.7936 12.0982H14.552Z" fill="white"/>
<path d="M37.5567 8.46924L44.7951 22.8644H40.5215L39.0495 19.7396H31.4079L29.9359 22.8644H25.6623L32.9199 8.46924H37.5567ZM37.4351 16.3332L35.2383 11.6356L33.0207 16.3332H37.4367H37.4351Z" fill="white"/>
<path d="M62.5775 13.8532C62.5775 14.6468 62.4767 15.3284 62.2751 15.8996C62.0735 16.4708 61.8047 16.9556 61.4687 17.3508C61.1327 17.7476 60.7455 18.066 60.3087 18.3092C59.8719 18.5508 59.4111 18.7396 58.9279 18.874L63.3023 22.866H58.0799L54.2895 19.2372H49.2287V22.866H45.3983V8.46924H55.7007C56.1311 8.46924 56.6015 8.48684 57.1119 8.52044C57.6223 8.55404 58.1327 8.63084 58.6447 8.75244C59.1551 8.87404 59.6463 9.05164 60.1167 9.28684C60.5871 9.52204 61.0031 9.84204 61.3663 10.2436C61.7295 10.6468 62.0223 11.1412 62.2431 11.7252C62.4655 12.3108 62.5759 13.0196 62.5759 13.8532H62.5775ZM49.2303 15.6276H56.0255C56.5359 15.6276 56.9567 15.5876 57.2863 15.506C57.6159 15.4244 57.8735 15.3108 58.0623 15.1636C58.2495 15.0164 58.3807 14.8308 58.4559 14.6084C58.5295 14.386 58.5663 14.1348 58.5663 13.8516C58.5663 13.5684 58.5295 13.3204 58.4559 13.106C58.3823 12.8916 58.2511 12.706 58.0623 12.5508C57.8735 12.3972 57.6159 12.282 57.2863 12.2084C56.9567 12.1348 56.5375 12.098 56.0255 12.098H49.2303V15.626V15.6276Z" fill="white"/>
<path d="M26.3263 30.1669C26.3263 30.7317 26.2127 31.2821 25.9839 31.8197C25.7551 32.3573 25.3855 32.8421 24.8751 33.2709C25.3855 33.7013 25.7551 34.1877 25.9839 34.7333C26.2127 35.2773 26.3263 35.8261 26.3263 36.3765C26.3263 37.1301 26.1983 37.7637 25.9439 38.2821C25.6879 38.8005 25.3455 39.2197 24.9151 39.5429C24.4847 39.8661 23.9807 40.1013 23.4031 40.2485C22.8255 40.3973 22.2207 40.4709 21.5887 40.4709H7.99991V26.0757H21.5887C22.2207 26.0757 22.8255 26.1493 23.4031 26.2981C23.9807 26.4469 24.4847 26.6805 24.9151 27.0037C25.3455 27.3269 25.6879 27.7461 25.9439 28.2645C26.1983 28.7829 26.3263 29.4165 26.3263 30.1701V30.1669ZM21.1855 31.9605C21.6015 31.9605 21.9279 31.8629 22.1631 31.6677C22.3983 31.4725 22.5167 31.1813 22.5167 30.7909C22.5167 30.4421 22.3983 30.1621 22.1631 29.9541C21.9279 29.7461 21.6287 29.6421 21.2655 29.6421H11.8095V31.9605H21.1855ZM11.8095 34.6021V36.9013H21.2655C21.6287 36.9013 21.9279 36.8005 22.1631 36.5989C22.3983 36.3973 22.5167 36.1157 22.5167 35.7525C22.5167 35.3621 22.3983 35.0741 22.1631 34.8853C21.9279 34.6965 21.6015 34.6037 21.1855 34.6037H11.8095V34.6021Z" fill="white"/>
<path d="M42.4559 26.0742H46.2863V33.2726C46.2863 34.375 46.1583 35.319 45.9039 36.1046C45.6479 36.8902 45.3087 37.5494 44.8863 38.0806C44.4623 38.6118 43.9855 39.0358 43.4543 39.351C42.9231 39.6662 42.3759 39.9094 41.8111 40.0774C41.2463 40.2454 40.6927 40.3526 40.1471 40.4006C39.6031 40.4486 39.1151 40.471 38.6847 40.471H35.5391C35.1087 40.471 34.6223 40.447 34.0767 40.4006C33.5327 40.3542 32.9775 40.2454 32.4127 40.0774C31.8479 39.9094 31.3007 39.6678 30.7695 39.351C30.2383 39.0358 29.7615 38.6118 29.3375 38.0806C28.9135 37.5494 28.5743 36.8918 28.3199 36.1046C28.0639 35.319 27.9375 34.3734 27.9375 33.2726V26.0742H31.7679V33.2726C31.7679 33.7302 31.8143 34.1734 31.9087 34.6038C32.0031 35.0342 32.1535 35.4166 32.3615 35.7526C32.5695 36.0886 32.8479 36.3574 33.1983 36.559C33.5471 36.7606 33.9775 36.8614 34.4879 36.8614H39.9311C40.4415 36.8614 40.8591 36.7606 41.1807 36.559C41.5039 36.3574 41.7583 36.0886 41.9471 35.7526C42.1343 35.4166 42.2655 35.0342 42.3407 34.6038C42.4143 34.1734 42.4511 33.7302 42.4511 33.2726V26.0742H42.4559Z" fill="white"/>
<path d="M65.5423 26.0742L58.2239 35.2278V40.4694H54.4127V35.2278L47.0943 26.0742H51.9935L56.3087 31.9622L60.6431 26.0742H65.5423Z" fill="white"/>
</g>
<defs>
<clipPath id="clip0_8186_1027">
<rect width="88.3376" height="48" fill="white" transform="translate(0 0.469238)"/>
</clipPath>
</defs>
</svg>
