<svg width="89" height="48" viewBox="0 0 89 48" fill="none" xmlns="http://www.w3.org/2000/svg">
<g clip-path="url(#clip0_9446_4994)">
<path fill-rule="evenodd" clip-rule="evenodd" d="M87.3344 20.6896L75.3136 2.6576C74.2064 0.9968 72.344 0 70.3472 0H5.968C2.672 0 0 2.672 0 5.968V42.032C0 45.328 2.672 48 5.968 48H70.3472C72.3424 48 74.2064 47.0032 75.3136 45.3424L87.3344 27.3104C88.6704 25.3056 88.6704 22.6944 87.3344 20.6896ZM77.5424 27.9984C75.3344 27.9984 73.544 26.208 73.544 24C73.544 21.792 75.3344 20.0016 77.5424 20.0016C79.7504 20.0016 81.5408 21.792 81.5408 24C81.5408 26.208 79.7504 27.9984 77.5424 27.9984Z" fill="#EC1C24"/>
<path d="M14.552 11.6289C14.0416 11.6289 13.624 11.7297 13.3024 11.9313C12.9792 12.1329 12.7248 12.3985 12.536 12.7281C12.3472 13.0577 12.216 13.4369 12.1424 13.8673C12.0688 14.2977 12.032 14.7409 12.032 15.1985C12.032 15.6561 12.0688 16.0993 12.1424 16.5297C12.216 16.9601 12.3472 17.3425 12.536 17.6785C12.7248 18.0145 12.9792 18.2833 13.3024 18.4849C13.6256 18.6865 14.0416 18.7873 14.552 18.7873H19.7936C20.56 18.7873 21.1168 18.6001 21.4672 18.2225C21.816 17.8465 22.0656 17.2753 22.2128 16.5089H26.2656C26.1584 17.4097 25.9536 18.1793 25.6512 18.8177C25.3488 19.4561 24.9856 19.9937 24.5632 20.4305C24.1392 20.8673 23.6768 21.2145 23.1728 21.4689C22.6688 21.7249 22.1552 21.9217 21.6304 22.0641C21.1056 22.2065 20.5952 22.2961 20.0976 22.3361C19.6 22.3761 19.1504 22.3969 18.7472 22.3969H15.6016C15.1712 22.3969 14.6848 22.3729 14.1392 22.3265C13.5952 22.2801 13.04 22.1713 12.4752 22.0033C11.9104 21.8353 11.3632 21.5937 10.832 21.2769C10.3008 20.9617 9.824 20.5377 9.4 20.0065C8.976 19.4753 8.6368 18.8177 8.3824 18.0305C8.1264 17.2449 8 16.3009 8 15.1985C8 14.0961 8.128 13.1521 8.3824 12.3649C8.6368 11.5793 8.9776 10.9201 9.4 10.3889C9.824 9.85773 10.3008 9.43534 10.832 9.11854C11.3632 8.80334 11.9104 8.56173 12.4752 8.39213C13.04 8.22414 13.5936 8.11693 14.1392 8.06893C14.6832 8.02253 15.1712 7.99854 15.6016 7.99854H18.7472C19.1504 7.99854 19.6 8.01933 20.0976 8.05933C20.5952 8.09933 21.1056 8.19053 21.6304 8.33133C22.1552 8.47213 22.6688 8.67054 23.1728 8.92654C23.6768 9.18254 24.1408 9.52813 24.5632 9.96493C24.9872 10.4017 25.3488 10.9393 25.6512 11.5777C25.9536 12.2161 26.1584 12.9857 26.2656 13.8865H22.2128C22.1184 13.1873 21.8832 12.6369 21.5072 12.2337C21.1312 11.8305 20.56 11.6289 19.7936 11.6289H14.552Z" fill="white"/>
<path d="M37.5585 8L44.7969 22.3952H40.5233L39.0513 19.2704H31.4097L29.9377 22.3952H25.6641L32.9217 8H37.5585ZM37.4369 15.864L35.2401 11.1664L33.0225 15.864H37.4385H37.4369Z" fill="white"/>
<path d="M62.5776 13.384C62.5776 14.1776 62.4768 14.8592 62.2752 15.4304C62.0736 16.0016 61.8048 16.4864 61.4688 16.8816C61.1328 17.2784 60.7456 17.5968 60.3088 17.84C59.872 18.0816 59.4112 18.2704 58.928 18.4048L63.3024 22.3968H58.08L54.2896 18.768H49.2288V22.3968H45.3984V8H55.7008C56.1312 8 56.6016 8.0176 57.112 8.0512C57.6224 8.0848 58.1328 8.1616 58.6448 8.2832C59.1552 8.4048 59.6464 8.5824 60.1168 8.8176C60.5872 9.0528 61.0032 9.3728 61.3664 9.7744C61.7296 10.1776 62.0224 10.672 62.2432 11.256C62.4656 11.8416 62.576 12.5504 62.576 13.384H62.5776ZM49.2304 15.1584H56.0256C56.536 15.1584 56.9568 15.1184 57.2864 15.0368C57.616 14.9552 57.8736 14.8416 58.0624 14.6944C58.2496 14.5472 58.3808 14.3616 58.456 14.1392C58.5296 13.9168 58.5664 13.6656 58.5664 13.3824C58.5664 13.0992 58.5296 12.8512 58.456 12.6368C58.3824 12.4224 58.2512 12.2368 58.0624 12.0816C57.8736 11.928 57.616 11.8128 57.2864 11.7392C56.9568 11.6656 56.5376 11.6288 56.0256 11.6288H49.2304V15.1568V15.1584Z" fill="white"/>
<path d="M26.3264 29.6976C26.3264 30.2624 26.2128 30.8128 25.984 31.3504C25.7552 31.888 25.3856 32.3728 24.8752 32.8016C25.3856 33.232 25.7552 33.7184 25.984 34.264C26.2128 34.808 26.3264 35.3568 26.3264 35.9072C26.3264 36.6608 26.1984 37.2944 25.944 37.8128C25.688 38.3312 25.3456 38.7504 24.9152 39.0736C24.4848 39.3968 23.9808 39.632 23.4032 39.7792C22.8256 39.928 22.2208 40.0016 21.5888 40.0016H8V25.6064H21.5888C22.2208 25.6064 22.8256 25.68 23.4032 25.8288C23.9808 25.9776 24.4848 26.2112 24.9152 26.5344C25.3456 26.8576 25.688 27.2768 25.944 27.7952C26.1984 28.3136 26.3264 28.9472 26.3264 29.7008V29.6976ZM21.1856 31.4912C21.6016 31.4912 21.928 31.3936 22.1632 31.1984C22.3984 31.0032 22.5168 30.712 22.5168 30.3216C22.5168 29.9728 22.3984 29.6928 22.1632 29.4848C21.928 29.2768 21.6288 29.1728 21.2656 29.1728H11.8096V31.4912H21.1856ZM11.8096 34.1328V36.432H21.2656C21.6288 36.432 21.928 36.3312 22.1632 36.1296C22.3984 35.928 22.5168 35.6464 22.5168 35.2832C22.5168 34.8928 22.3984 34.6048 22.1632 34.416C21.928 34.2272 21.6016 34.1344 21.1856 34.1344H11.8096V34.1328Z" fill="white"/>
<path d="M42.4559 25.605H46.2863V32.8034C46.2863 33.9058 46.1583 34.8498 45.9039 35.6354C45.6479 36.421 45.3087 37.0802 44.8863 37.6114C44.4623 38.1426 43.9855 38.5666 43.4543 38.8818C42.9231 39.197 42.3759 39.4402 41.8111 39.6082C41.2463 39.7762 40.6927 39.8834 40.1471 39.9314C39.6031 39.9794 39.1151 40.0018 38.6847 40.0018H35.5391C35.1087 40.0018 34.6223 39.9778 34.0767 39.9314C33.5327 39.885 32.9775 39.7762 32.4127 39.6082C31.8479 39.4402 31.3007 39.1986 30.7695 38.8818C30.2383 38.5666 29.7615 38.1426 29.3375 37.6114C28.9135 37.0802 28.5743 36.4226 28.3199 35.6354C28.0639 34.8498 27.9375 33.9042 27.9375 32.8034V25.605H31.7679V32.8034C31.7679 33.261 31.8143 33.7042 31.9087 34.1346C32.0031 34.565 32.1535 34.9474 32.3615 35.2834C32.5695 35.6194 32.8479 35.8882 33.1983 36.0898C33.5471 36.2914 33.9775 36.3922 34.4879 36.3922H39.9311C40.4415 36.3922 40.8591 36.2914 41.1807 36.0898C41.5039 35.8882 41.7583 35.6194 41.9471 35.2834C42.1343 34.9474 42.2655 34.565 42.3407 34.1346C42.4143 33.7042 42.4511 33.261 42.4511 32.8034V25.605H42.4559Z" fill="white"/>
<path d="M65.5418 25.605L58.2234 34.7586V40.0002H54.4121V34.7586L47.0938 25.605H51.9929L56.3082 31.493L60.6425 25.605H65.5418Z" fill="white"/>
</g>
<defs>
<clipPath id="clip0_9446_4994">
<rect width="88.3376" height="48" fill="white"/>
</clipPath>
</defs>
</svg>
