<svg width="20" height="21" viewBox="0 0 20 21" fill="none" xmlns="http://www.w3.org/2000/svg">
<path d="M17.9167 15.4694L12.381 10.4694M7.61907 10.4694L2.08338 15.4694M1.66669 6.30273L8.47079 11.0656C9.02176 11.4513 9.29725 11.6441 9.59691 11.7188C9.8616 11.7848 10.1384 11.7848 10.4031 11.7188C10.7028 11.6441 10.9783 11.4513 11.5293 11.0656L18.3334 6.30273M5.66669 17.1361H14.3334C15.7335 17.1361 16.4336 17.1361 16.9683 16.8636C17.4387 16.6239 17.8212 16.2414 18.0609 15.771C18.3334 15.2363 18.3334 14.5362 18.3334 13.1361V7.80273C18.3334 6.4026 18.3334 5.70254 18.0609 5.16776C17.8212 4.69735 17.4387 4.3149 16.9683 4.07522C16.4336 3.80273 15.7335 3.80273 14.3334 3.80273H5.66669C4.26656 3.80273 3.56649 3.80273 3.03171 4.07522C2.56131 4.3149 2.17885 4.69735 1.93917 5.16776C1.66669 5.70254 1.66669 6.4026 1.66669 7.80273V13.1361C1.66669 14.5362 1.66669 15.2363 1.93917 15.771C2.17885 16.2414 2.56131 16.6239 3.03171 16.8636C3.56649 17.1361 4.26656 17.1361 5.66669 17.1361Z" stroke="#667085" stroke-width="1.66667" stroke-linecap="round" stroke-linejoin="round"/>
</svg>
