<svg width="204" height="181" viewBox="0 0 204 181" fill="none" xmlns="http://www.w3.org/2000/svg">
<path d="M137.432 62.4136C122.954 62.4136 108.216 61.8253 94.4301 57.9837C80.9033 54.2286 68.4836 46.9434 57.413 38.5161C50.1653 33.0306 43.5749 28.6699 34.165 29.3275C24.9514 29.8321 16.145 33.2905 9.04877 39.191C-2.92122 49.5737 -1.12226 69.0066 3.66919 82.6598C10.865 103.218 32.7639 117.459 51.3762 126.769C72.8772 137.515 96.5058 143.745 120.186 147.344C140.943 150.493 167.616 152.795 185.606 139.228C202.125 126.769 206.657 98.3204 202.61 79.1124C201.629 73.4329 198.608 68.3071 194.117 64.6978C182.51 56.2186 165.195 61.8772 152.152 62.1713C147.309 62.2752 142.379 62.3963 137.432 62.4136Z" fill="#F2F4F7"/>
<path d="M102.008 181C137.077 181 165.507 179.225 165.507 177.037C165.507 174.848 137.077 173.074 102.008 173.074C66.9376 173.074 38.5078 174.848 38.5078 177.037C38.5078 179.225 66.9376 181 102.008 181Z" fill="#F9FAFB"/>
<path d="M10.952 124.73C11.8882 124.73 12.6472 123.97 12.6472 123.034C12.6472 122.097 11.8882 121.338 10.952 121.338C10.0158 121.338 9.25684 122.097 9.25684 123.034C9.25684 123.97 10.0158 124.73 10.952 124.73Z" fill="#F2F4F7"/>
<path d="M84.0156 146.236V153.695" stroke="#D0D5DD" stroke-linecap="round" stroke-linejoin="round"/>
<path d="M80.2988 149.975H87.7368" stroke="#D0D5DD" stroke-linecap="round" stroke-linejoin="round"/>
<path d="M173.325 28.9473H30.671C26.9835 28.9473 23.9941 31.9378 23.9941 35.6268V133.518C23.9941 137.207 26.9835 140.198 30.671 140.198H173.325C177.012 140.198 180.002 137.207 180.002 133.518V35.6268C180.002 31.9378 177.012 28.9473 173.325 28.9473Z" fill="white" stroke="#D0D5DD" stroke-linecap="round" stroke-linejoin="round"/>
<path d="M158.968 58.5371H45.0115C42.3748 58.5371 40.2373 60.6754 40.2373 63.3131V125.523C40.2373 128.16 42.3748 130.299 45.0115 130.299H158.968C161.605 130.299 163.743 128.16 163.743 125.523V63.3131C163.743 60.6754 161.605 58.5371 158.968 58.5371Z" fill="white" stroke="#D0D5DD" stroke-linecap="round" stroke-linejoin="round"/>
<path d="M180.002 47.6894V35.732C180.004 34.8534 179.833 33.9829 179.499 33.1705C179.164 32.3581 178.673 31.6197 178.052 30.9977C177.432 30.3756 176.695 29.882 175.884 29.5453C175.073 29.2085 174.203 29.0352 173.325 29.0352H30.6711C29.7928 29.0352 28.9231 29.2085 28.1119 29.5453C27.3007 29.882 26.5639 30.3756 25.9437 30.9977C25.3234 31.6197 24.832 32.3581 24.4974 33.1705C24.1629 33.9829 23.9919 34.8534 23.9942 35.732V47.8451L180.002 47.6894Z" fill="#D0D5DD"/>
<path d="M70.8701 17.7168V39.2608" stroke="#D0D5DD" stroke-linecap="round" stroke-linejoin="round"/>
<path d="M133.142 17.7168V39.2608" stroke="#D0D5DD" stroke-linecap="round" stroke-linejoin="round"/>
<path d="M156.269 19.1553C157.206 19.1553 157.965 18.3961 157.965 17.4595C157.965 16.5229 157.206 15.7637 156.269 15.7637C155.333 15.7637 154.574 16.5229 154.574 17.4595C154.574 18.3961 155.333 19.1553 156.269 19.1553Z" fill="#F2F4F7"/>
<path d="M50.3377 20.6417C51.274 20.6417 52.0329 19.8824 52.0329 18.9458C52.0329 18.0093 51.274 17.25 50.3377 17.25C49.4015 17.25 48.6426 18.0093 48.6426 18.9458C48.6426 19.8824 49.4015 20.6417 50.3377 20.6417Z" fill="#F2F4F7"/>
<path d="M93.7217 7.71484V15.1558" stroke="#D0D5DD" stroke-linecap="round" stroke-linejoin="round"/>
<path d="M90.002 11.4375H97.44" stroke="#D0D5DD" stroke-linecap="round" stroke-linejoin="round"/>
<path d="M15.7432 1V8.44091" stroke="#D0D5DD" stroke-linecap="round" stroke-linejoin="round"/>
<path d="M12.0234 4.7207H19.4787" stroke="#D0D5DD" stroke-linecap="round" stroke-linejoin="round"/>
<path d="M80.3662 110.416C81.4671 105.501 84.2084 101.107 88.1386 97.9592C92.0688 94.811 96.9535 93.0957 101.988 93.0957C107.023 93.0957 111.908 94.811 115.838 97.9592C119.768 101.107 122.509 105.501 123.61 110.416" stroke="#D0D5DD" stroke-linecap="round" stroke-linejoin="round"/>
<path d="M129.009 81.5177C129.009 82.9429 127.854 84.0979 126.43 84.0979C125.005 84.0979 123.851 82.9429 123.851 81.5177C123.851 80.0925 125.005 78.9375 126.43 78.9375C127.854 78.9375 129.009 80.0925 129.009 81.5177Z" fill="#D0D5DD" stroke="#D0D5DD"/>
<path d="M80.1424 81.5177C80.1424 82.9429 78.9875 84.0979 77.5634 84.0979C76.1392 84.0979 74.9844 82.9429 74.9844 81.5177C74.9844 80.0925 76.1392 78.9375 77.5634 78.9375C78.9875 78.9375 80.1424 80.0925 80.1424 81.5177Z" fill="#D0D5DD" stroke="#D0D5DD"/>
</svg>
