<svg width="25" height="24" viewBox="0 0 25 24" fill="none" xmlns="http://www.w3.org/2000/svg">
<path d="M9.5 10.5L11.5 12.5L16 8M20.5 21V7.8C20.5 6.11984 20.5 5.27976 20.173 4.63803C19.8854 4.07354 19.4265 3.6146 18.862 3.32698C18.2202 3 17.3802 3 15.7 3H9.3C7.61984 3 6.77976 3 6.13803 3.32698C5.57354 3.6146 5.1146 4.07354 4.82698 4.63803C4.5 5.27976 4.5 6.11984 4.5 7.8V21L7.25 19L9.75 21L12.5 19L15.25 21L17.75 19L20.5 21Z" stroke="#EC1C24" stroke-width="2" stroke-linecap="round" stroke-linejoin="round"/>
</svg>
