<svg width="24" height="25" viewBox="0 0 24 25" fill="none" xmlns="http://www.w3.org/2000/svg">
<path d="M4.5 22.4692V17.4692M4.5 7.46924V2.46924M2 4.96924H7M2 19.9692H7M13 3.46924L11.2658 7.9781C10.9838 8.71133 10.8428 9.07794 10.6235 9.38632C10.4292 9.65963 10.1904 9.89843 9.91708 10.0928C9.60871 10.312 9.24209 10.453 8.50886 10.7351L4 12.4692L8.50886 14.2034C9.24209 14.4854 9.60871 14.6264 9.91709 14.8457C10.1904 15.04 10.4292 15.2788 10.6235 15.5522C10.8428 15.8605 10.9838 16.2271 11.2658 16.9604L13 21.4692L14.7342 16.9604C15.0162 16.2271 15.1572 15.8605 15.3765 15.5522C15.5708 15.2788 15.8096 15.04 16.0829 14.8457C16.3913 14.6264 16.7579 14.4854 17.4911 14.2034L22 12.4692L17.4911 10.7351C16.7579 10.453 16.3913 10.312 16.0829 10.0928C15.8096 9.89843 15.5708 9.65964 15.3765 9.38632C15.1572 9.07795 15.0162 8.71133 14.7342 7.9781L13 3.46924Z" stroke="#667085" stroke-width="1.6" stroke-linecap="round" stroke-linejoin="round"/>
</svg>
