<svg width="21" height="20" viewBox="0 0 21 20" fill="none" xmlns="http://www.w3.org/2000/svg">
<path d="M4.24935 18.3334V14.1667M4.24935 5.83335V1.66669M2.16602 3.75002H6.33268M2.16602 16.25H6.33268M11.3327 2.50002L9.88753 6.25741C9.65253 6.86843 9.53502 7.17394 9.35229 7.43093C9.19034 7.65869 8.99135 7.85768 8.76359 8.01963C8.50661 8.20236 8.20109 8.31986 7.59007 8.55487L3.83268 10L7.59007 11.4452C8.20109 11.6802 8.50661 11.7977 8.76359 11.9804C8.99135 12.1424 9.19034 12.3414 9.35229 12.5691C9.53502 12.8261 9.65253 13.1316 9.88754 13.7426L11.3327 17.5L12.7778 13.7426C13.0128 13.1316 13.1303 12.8261 13.3131 12.5691C13.475 12.3414 13.674 12.1424 13.9018 11.9804C14.1588 11.7977 14.4643 11.6802 15.0753 11.4452L18.8327 10L15.0753 8.55487C14.4643 8.31986 14.1588 8.20236 13.9018 8.01963C13.674 7.85768 13.475 7.65869 13.3131 7.43093C13.1303 7.17394 13.0128 6.86843 12.7778 6.2574L11.3327 2.50002Z" stroke="#C60F16" stroke-width="1.66667" stroke-linecap="round" stroke-linejoin="round"/>
</svg>
