<svg width="24" height="24" viewBox="0 0 24 24" fill="none" xmlns="http://www.w3.org/2000/svg">
<path fill-rule="evenodd" clip-rule="evenodd" d="M3.31064 10.8018C8.42845 8.57205 11.8411 7.10207 13.5487 6.39184C18.424 4.36401 19.4371 4.01176 20.0974 4.00012C20.2426 3.99757 20.5673 4.03356 20.7777 4.20423C20.9553 4.34834 21.0041 4.54302 21.0275 4.67966C21.0509 4.81629 21.08 5.12755 21.0569 5.37076C20.7927 8.14671 19.6495 14.8832 19.0679 17.9923C18.8218 19.3079 18.3373 19.749 17.8682 19.7922C16.8487 19.886 16.0745 19.1184 15.0871 18.4712C13.542 17.4583 12.6691 16.8278 11.1693 15.8395C9.436 14.6973 10.5596 14.0695 11.5474 13.0435C11.8059 12.775 16.2978 8.68932 16.3847 8.31868C16.3956 8.27233 16.4057 8.09954 16.3031 8.0083C16.2004 7.91706 16.0489 7.94826 15.9396 7.97307C15.7846 8.00825 13.3163 9.63973 8.53452 12.8675C7.83389 13.3486 7.19928 13.583 6.63069 13.5708C6.00387 13.5572 4.79811 13.2163 3.90175 12.925C2.80233 12.5676 1.92853 12.3787 2.00462 11.7717C2.04425 11.4556 2.47959 11.1323 3.31064 10.8018Z" fill="none"/>
</svg>
