<svg width="40" height="41" viewBox="0 0 40 41" fill="none" xmlns="http://www.w3.org/2000/svg">
<path fill-rule="evenodd" clip-rule="evenodd" d="M20 39.2192C29.665 39.2192 37.5 31.3842 37.5 21.7192C37.5 12.0543 29.665 4.21924 20 4.21924C10.335 4.21924 2.5 12.0543 2.5 21.7192C2.5 24.8578 3.32625 27.8035 4.77309 30.3504L2.5 39.2192L11.6436 37.099C14.1267 38.451 16.9736 39.2192 20 39.2192ZM20 36.5269C28.1781 36.5269 34.8077 29.8973 34.8077 21.7192C34.8077 13.5412 28.1781 6.91155 20 6.91155C11.8219 6.91155 5.19231 13.5412 5.19231 21.7192C5.19231 24.8768 6.18063 27.8036 7.8648 30.207L6.53846 35.1808L11.5999 33.9154C13.9867 35.5624 16.8807 36.5269 20 36.5269Z" fill="#BFC8D0"/>
<path d="M35 20.4692C35 28.7535 28.2843 35.4692 20 35.4692C16.8402 35.4692 13.9086 34.4922 11.4908 32.8238L6.36364 34.1056L7.7072 29.0672C6.00116 26.6326 5 23.6678 5 20.4692C5 12.185 11.7157 5.46924 20 5.46924C28.2843 5.46924 35 12.185 35 20.4692Z" fill="url(#paint0_linear_8151_2256)"/>
<path fill-rule="evenodd" clip-rule="evenodd" d="M20 37.9692C29.665 37.9692 37.5 30.1342 37.5 20.4692C37.5 10.8043 29.665 2.96924 20 2.96924C10.335 2.96924 2.5 10.8043 2.5 20.4692C2.5 23.6078 3.32625 26.5535 4.77309 29.1004L2.5 37.9692L11.6436 35.849C14.1267 37.201 16.9736 37.9692 20 37.9692ZM20 35.2769C28.1781 35.2769 34.8077 28.6473 34.8077 20.4692C34.8077 12.2912 28.1781 5.66155 20 5.66155C11.8219 5.66155 5.19231 12.2912 5.19231 20.4692C5.19231 23.6268 6.18063 26.5536 7.8648 28.957L6.53846 33.9308L11.5999 32.6654C13.9867 34.3124 16.8807 35.2769 20 35.2769Z" fill="white"/>
<path d="M15.625 12.3442C15.2089 11.5085 14.5707 11.5825 13.9258 11.5825C12.7735 11.5825 10.9766 12.9628 10.9766 15.5318C10.9766 17.6372 11.9043 19.9419 15.0305 23.3895C18.0476 26.7167 22.0117 28.4379 25.3027 28.3793C28.5938 28.3207 29.2709 25.4887 29.2709 24.5323C29.2709 24.1084 29.0078 23.8969 28.8266 23.8394C27.7051 23.3012 25.6367 22.2983 25.166 22.1099C24.6954 21.9214 24.4496 22.1763 24.2969 22.3149C23.8701 22.7217 23.0241 23.9203 22.7344 24.1899C22.4447 24.4596 22.0129 24.3231 21.8331 24.2212C21.1718 23.9558 19.3787 23.1582 17.9493 21.7726C16.1817 20.0591 16.0779 19.4695 15.7449 18.9447C15.4784 18.5249 15.674 18.2673 15.7715 18.1548C16.1524 17.7153 16.6783 17.0368 16.9141 16.6997C17.1499 16.3625 16.9627 15.8506 16.8504 15.5318C16.3672 14.1606 15.9579 13.0128 15.625 12.3442Z" fill="white"/>
<defs>
<linearGradient id="paint0_linear_8151_2256" x1="33.125" y1="9.21924" x2="5" y2="35.4692" gradientUnits="userSpaceOnUse">
<stop stop-color="#5BD066"/>
<stop offset="1" stop-color="#27B43E"/>
</linearGradient>
</defs>
</svg>
